<?xml version="1.0" encoding="UTF-8"?><svg width="35.9833mm" height="20.1083mm" viewBox="0 0 136 76" xmlns="http://www.w3.org/2000/svg" xmlns:xlink="http://www.w3.org/1999/xlink"><g fill="none" stroke="black" stroke-width="1" fill-rule="evenodd" stroke-linecap="square" stroke-linejoin="bevel"><g clip-path="none" fill="#ffffff" fill-opacity="1" opacity="1" stroke="none" stroke-opacity="0" transform="matrix(1,0,0,1,0,0)"><path d="M0,0 L136,0 L136,76 L0,76 L0,0 z" fill-rule="evenodd" vector-effect="none"/></g><defs><clipPath id="clip3"><path d="M-2,-2 L134,-2 L134,74 L-2,74 L-2,-2 z"/></clipPath></defs><g clip-path="url(#clip3)" fill="#000000" fill-opacity="0.8" opacity="1" stroke="none" stroke-opacity="0" transform="matrix(1,0,0,1,2,2)"><path d="M132,4 L136,4 L136,59 L4,59 L4,55 L132,55 L132,4 z" fill-rule="evenodd" vector-effect="none"/></g><defs><clipPath id="clip4"><path d="M-2,-2 L134,-2 L134,74 L-2,74 L-2,-2 z"/></clipPath></defs><g clip-path="url(#clip4)" fill="#ffffff" fill-opacity="1" opacity="1" stroke="none" stroke-opacity="0" transform="matrix(1,0,0,1,2,2)"><path d="M0,0 L132,0 L132,55 L0,55 L0,0 z" fill-rule="evenodd" vector-effect="none"/></g><defs><clipPath id="clip8"><path d="M-68,-11 L68,-11 L68,48 L-68,48 L-68,-11 z"/></clipPath></defs><g clip-path="url(#clip8)" fill="none" opacity="1" stroke="#000000" stroke-linecap="butt" stroke-linejoin="miter" stroke-miterlimit="2" stroke-opacity="1" stroke-width="1" transform="matrix(1,0,0,1,68,11)"><text fill="#000000" fill-opacity="1" font-family="Arial, sans-serif" font-size="10" font-style="normal" font-weight="400" stroke="none" textLength="69.3281" x="-34.6563" xml:space="preserve" y="3.5">0 timers used ()</text></g><defs><clipPath id="clip9"><path d="M-68,-23 L68,-23 L68,36 L-68,36 L-68,-23 z"/></clipPath></defs><g clip-path="url(#clip9)" fill="none" opacity="1" stroke="#000000" stroke-linecap="butt" stroke-linejoin="miter" stroke-miterlimit="2" stroke-opacity="1" stroke-width="1" transform="matrix(1,0,0,1,68,23)"><text fill="#000000" fill-opacity="1" font-family="Arial, sans-serif" font-size="10" font-style="normal" font-weight="400" stroke="none" textLength="52.1406" x="-26.0625" xml:space="preserve" y="3.5">1 remaining</text></g><defs><clipPath id="clip10"><path d="M-68,-35 L68,-35 L68,24 L-68,24 L-68,-35 z"/></clipPath></defs><g clip-path="url(#clip10)" fill="none" opacity="1" stroke="#000000" stroke-linecap="butt" stroke-linejoin="miter" stroke-miterlimit="2" stroke-opacity="1" stroke-width="1" transform="matrix(1,0,0,1,68,35)"><text fill="#000000" fill-opacity="1" font-family="Arial, sans-serif" font-size="10" font-style="normal" font-weight="400" stroke="none" textLength="68.7813" x="-34.3906" xml:space="preserve" y="3.5">1 SCC used (1)</text></g><defs><clipPath id="clip11"><path d="M-68,-47 L68,-47 L68,12 L-68,12 L-68,-47 z"/></clipPath></defs><g clip-path="url(#clip11)" fill="none" opacity="1" stroke="#000000" stroke-linecap="butt" stroke-linejoin="miter" stroke-miterlimit="2" stroke-opacity="1" stroke-width="1" transform="matrix(1,0,0,1,68,47)"><text fill="#000000" fill-opacity="1" font-family="Arial, sans-serif" font-size="10" font-style="normal" font-weight="400" stroke="none" textLength="52.1406" x="-26.0625" xml:space="preserve" y="3.5">3 remaining</text></g><defs><clipPath id="clip16"><path d="M-2.5,-2.5 L133.5,-2.5 L133.5,73.5 L-2.5,73.5 L-2.5,-2.5 z"/></clipPath></defs><g clip-path="url(#clip16)" fill="none" opacity="1" stroke="#000000" stroke-linecap="butt" stroke-linejoin="miter" stroke-miterlimit="2" stroke-opacity="1" stroke-width="1" transform="matrix(1,0,0,1,2.5,2.5)"><path d="M0,0 L132,0 L132,55 L0,55 L0,0 z" fill-rule="evenodd" vector-effect="none"/></g><defs><clipPath id="clip22"><path d="M0,0 L47,0 L47,15 L0,15 L0,0 z"/></clipPath></defs><g clip-path="url(#clip22)" fill="none" opacity="1" stroke="#000000" stroke-linecap="square" stroke-linejoin="bevel" stroke-opacity="1" stroke-width="1" transform="matrix(1,0,0,1,44.7344,59)"><text fill="#000000" fill-opacity="1" font-family="Arial, sans-serif" font-size="10" font-style="normal" font-weight="400" stroke="none" textLength="44.5313" x="1" xml:space="preserve" y="11">Timer Info</text></g></g><!--generated on windows @ 2025-10-13 20:36:47 Romance Daylight Time--></svg>
