<?xml version="1.0" encoding="UTF-8"?><svg width="44.1854mm" height="20.1083mm" viewBox="0 0 167 76" xmlns="http://www.w3.org/2000/svg" xmlns:xlink="http://www.w3.org/1999/xlink"><g fill="none" stroke="black" stroke-width="1" fill-rule="evenodd" stroke-linecap="square" stroke-linejoin="bevel"><g clip-path="none" fill="#ffffff" fill-opacity="1" opacity="1" stroke="none" stroke-opacity="0" transform="matrix(1,0,0,1,0,0)"><path d="M0,0 L166.75,0 L166.75,76 L0,76 L0,0 z" fill-rule="evenodd" vector-effect="none"/></g><defs><clipPath id="clip3"><path d="M-9,-2 L157.75,-2 L157.75,74 L-9,74 L-9,-2 z"/></clipPath></defs><g clip-path="url(#clip3)" fill="#ffffff" fill-opacity="1" opacity="1" stroke="none" stroke-opacity="0" transform="matrix(1,0,0,1,9,2)"><path d="M0,0 L149,0 L149,55 L0,55 L0,0 z" fill-rule="evenodd" vector-effect="none"/></g><defs><clipPath id="clip7"><path d="M-76,-29 L77,-29 L77,30 L-76,30 L-76,-29 z"/></clipPath></defs><g clip-path="url(#clip7)" fill="none" opacity="1" stroke="#000000" stroke-linecap="butt" stroke-linejoin="miter" stroke-miterlimit="2" stroke-opacity="1" stroke-width="1" transform="matrix(1,0,0,1,83,29)"><text fill="#000000" fill-opacity="1" font-family="Arial, sans-serif" font-size="10" font-style="normal" font-weight="400" stroke="none" textLength="79.3125" x="-39.6563" xml:space="preserve" y="3.5">PGA not available</text></g><defs><clipPath id="clip12"><path d="M-8.5,-2.5 L158.25,-2.5 L158.25,73.5 L-8.5,73.5 L-8.5,-2.5 z"/></clipPath></defs><g clip-path="url(#clip12)" fill="none" opacity="1" stroke="#000000" stroke-linecap="butt" stroke-linejoin="miter" stroke-miterlimit="2" stroke-opacity="1" stroke-width="1" transform="matrix(1,0,0,1,8.5,2.5)"><path d="M0,0 L149,0 L149,55 L0,55 L0,0 z" fill-rule="evenodd" vector-effect="none"/></g><defs><clipPath id="clip18"><path d="M0,0 L163,0 L163,15 L0,15 L0,0 z"/></clipPath></defs><g clip-path="url(#clip18)" fill="none" opacity="1" stroke="#000000" stroke-linecap="square" stroke-linejoin="bevel" stroke-opacity="1" stroke-width="1" transform="matrix(1,0,0,1,2,59)"><text fill="#000000" fill-opacity="1" font-family="Arial, sans-serif" font-size="10" font-style="normal" font-weight="400" stroke="none" textLength="159.75" x="1.5" xml:space="preserve" y="11">PGA - Programmable Gain Amplifier</text></g></g><!--generated on windows @ 2025-10-13 21:04:14 Romance Daylight Time--></svg>
