<?xml version="1.0" encoding="UTF-8"?>
<!DOCTYPE svg PUBLIC "-//W3C//DTD SVG 1.1//EN" "http://www.w3.org/Graphics/SVG/1.1/DTD/svg11.dtd">
<!-- Creator: CorelDRAW X5 -->
<svg xmlns="http://www.w3.org/2000/svg" xml:space="preserve" width="111.422mm" height="48.5064mm" style="shape-rendering:geometricPrecision; text-rendering:geometricPrecision; image-rendering:optimizeQuality; fill-rule:evenodd; clip-rule:evenodd"
viewBox="0 0 7843 3414"
 xmlns:xlink="http://www.w3.org/1999/xlink">
 <defs>
  <style type="text/css">
   <![CDATA[
    .str2 {stroke:#2B2A29;stroke-width:5.3639}
    .str3 {stroke:#393185;stroke-width:12.4172}
    .str7 {stroke:#2B2A29;stroke-width:14.0785}
    .str5 {stroke:blue;stroke-width:17.5981}
    .str1 {stroke:#009933;stroke-width:17.5981}
    .str0 {stroke:red;stroke-width:17.5981}
    .str4 {stroke:#393185;stroke-width:5.3639;stroke-dasharray:53.639039 26.819520}
    .str6 {stroke:red;stroke-width:14.0785;stroke-dasharray:70.392440 42.235464}
    .fil7 {fill:none}
    .fil5 {fill:none;fill-rule:nonzero}
    .fil6 {fill:#2B2A29}
    .fil10 {fill:#00CCFF}
    .fil3 {fill:#88DEA5}
    .fil0 {fill:#F29999}
    .fil9 {fill:#1C1B17;fill-rule:nonzero}
    .fil4 {fill:#2B2A29;fill-rule:nonzero}
    .fil8 {fill:#393185;fill-rule:nonzero}
    .fil1 {fill:black;fill-rule:nonzero}
    .fil11 {fill:blue;fill-rule:nonzero}
    .fil2 {fill:#F29999;fill-rule:nonzero}
   ]]>
  </style>
 </defs>
 <g id="Layer_x0020_1">
  <metadata id="CorelCorpID_0Corel-Layer"/>
  <rect class="fil0 str0" x="867" y="2545" width="1421" height="214"/>
  <path class="fil1" d="M1334 2669l16 -1c1,6 2,11 5,15 3,4 7,7 13,10 6,2 12,4 19,4 6,0 12,-1 17,-3 5,-2 8,-4 11,-8 2,-3 4,-7 4,-11 0,-4 -1,-7 -3,-10 -2,-3 -6,-5 -11,-7 -3,-1 -11,-3 -22,-6 -11,-3 -19,-5 -24,-8 -6,-3 -10,-7 -13,-12 -3,-5 -4,-10 -4,-15 0,-6 2,-12 5,-18 4,-5 9,-10 16,-12 7,-3 14,-4 23,-4 9,0 17,1 24,4 7,3 12,7 16,13 4,6 6,12 6,20l-16 1c-1,-8 -4,-14 -9,-18 -5,-4 -12,-6 -22,-6 -10,0 -17,2 -22,5 -5,4 -7,8 -7,13 0,4 2,8 5,11 3,3 11,6 25,9 13,3 23,6 28,8 7,3 13,8 16,13 3,5 5,11 5,18 0,7 -2,13 -6,19 -4,6 -9,10 -16,14 -7,3 -15,5 -24,5 -11,0 -21,-2 -28,-5 -8,-3 -14,-8 -18,-15 -4,-7 -7,-14 -7,-22z"/>
  <path id="1" class="fil1" d="M1487 2695l2 14c-4,1 -8,1 -12,1 -6,0 -10,-1 -13,-3 -3,-2 -5,-4 -6,-7 -1,-3 -2,-9 -2,-18l0 -52 -11 0 0 -12 11 0 0 -22 15 -9 0 31 15 0 0 12 -15 0 0 53c0,4 0,7 1,8 1,1 1,2 3,3 1,1 3,1 5,1 2,0 4,0 7,-1z"/>
  <path id="12" class="fil1" d="M1564 2680l16 2c-2,9 -7,16 -14,21 -7,5 -15,8 -26,8 -13,0 -24,-4 -31,-12 -8,-8 -12,-19 -12,-34 0,-15 4,-27 12,-35 8,-8 18,-13 30,-13 12,0 22,4 30,12 8,8 11,20 11,35 0,1 0,2 0,4l-67 0c1,10 3,17 8,23 5,5 11,8 19,8 6,0 10,-1 14,-4 4,-3 7,-8 9,-14zm-50 -25l50 0c-1,-8 -3,-13 -6,-17 -5,-6 -11,-9 -19,-9 -7,0 -13,2 -18,7 -5,5 -7,11 -8,19z"/>
  <path id="123" class="fil1" d="M1599 2744l0 -125 14 0 0 12c3,-5 7,-8 11,-10 4,-2 9,-3 15,-3 8,0 14,2 20,6 6,4 10,10 13,17 3,7 5,15 5,24 0,9 -2,18 -5,25 -3,7 -8,13 -14,17 -6,4 -13,6 -20,6 -5,0 -10,-1 -14,-3 -4,-2 -7,-5 -10,-8l0 44 -15 0zm14 -79c0,12 2,20 7,26 5,6 10,8 17,8 7,0 13,-3 17,-9 5,-6 7,-15 7,-27 0,-12 -2,-20 -7,-26 -5,-6 -10,-9 -17,-9 -7,0 -12,3 -17,9 -5,6 -8,15 -8,27z"/>
  <path id="1234" class="fil2" d="M1797 2709l-15 0 0 -97c-4,4 -8,7 -14,11 -6,4 -11,6 -16,8l0 -15c9,-4 16,-9 22,-15 6,-6 11,-11 14,-17l10 0 0 125z"/>
  <rect class="fil3 str1" x="2288" y="2189" width="706" height="214"/>
  <polygon class="fil1" points="2518,2353 2518,2229 2534,2229 2534,2353 "/>
  <path id="1" class="fil1" d="M2620 2353l0 -11c-6,9 -14,13 -25,13 -7,0 -14,-2 -20,-6 -6,-4 -11,-9 -14,-17 -3,-7 -5,-15 -5,-24 0,-9 2,-17 4,-24 3,-7 8,-13 14,-17 6,-4 13,-6 20,-6 5,0 10,1 14,3 4,2 8,5 10,9l0 -45 15 0 0 124 -14 0zm-48 -45c0,12 2,20 7,26 5,6 11,9 17,9 7,0 12,-3 17,-8 5,-5 7,-14 7,-25 0,-12 -2,-21 -7,-27 -5,-6 -11,-9 -18,-9 -7,0 -12,3 -17,8 -5,6 -7,14 -7,26z"/>
  <polygon id="12" class="fil1" points="2657,2353 2657,2229 2673,2229 2673,2353 "/>
  <path id="123" class="fil1" d="M2758 2324l16 2c-2,9 -7,16 -14,21 -7,5 -15,8 -26,8 -13,0 -24,-4 -31,-12 -8,-8 -12,-19 -12,-34 0,-15 4,-27 12,-35 8,-8 18,-13 30,-13 12,0 22,4 30,12 8,8 11,20 11,35 0,1 0,2 0,4l-67 0c1,10 3,17 8,23 5,5 11,8 19,8 6,0 10,-1 14,-4 4,-3 7,-8 9,-14zm-50 -25l50 0c-1,-8 -3,-13 -6,-17 -5,-6 -11,-9 -19,-9 -7,0 -13,2 -18,7 -5,5 -7,11 -8,19z"/>
  <g>
   <path class="fil4" d="M7516 3124l-7001 0 0 -28 7001 0 0 28zm30 -2l-15 -24 0 24 -111 -72 15 -24 111 72 0 24zm0 0l0 -24 18 12 -18 12zm-119 60l-8 -12 111 -72 15 24 -111 72 -8 -12z"/>
  </g>
  <polygon class="fil4" points="7375,3412 7375,3255 7317,3255 7317,3234 7458,3234 7458,3255 7399,3255 7399,3412 "/>
  <path id="1" class="fil4" d="M7470 3259l0 -25 22 0 0 25 -22 0zm0 153l0 -129 22 0 0 129 -22 0z"/>
  <path id="12" class="fil4" d="M7525 3412l0 -129 19 0 0 18c4,-6 9,-11 16,-15 7,-4 14,-6 23,-6 10,0 17,2 23,6 6,4 10,9 13,17 10,-15 23,-23 40,-23 13,0 23,4 29,11 7,7 10,18 10,33l0 88 -22 0 0 -81c0,-9 -1,-15 -2,-19 -1,-4 -4,-7 -8,-9 -4,-2 -8,-4 -13,-4 -9,0 -17,3 -23,9 -6,6 -9,16 -9,29l0 75 -22 0 0 -84c0,-10 -2,-17 -5,-22 -4,-5 -9,-7 -17,-7 -6,0 -12,2 -17,5 -5,3 -9,8 -11,14 -2,6 -4,15 -4,27l0 67 -22 0z"/>
  <path id="123" class="fil4" d="M7820 3370l23 3c-4,13 -10,23 -20,31 -10,7 -22,11 -37,11 -19,0 -34,-6 -45,-17 -11,-12 -17,-28 -17,-49 0,-22 6,-38 17,-50 11,-12 26,-18 43,-18 17,0 31,6 42,18 11,12 16,28 16,49 0,1 0,3 0,6l-96 0c1,14 5,25 12,32 7,8 16,11 27,11 8,0 15,-2 20,-6 6,-4 10,-11 13,-20zm-72 -35l72 0c-1,-11 -4,-19 -8,-24 -7,-8 -16,-13 -27,-13 -10,0 -18,3 -25,10 -7,7 -11,16 -11,27z"/>
  <g>
   <line class="fil5 str2" x1="870" y1="442" x2="2997" y2= "442" />
   <polygon id="1" class="fil6" points="870,442 1045,367 1045,367 1043,372 1040,376 1039,381 1037,386 1035,390 1033,395 1032,400 1031,405 1030,409 1029,414 1028,419 1027,423 1027,428 1026,433 1026,437 1026,442 1026,447 1026,451 1027,456 1027,461 1028,466 1029,470 1030,475 1031,480 1032,484 1033,489 1035,494 1037,498 1039,503 1040,508 1043,512 1045,517 "/>
   <polygon id="12" class="fil6" points="2997,442 2822,367 2822,367 2824,372 2826,376 2828,381 2830,386 2832,390 2833,395 2835,400 2836,405 2837,409 2838,414 2839,419 2840,423 2840,428 2841,433 2841,437 2841,442 2841,447 2841,451 2840,456 2840,461 2839,466 2838,470 2837,475 2836,480 2835,484 2833,489 2832,494 2830,498 2828,503 2826,508 2824,512 2822,517 "/>
  </g>
  <line class="fil7 str3" x1="870" y1="1497" x2="2584" y2= "818" />
  <path class="fil8" d="M213 1228l0 -10c11,-3 21,-7 28,-15 6,-6 11,-14 14,-24 3,-10 4,-24 4,-42l0 -49 -1 -79c0,-51 2,-86 7,-107 4,-19 10,-34 18,-45 8,-11 18,-18 31,-21 10,-3 19,-4 28,-4l13 0 5 0 0 14c-9,1 -16,3 -20,5 -5,3 -9,7 -14,13 -6,7 -10,16 -13,25 -3,9 -5,21 -5,36 -1,10 -1,32 -1,66l0 90c0,38 -1,63 -3,77 -2,14 -6,27 -13,38 -8,14 -19,22 -33,26l0 4c12,3 22,10 31,23 7,10 11,21 14,35 3,14 4,31 4,53l0 51 0 103c0,36 1,62 3,77 2,15 6,28 12,39 5,8 10,14 17,19 7,4 14,7 21,7l0 13 -7 0c-23,0 -40,-4 -53,-11 -14,-8 -24,-23 -31,-45 -7,-22 -10,-51 -10,-87l0 -53 1 -81 1 -57c0,-26 -4,-45 -10,-57 -7,-12 -19,-20 -36,-23z"/>
  <polygon class="fil8" points="175,1466 21,1466 21,1523 0,1523 0,1385 21,1385 21,1443 175,1443 "/>
  <path id="1" class="fil8" d="M25 1373l-25 0 0 -21 25 0 0 21zm150 0l-127 0 0 -21 127 0 0 21z"/>
  <path id="12" class="fil8" d="M175 1319l-127 0 0 -19 18 0c-6,-4 -11,-9 -15,-16 -4,-7 -6,-14 -6,-23 0,-9 2,-17 6,-23 4,-6 9,-10 16,-13 -15,-10 -22,-23 -22,-39 0,-13 3,-22 10,-29 7,-7 18,-10 32,-10l87 0 0 21 -80 0c-9,0 -15,1 -19,2 -4,1 -7,4 -9,8 -2,4 -3,8 -3,13 0,9 3,16 9,22 6,6 15,9 28,9l74 0 0 21 -82 0c-10,0 -17,2 -22,5 -5,3 -7,9 -7,17 0,6 2,12 5,17 3,5 8,9 14,11 6,2 15,3 27,3l66 0 0 21z"/>
  <path id="123" class="fil8" d="M134 1028l3 -22c13,3 23,10 30,19 7,9 11,22 11,36 0,19 -6,33 -17,44 -11,11 -27,16 -48,16 -21,0 -38,-5 -50,-16 -12,-11 -18,-25 -18,-43 0,-17 6,-31 17,-42 12,-11 28,-16 49,-16 1,0 3,0 6,0l0 94c14,-1 25,-5 32,-12 7,-7 11,-16 11,-26 0,-8 -2,-15 -6,-20 -4,-6 -11,-10 -20,-13zm-35 70l0 -71c-11,1 -19,4 -24,8 -8,7 -12,16 -12,27 0,10 3,18 10,25 7,7 15,10 27,11z"/>
  <path id="1234" class="fil8" d="M175 979l-127 0 0 -19 19 0c-9,-5 -15,-9 -18,-14 -3,-4 -4,-9 -4,-14 0,-7 2,-15 7,-22l20 7c-3,5 -5,10 -5,16 0,5 1,9 4,13 3,4 7,6 12,8 8,2 16,4 25,4l66 0 0 21z"/>
  <g>
   <path class="fil8" d="M807 1651l0 13 -131 0 0 -25 131 0 0 13zm-59 -794l0 794 -12 0 0 -794 12 0zm4 -26l-21 14 21 0 -64 99 -21 -14 64 -99 21 0zm0 0l-21 0 10 -16 11 16zm54 106l-10 7 -64 -99 21 -14 64 99 -11 7z"/>
  </g>
  <path class="fil8" d="M584 1664c0,-13 1,-23 4,-30 3,-8 6,-14 12,-18 5,-4 12,-6 19,-6 6,0 11,1 15,3 4,2 8,6 11,10 3,4 5,10 7,16 2,6 2,15 2,25 0,13 -1,23 -4,30 -3,8 -6,14 -12,18 -5,4 -12,6 -19,6 -10,0 -18,-4 -24,-11 -7,-9 -11,-23 -11,-43zm13 0c0,18 2,29 6,35 4,6 9,9 15,9 6,0 11,-3 15,-9 4,-6 6,-17 6,-35 0,-18 -2,-29 -6,-35 -4,-6 -9,-9 -15,-9 -6,0 -11,3 -14,8 -4,6 -7,18 -7,36z"/>
  <line class="fil7 str4" x1="7346" y1="811" x2="741" y2= "811" />
  <path class="fil8" d="M368 870l0 -107 40 0c7,0 12,0 16,1 5,1 10,3 13,5 4,2 6,6 9,10 2,4 3,9 3,15 0,9 -3,17 -9,23 -6,6 -16,9 -31,9l-27 0 0 43 -14 0zm14 -56l28 0c9,0 16,-2 19,-5 4,-3 6,-8 6,-14 0,-4 -1,-8 -3,-11 -2,-3 -5,-5 -9,-6 -2,-1 -7,-1 -13,-1l-27 0 0 38z"/>
  <polygon id="1" class="fil8" points="467,870 467,764 544,764 544,776 481,776 481,809 540,809 540,821 481,821 481,858 547,858 547,870 "/>
  <path id="12" class="fil8" d="M567 870l0 -107 47 0c10,0 17,1 22,3 5,2 9,5 12,10 3,5 4,10 4,16 0,8 -2,14 -7,19 -5,5 -12,8 -23,10 4,2 7,4 9,5 4,4 8,9 12,14l19 29 -18 0 -14 -22c-4,-6 -8,-11 -10,-15 -3,-3 -5,-6 -7,-7 -2,-1 -4,-2 -6,-3 -2,0 -4,0 -8,0l-16 0 0 47 -14 0zm14 -60l30 0c6,0 11,-1 15,-2 4,-1 6,-3 8,-6 2,-3 3,-6 3,-10 0,-5 -2,-9 -5,-12 -4,-3 -9,-5 -17,-5l-34 0 0 35z"/>
  <path class="fil4" d="M1229 625l0 -142 28 0 34 101c3,9 5,16 7,21 2,-5 4,-13 8,-23l34 -99 25 0 0 142 -18 0 0 -119 -41 119 -17 0 -41 -121 0 121 -18 0z"/>
  <path id="1" class="fil4" d="M1387 574c0,-19 5,-33 16,-42 9,-8 20,-11 32,-11 14,0 26,5 35,14 9,9 13,22 13,38 0,13 -2,24 -6,31 -4,8 -10,14 -17,18 -8,4 -16,6 -25,6 -14,0 -26,-5 -35,-14 -9,-9 -13,-23 -13,-40zm18 0c0,13 3,23 9,30 6,7 13,10 22,10 9,0 16,-3 22,-10 6,-7 9,-17 9,-30 0,-13 -3,-22 -9,-29 -6,-7 -13,-10 -22,-10 -9,0 -16,3 -22,10 -6,7 -9,16 -9,30z"/>
  <path id="12" class="fil4" d="M1570 625l0 -13c-7,10 -16,15 -29,15 -8,0 -16,-2 -23,-7 -7,-5 -12,-11 -16,-19 -4,-8 -6,-17 -6,-28 0,-10 2,-20 5,-28 3,-8 9,-15 15,-19 7,-4 15,-7 23,-7 6,0 12,1 17,4 5,3 9,6 12,10l0 -51 17 0 0 142 -16 0zm-55 -51c0,13 3,23 8,30 6,7 12,10 20,10 8,0 14,-3 19,-9 5,-6 8,-16 8,-29 0,-14 -3,-24 -8,-31 -5,-7 -12,-10 -20,-10 -8,0 -14,3 -19,10 -5,6 -8,16 -8,30z"/>
  <path id="123" class="fil4" d="M1685 592l18 2c-3,11 -8,19 -16,25 -8,6 -18,9 -30,9 -15,0 -27,-5 -36,-14 -9,-9 -13,-22 -13,-39 0,-17 4,-31 13,-40 9,-10 20,-14 35,-14 14,0 25,5 34,14 9,9 13,23 13,40 0,1 0,3 0,5l-77 0c1,11 4,20 10,26 6,6 13,9 22,9 6,0 12,-2 16,-5 5,-3 8,-9 11,-16zm-57 -28l58 0c-1,-9 -3,-15 -7,-19 -6,-7 -13,-10 -22,-10 -8,0 -15,3 -20,8 -5,5 -8,13 -9,22z"/>
  <polygon id="1234" class="fil4" points="1724,625 1724,483 1742,483 1742,625 "/>
  <path id="12345" class="fil4" d="M1840 625l-16 0 0 -142 17 0 0 51c7,-9 17,-14 28,-14 6,0 12,1 18,4 6,3 10,6 14,11 4,5 7,10 9,17 2,7 3,14 3,21 0,18 -4,31 -13,41 -9,10 -19,14 -31,14 -12,0 -22,-5 -29,-15l0 13zm0 -52c0,12 2,21 5,27 5,9 13,14 22,14 8,0 14,-3 20,-10 6,-7 8,-16 8,-30 0,-13 -3,-23 -8,-30 -5,-6 -12,-10 -19,-10 -8,0 -14,3 -20,10 -6,7 -8,16 -8,29z"/>
  <path id="123456" class="fil4" d="M2002 612c-6,5 -13,9 -19,12 -6,2 -12,3 -19,3 -11,0 -20,-3 -26,-8 -6,-6 -9,-13 -9,-21 0,-5 1,-10 3,-14 2,-4 5,-8 9,-10 4,-3 8,-4 13,-6 3,-1 9,-2 15,-3 14,-2 25,-4 31,-6 0,-2 0,-4 0,-5 0,-7 -2,-12 -5,-15 -4,-4 -11,-6 -20,-6 -8,0 -14,1 -18,4 -4,3 -7,8 -9,15l-17 -2c2,-7 4,-13 8,-18 4,-4 9,-8 15,-10 7,-2 15,-4 23,-4 9,0 16,1 21,3 5,2 10,5 12,8 3,3 4,7 5,12 1,3 1,8 1,16l0 23c0,16 0,27 1,31 1,4 2,8 4,12l-18 0c-2,-4 -3,-8 -3,-13zm-1 -39c-6,3 -16,5 -29,7 -7,1 -12,2 -15,3 -3,1 -5,3 -7,6 -2,2 -2,5 -2,8 0,5 2,9 5,12 4,3 9,5 15,5 7,0 13,-1 18,-4 5,-3 9,-7 12,-12 2,-4 3,-10 3,-17l0 -6z"/>
  <path id="1234567" class="fil4" d="M2038 594l17 -3c1,7 4,12 8,16 4,4 11,6 19,6 8,0 14,-2 18,-5 4,-3 6,-7 6,-11 0,-4 -2,-7 -5,-9 -2,-2 -8,-4 -18,-6 -13,-3 -22,-6 -27,-8 -5,-2 -9,-6 -11,-10 -3,-4 -4,-9 -4,-14 0,-5 1,-9 3,-13 2,-4 5,-7 9,-10 3,-2 6,-4 11,-5 5,-1 10,-2 15,-2 8,0 15,1 21,4 6,2 11,5 14,9 3,4 5,9 6,16l-17 2c-1,-5 -3,-9 -7,-12 -4,-3 -9,-4 -16,-4 -8,0 -14,1 -17,4 -3,3 -5,6 -5,9 0,2 1,4 2,6 1,2 4,3 7,5 2,1 7,2 15,4 12,3 21,6 26,8 5,2 9,5 12,9 3,4 4,9 4,15 0,6 -2,11 -5,16 -3,5 -8,9 -15,12 -6,3 -14,4 -22,4 -13,0 -24,-3 -31,-8 -7,-6 -11,-14 -13,-25z"/>
  <path id="12345678" class="fil4" d="M2215 592l18 2c-3,11 -8,19 -16,25 -8,6 -18,9 -30,9 -15,0 -27,-5 -36,-14 -9,-9 -13,-22 -13,-39 0,-17 4,-31 13,-40 9,-10 20,-14 35,-14 14,0 25,5 34,14 9,9 13,23 13,40 0,1 0,3 0,5l-77 0c1,11 4,20 10,26 6,6 13,9 22,9 6,0 12,-2 16,-5 5,-3 8,-9 11,-16zm-57 -28l58 0c-1,-9 -3,-15 -7,-19 -6,-7 -13,-10 -22,-10 -8,0 -15,3 -20,8 -5,5 -8,13 -9,22z"/>
  <path id="123456789" class="fil4" d="M2310 625l0 -103 16 0 0 16c4,-7 8,-12 11,-14 3,-2 7,-4 11,-4 6,0 12,2 18,6l-6 16c-4,-3 -9,-4 -13,-4 -4,0 -7,1 -10,3 -3,2 -5,5 -6,10 -2,6 -3,13 -3,20l0 54 -17 0z"/>
  <path id="12345678910" class="fil4" d="M2443 612c-6,5 -13,9 -19,12 -6,2 -12,3 -19,3 -11,0 -20,-3 -26,-8 -6,-6 -9,-13 -9,-21 0,-5 1,-10 3,-14 2,-4 5,-8 9,-10 4,-3 8,-4 13,-6 3,-1 9,-2 15,-3 14,-2 25,-4 31,-6 0,-2 0,-4 0,-5 0,-7 -2,-12 -5,-15 -4,-4 -11,-6 -20,-6 -8,0 -14,1 -18,4 -4,3 -7,8 -9,15l-17 -2c2,-7 4,-13 8,-18 4,-4 9,-8 15,-10 7,-2 15,-4 23,-4 9,0 16,1 21,3 5,2 10,5 12,8 3,3 4,7 5,12 1,3 1,8 1,16l0 23c0,16 0,27 1,31 1,4 2,8 4,12l-18 0c-2,-4 -3,-8 -3,-13zm-1 -39c-6,3 -16,5 -29,7 -7,1 -12,2 -15,3 -3,1 -5,3 -7,6 -2,2 -2,5 -2,8 0,5 2,9 5,12 4,3 9,5 15,5 7,0 13,-1 18,-4 5,-3 9,-7 12,-12 2,-4 3,-10 3,-17l0 -6z"/>
  <path id="1234567891011" class="fil4" d="M2525 610l3 15c-5,1 -9,2 -13,2 -6,0 -11,-1 -15,-3 -3,-2 -6,-5 -7,-8 -1,-3 -2,-10 -2,-21l0 -59 -13 0 0 -14 13 0 0 -26 17 -10 0 36 18 0 0 14 -18 0 0 60c0,5 0,8 1,10 1,1 2,3 3,3 1,1 3,1 6,1 2,0 5,0 8,-1z"/>
  <path id="123456789101112" class="fil4" d="M2612 592l18 2c-3,11 -8,19 -16,25 -8,6 -18,9 -30,9 -15,0 -27,-5 -36,-14 -9,-9 -13,-22 -13,-39 0,-17 4,-31 13,-40 9,-10 20,-14 35,-14 14,0 25,5 34,14 9,9 13,23 13,40 0,1 0,3 0,5l-77 0c1,11 4,20 10,26 6,6 13,9 22,9 6,0 12,-2 16,-5 5,-3 8,-9 11,-16zm-57 -28l58 0c-1,-9 -3,-15 -7,-19 -6,-7 -13,-10 -22,-10 -8,0 -15,3 -20,8 -5,5 -8,13 -9,22z"/>
  <path class="fil9" d="M895 3292c0,-13 1,-23 4,-30 3,-8 6,-14 12,-18 5,-4 12,-6 19,-6 6,0 11,1 15,3 4,2 8,6 11,10 3,4 5,10 7,16 2,6 2,15 2,25 0,13 -1,23 -4,30 -3,8 -6,14 -12,18 -5,4 -12,6 -19,6 -10,0 -18,-4 -24,-11 -7,-9 -11,-23 -11,-43zm13 0c0,18 2,29 6,35 4,6 9,9 15,9 6,0 11,-3 15,-9 4,-6 6,-17 6,-35 0,-18 -2,-29 -6,-35 -4,-6 -9,-9 -15,-9 -6,0 -11,3 -14,8 -4,6 -7,18 -7,36z"/>
  <rect class="fil0 str0" x="2995" y="2545" width="1421" height="214"/>
  <path class="fil1" d="M3462 2669l16 -1c1,6 2,11 5,15 3,4 7,7 13,10 6,2 12,4 19,4 6,0 12,-1 17,-3 5,-2 8,-4 11,-8 2,-3 4,-7 4,-11 0,-4 -1,-7 -3,-10 -2,-3 -6,-5 -11,-7 -3,-1 -11,-3 -22,-6 -11,-3 -19,-5 -24,-8 -6,-3 -10,-7 -13,-12 -3,-5 -4,-10 -4,-15 0,-6 2,-12 5,-18 4,-5 9,-10 16,-12 7,-3 14,-4 23,-4 9,0 17,1 24,4 7,3 12,7 16,13 4,6 6,12 6,20l-16 1c-1,-8 -4,-14 -9,-18 -5,-4 -12,-6 -22,-6 -10,0 -17,2 -22,5 -5,4 -7,8 -7,13 0,4 2,8 5,11 3,3 11,6 25,9 13,3 23,6 28,8 7,3 13,8 16,13 3,5 5,11 5,18 0,7 -2,13 -6,19 -4,6 -9,10 -16,14 -7,3 -15,5 -24,5 -11,0 -21,-2 -28,-5 -8,-3 -14,-8 -18,-15 -4,-7 -7,-14 -7,-22z"/>
  <path id="1" class="fil1" d="M3615 2695l2 14c-4,1 -8,1 -12,1 -6,0 -10,-1 -13,-3 -3,-2 -5,-4 -6,-7 -1,-3 -2,-9 -2,-18l0 -52 -11 0 0 -12 11 0 0 -22 15 -9 0 31 15 0 0 12 -15 0 0 53c0,4 0,7 1,8 1,1 1,2 3,3 1,1 3,1 5,1 2,0 4,0 7,-1z"/>
  <path id="12" class="fil1" d="M3691 2680l16 2c-2,9 -7,16 -14,21 -7,5 -15,8 -26,8 -13,0 -24,-4 -31,-12 -8,-8 -12,-19 -12,-34 0,-15 4,-27 12,-35 8,-8 18,-13 30,-13 12,0 22,4 30,12 8,8 11,20 11,35 0,1 0,2 0,4l-67 0c1,10 3,17 8,23 5,5 11,8 19,8 6,0 10,-1 14,-4 4,-3 7,-8 9,-14zm-50 -25l50 0c-1,-8 -3,-13 -6,-17 -5,-6 -11,-9 -19,-9 -7,0 -13,2 -18,7 -5,5 -7,11 -8,19z"/>
  <path id="123" class="fil1" d="M3726 2744l0 -125 14 0 0 12c3,-5 7,-8 11,-10 4,-2 9,-3 15,-3 8,0 14,2 20,6 6,4 10,10 13,17 3,7 5,15 5,24 0,9 -2,18 -5,25 -3,7 -8,13 -14,17 -6,4 -13,6 -20,6 -5,0 -10,-1 -14,-3 -4,-2 -7,-5 -10,-8l0 44 -15 0zm14 -79c0,12 2,20 7,26 5,6 10,8 17,8 7,0 13,-3 17,-9 5,-6 7,-15 7,-27 0,-12 -2,-20 -7,-26 -5,-6 -10,-9 -17,-9 -7,0 -12,3 -17,9 -5,6 -8,15 -8,27z"/>
  <path id="1234" class="fil2" d="M3925 2709l-15 0 0 -97c-4,4 -8,7 -14,11 -6,4 -11,6 -16,8l0 -15c9,-4 16,-9 22,-15 6,-6 11,-11 14,-17l10 0 0 125z"/>
  <rect class="fil3 str1" x="4416" y="2189" width="706" height="214"/>
  <polygon class="fil1" points="4645,2353 4645,2229 4662,2229 4662,2353 "/>
  <path id="1" class="fil1" d="M4747 2353l0 -11c-6,9 -14,13 -25,13 -7,0 -14,-2 -20,-6 -6,-4 -11,-9 -14,-17 -3,-7 -5,-15 -5,-24 0,-9 2,-17 4,-24 3,-7 8,-13 14,-17 6,-4 13,-6 20,-6 5,0 10,1 14,3 4,2 8,5 10,9l0 -45 15 0 0 124 -14 0zm-48 -45c0,12 2,20 7,26 5,6 11,9 17,9 7,0 12,-3 17,-8 5,-5 7,-14 7,-25 0,-12 -2,-21 -7,-27 -5,-6 -11,-9 -18,-9 -7,0 -12,3 -17,8 -5,6 -7,14 -7,26z"/>
  <polygon id="12" class="fil1" points="4785,2353 4785,2229 4800,2229 4800,2353 "/>
  <path id="123" class="fil1" d="M4886 2324l16 2c-2,9 -7,16 -14,21 -7,5 -15,8 -26,8 -13,0 -24,-4 -31,-12 -8,-8 -12,-19 -12,-34 0,-15 4,-27 12,-35 8,-8 18,-13 30,-13 12,0 22,4 30,12 8,8 11,20 11,35 0,1 0,2 0,4l-67 0c1,10 3,17 8,23 5,5 11,8 19,8 6,0 10,-1 14,-4 4,-3 7,-8 9,-14zm-50 -25l50 0c-1,-8 -3,-13 -6,-17 -5,-6 -11,-9 -19,-9 -7,0 -13,2 -18,7 -5,5 -7,11 -8,19z"/>
  <line class="fil7 str3" x1="2600" y1="1654" x2="4712" y2= "818" />
  <rect class="fil0 str0" x="5122" y="2545" width="1421" height="214"/>
  <path class="fil1" d="M5589 2669l16 -1c1,6 2,11 5,15 3,4 7,7 13,10 6,2 12,4 19,4 6,0 12,-1 17,-3 5,-2 8,-4 11,-8 2,-3 4,-7 4,-11 0,-4 -1,-7 -3,-10 -2,-3 -6,-5 -11,-7 -3,-1 -11,-3 -22,-6 -11,-3 -19,-5 -24,-8 -6,-3 -10,-7 -13,-12 -3,-5 -4,-10 -4,-15 0,-6 2,-12 5,-18 4,-5 9,-10 16,-12 7,-3 14,-4 23,-4 9,0 17,1 24,4 7,3 12,7 16,13 4,6 6,12 6,20l-16 1c-1,-8 -4,-14 -9,-18 -5,-4 -12,-6 -22,-6 -10,0 -17,2 -22,5 -5,4 -7,8 -7,13 0,4 2,8 5,11 3,3 11,6 25,9 13,3 23,6 28,8 7,3 13,8 16,13 3,5 5,11 5,18 0,7 -2,13 -6,19 -4,6 -9,10 -16,14 -7,3 -15,5 -24,5 -11,0 -21,-2 -28,-5 -8,-3 -14,-8 -18,-15 -4,-7 -7,-14 -7,-22z"/>
  <path id="1" class="fil1" d="M5742 2695l2 14c-4,1 -8,1 -12,1 -6,0 -10,-1 -13,-3 -3,-2 -5,-4 -6,-7 -1,-3 -2,-9 -2,-18l0 -52 -11 0 0 -12 11 0 0 -22 15 -9 0 31 15 0 0 12 -15 0 0 53c0,4 0,7 1,8 1,1 1,2 3,3 1,1 3,1 5,1 2,0 4,0 7,-1z"/>
  <path id="12" class="fil1" d="M5819 2680l16 2c-2,9 -7,16 -14,21 -7,5 -15,8 -26,8 -13,0 -24,-4 -31,-12 -8,-8 -12,-19 -12,-34 0,-15 4,-27 12,-35 8,-8 18,-13 30,-13 12,0 22,4 30,12 8,8 11,20 11,35 0,1 0,2 0,4l-67 0c1,10 3,17 8,23 5,5 11,8 19,8 6,0 10,-1 14,-4 4,-3 7,-8 9,-14zm-50 -25l50 0c-1,-8 -3,-13 -6,-17 -5,-6 -11,-9 -19,-9 -7,0 -13,2 -18,7 -5,5 -7,11 -8,19z"/>
  <path id="123" class="fil1" d="M5854 2744l0 -125 14 0 0 12c3,-5 7,-8 11,-10 4,-2 9,-3 15,-3 8,0 14,2 20,6 6,4 10,10 13,17 3,7 5,15 5,24 0,9 -2,18 -5,25 -3,7 -8,13 -14,17 -6,4 -13,6 -20,6 -5,0 -10,-1 -14,-3 -4,-2 -7,-5 -10,-8l0 44 -15 0zm14 -79c0,12 2,20 7,26 5,6 10,8 17,8 7,0 13,-3 17,-9 5,-6 7,-15 7,-27 0,-12 -2,-20 -7,-26 -5,-6 -10,-9 -17,-9 -7,0 -12,3 -17,9 -5,6 -8,15 -8,27z"/>
  <path id="1234" class="fil2" d="M6052 2709l-15 0 0 -97c-4,4 -8,7 -14,11 -6,4 -11,6 -16,8l0 -15c9,-4 16,-9 22,-15 6,-6 11,-11 14,-17l10 0 0 125z"/>
  <rect class="fil3 str1" x="6543" y="2189" width="706" height="214"/>
  <polygon class="fil1" points="6773,2353 6773,2229 6789,2229 6789,2353 "/>
  <path id="1" class="fil1" d="M6875 2353l0 -11c-6,9 -14,13 -25,13 -7,0 -14,-2 -20,-6 -6,-4 -11,-9 -14,-17 -3,-7 -5,-15 -5,-24 0,-9 2,-17 4,-24 3,-7 8,-13 14,-17 6,-4 13,-6 20,-6 5,0 10,1 14,3 4,2 8,5 10,9l0 -45 15 0 0 124 -14 0zm-48 -45c0,12 2,20 7,26 5,6 11,9 17,9 7,0 12,-3 17,-8 5,-5 7,-14 7,-25 0,-12 -2,-21 -7,-27 -5,-6 -11,-9 -18,-9 -7,0 -12,3 -17,8 -5,6 -7,14 -7,26z"/>
  <polygon id="12" class="fil1" points="6913,2353 6913,2229 6928,2229 6928,2353 "/>
  <path id="123" class="fil1" d="M7013 2324l16 2c-2,9 -7,16 -14,21 -7,5 -15,8 -26,8 -13,0 -24,-4 -31,-12 -8,-8 -12,-19 -12,-34 0,-15 4,-27 12,-35 8,-8 18,-13 30,-13 12,0 22,4 30,12 8,8 11,20 11,35 0,1 0,2 0,4l-67 0c1,10 3,17 8,23 5,5 11,8 19,8 6,0 10,-1 14,-4 4,-3 7,-8 9,-14zm-50 -25l50 0c-1,-8 -3,-13 -6,-17 -5,-6 -11,-9 -19,-9 -7,0 -13,2 -18,7 -5,5 -7,11 -8,19z"/>
  <line class="fil7 str3" x1="4727" y1="1654" x2="6839" y2= "818" />
  <path class="fil4" d="M2610 161l3 19c-6,1 -12,2 -16,2 -8,0 -14,-1 -18,-4 -4,-2 -7,-6 -9,-10 -2,-4 -3,-13 -3,-26l0 -74 -16 0 0 -17 16 0 0 -32 22 -13 0 45 22 0 0 17 -22 0 0 75c0,6 0,10 1,12 1,2 2,3 4,4 2,1 4,2 7,2 2,0 6,0 10,-1z"/>
  <path id="1" class="fil4" d="M2631 181l0 -129 20 0 0 19c5,-9 10,-15 14,-18 4,-3 9,-4 14,-4 7,0 15,2 22,7l-8 20c-5,-3 -11,-5 -16,-5 -5,0 -9,1 -13,4 -4,3 -6,7 -8,12 -2,8 -4,16 -4,25l0 67 -22 0z"/>
  <path id="12" class="fil4" d="M2714 28l0 -25 22 0 0 25 -22 0zm0 153l0 -129 22 0 0 129 -22 0z"/>
  <path id="123" class="fil4" d="M2765 191l21 3c1,7 3,11 7,14 5,4 13,6 22,6 10,0 18,-2 23,-6 6,-4 9,-10 11,-17 1,-4 2,-14 2,-28 -10,11 -21,17 -36,17 -18,0 -31,-6 -41,-19 -10,-13 -15,-28 -15,-46 0,-12 2,-24 7,-34 4,-10 11,-18 19,-24 8,-6 18,-8 30,-8 15,0 28,6 38,18l0 -16 20 0 0 111c0,20 -2,34 -6,43 -4,8 -11,15 -19,20 -9,5 -20,7 -33,7 -15,0 -28,-3 -37,-10 -9,-7 -14,-17 -14,-31zm18 -77c0,17 3,29 10,37 7,8 15,12 25,12 10,0 18,-4 25,-12 7,-8 10,-20 10,-36 0,-16 -3,-28 -10,-36 -7,-8 -15,-12 -25,-12 -10,0 -18,4 -25,12 -7,8 -10,20 -10,35z"/>
  <path id="1234" class="fil4" d="M2903 191l21 3c1,7 3,11 7,14 5,4 13,6 22,6 10,0 18,-2 23,-6 6,-4 9,-10 11,-17 1,-4 2,-14 2,-28 -10,11 -21,17 -36,17 -18,0 -31,-6 -41,-19 -10,-13 -15,-28 -15,-46 0,-12 2,-24 7,-34 4,-10 11,-18 19,-24 8,-6 18,-8 30,-8 15,0 28,6 38,18l0 -16 20 0 0 111c0,20 -2,34 -6,43 -4,8 -11,15 -19,20 -9,5 -20,7 -33,7 -15,0 -28,-3 -37,-10 -9,-7 -14,-17 -14,-31zm18 -77c0,17 3,29 10,37 7,8 15,12 25,12 10,0 18,-4 25,-12 7,-8 10,-20 10,-36 0,-16 -3,-28 -10,-36 -7,-8 -15,-12 -25,-12 -10,0 -18,4 -25,12 -7,8 -10,20 -10,35z"/>
  <path id="12345" class="fil4" d="M3133 139l23 3c-4,13 -10,23 -20,31 -10,7 -22,11 -37,11 -19,0 -34,-6 -45,-17 -11,-12 -17,-28 -17,-49 0,-22 6,-38 17,-50 11,-12 26,-18 43,-18 17,0 31,6 42,18 11,12 16,28 16,49 0,1 0,3 0,6l-96 0c1,14 5,25 12,32 7,8 16,11 27,11 8,0 15,-2 20,-6 6,-4 10,-11 13,-20zm-72 -35l72 0c-1,-11 -4,-19 -8,-24 -7,-8 -16,-13 -27,-13 -10,0 -18,3 -25,10 -7,7 -11,16 -11,27z"/>
  <path id="123456" class="fil4" d="M3183 181l0 -129 20 0 0 19c5,-9 10,-15 14,-18 4,-3 9,-4 14,-4 7,0 15,2 22,7l-8 20c-5,-3 -11,-5 -16,-5 -5,0 -9,1 -13,4 -4,3 -6,7 -8,12 -2,8 -4,16 -4,25l0 67 -22 0z"/>
  <path id="1234567" class="fil4" d="M3354 139l23 3c-4,13 -10,23 -20,31 -10,7 -22,11 -37,11 -19,0 -34,-6 -45,-17 -11,-12 -17,-28 -17,-49 0,-22 6,-38 17,-50 11,-12 26,-18 43,-18 17,0 31,6 42,18 11,12 16,28 16,49 0,1 0,3 0,6l-96 0c1,14 5,25 12,32 7,8 16,11 27,11 8,0 15,-2 20,-6 6,-4 10,-11 13,-20zm-72 -35l72 0c-1,-11 -4,-19 -8,-24 -7,-8 -16,-13 -27,-13 -10,0 -18,3 -25,10 -7,7 -11,16 -11,27z"/>
  <path id="12345678" class="fil4" d="M3488 181l0 -16c-8,13 -20,19 -36,19 -10,0 -20,-3 -28,-8 -9,-6 -15,-14 -20,-24 -5,-10 -7,-22 -7,-35 0,-13 2,-25 6,-35 4,-10 11,-19 19,-24 9,-6 18,-8 29,-8 8,0 15,2 21,5 6,3 11,8 15,13l0 -64 22 0 0 178 -20 0zm-69 -64c0,17 3,29 10,37 7,8 15,12 25,12 10,0 18,-4 24,-12 7,-8 10,-20 10,-36 0,-18 -3,-31 -10,-39 -7,-8 -15,-12 -25,-12 -10,0 -18,4 -24,12 -6,8 -10,20 -10,37z"/>
  <path id="123456789" class="fil4" d="M3635 181l-39 -129 23 0 20 74 8 28c0,-1 3,-10 7,-27l20 -75 22 0 19 75 6 25 7 -25 22 -74 21 0 -40 129 -23 0 -20 -77 -5 -22 -26 99 -23 0z"/>
  <path id="12345678910" class="fil4" d="M3791 28l0 -25 22 0 0 25 -22 0zm0 153l0 -129 22 0 0 129 -22 0z"/>
  <path id="1234567891011" class="fil4" d="M3894 161l3 19c-6,1 -12,2 -16,2 -8,0 -14,-1 -18,-4 -4,-2 -7,-6 -9,-10 -2,-4 -3,-13 -3,-26l0 -74 -16 0 0 -17 16 0 0 -32 22 -13 0 45 22 0 0 17 -22 0 0 75c0,6 0,10 1,12 1,2 2,3 4,4 2,1 4,2 7,2 2,0 6,0 10,-1z"/>
  <path id="123456789101112" class="fil4" d="M3915 181l0 -178 22 0 0 64c10,-12 23,-18 39,-18 10,0 18,2 25,6 7,4 12,9 15,16 3,7 5,16 5,29l0 82 -22 0 0 -82c0,-11 -2,-19 -7,-24 -5,-5 -11,-7 -20,-7 -6,0 -13,2 -18,5 -6,3 -10,8 -12,14 -2,6 -4,14 -4,24l0 70 -22 0z"/>
  <polygon id="12345678910111213" class="fil4" points="4166,181 4166,24 4107,24 4107,3 4248,3 4248,24 4189,24 4189,181 "/>
  <path id="1234567891011121314" class="fil4" d="M4260 28l0 -25 22 0 0 25 -22 0zm0 153l0 -129 22 0 0 129 -22 0z"/>
  <path id="123456789101112131415" class="fil4" d="M4315 181l0 -129 19 0 0 18c4,-6 9,-11 16,-15 7,-4 14,-6 23,-6 10,0 17,2 23,6 6,4 10,9 13,17 10,-15 23,-23 40,-23 13,0 23,4 29,11 7,7 10,18 10,33l0 88 -22 0 0 -81c0,-9 -1,-15 -2,-19 -1,-4 -4,-7 -8,-9 -4,-2 -8,-4 -13,-4 -9,0 -17,3 -23,9 -6,6 -9,16 -9,29l0 75 -22 0 0 -84c0,-10 -2,-17 -5,-22 -4,-5 -9,-7 -17,-7 -6,0 -12,2 -17,5 -5,3 -9,8 -11,14 -2,6 -4,15 -4,27l0 67 -22 0z"/>
  <path id="12345678910111213141516" class="fil4" d="M4610 139l23 3c-4,13 -10,23 -20,31 -10,7 -22,11 -37,11 -19,0 -34,-6 -45,-17 -11,-12 -17,-28 -17,-49 0,-22 6,-38 17,-50 11,-12 26,-18 43,-18 17,0 31,6 42,18 11,12 16,28 16,49 0,1 0,3 0,6l-96 0c1,14 5,25 12,32 7,8 16,11 27,11 8,0 15,-2 20,-6 6,-4 10,-11 13,-20zm-72 -35l72 0c-1,-11 -4,-19 -8,-24 -7,-8 -16,-13 -27,-13 -10,0 -18,3 -25,10 -7,7 -11,16 -11,27z"/>
  <path id="1234567891011121314151617" class="fil4" d="M4660 181l0 -129 20 0 0 19c5,-9 10,-15 14,-18 4,-3 9,-4 14,-4 7,0 15,2 22,7l-8 20c-5,-3 -11,-5 -16,-5 -5,0 -9,1 -13,4 -4,3 -6,7 -8,12 -2,8 -4,16 -4,25l0 67 -22 0z"/>
  <polygon id="123456789101112131415161718" class="fil4" points="4858,152 4858,103 4809,103 4809,83 4858,83 4858,35 4878,35 4878,83 4927,83 4927,103 4878,103 4878,152 "/>
  <path id="12345678910111213141516171819" class="fil4" d="M4995 181l68 -178 25 0 73 178 -27 0 -21 -54 -74 0 -19 54 -25 0zm51 -73l60 0 -19 -49c-6,-15 -10,-27 -13,-37 -2,11 -5,23 -10,34l-20 52z"/>
  <path id="1234567891011121314151617181920" class="fil4" d="M5181 181l0 -178 61 0c14,0 24,1 32,3 10,2 19,7 26,13 9,8 16,18 21,30 5,12 7,26 7,42 0,13 -2,25 -5,36 -3,10 -7,19 -12,26 -5,7 -10,12 -16,16 -6,4 -13,7 -21,9 -8,2 -18,3 -29,3l-64 0zm24 -21l38 0c12,0 21,-1 28,-3 7,-2 12,-5 16,-9 6,-6 10,-13 13,-22 3,-9 5,-21 5,-34 0,-19 -3,-33 -9,-43 -6,-10 -14,-17 -22,-20 -6,-2 -16,-4 -30,-4l-37 0 0 136z"/>
  <path id="123456789101112131415161718192021" class="fil4" d="M5487 118l24 6c-5,19 -14,34 -27,44 -13,10 -28,15 -47,15 -19,0 -35,-4 -47,-12 -12,-8 -21,-19 -27,-34 -6,-15 -9,-31 -9,-48 0,-18 4,-35 11,-48 7,-14 17,-24 30,-31 13,-7 27,-11 43,-11 18,0 33,5 45,14 12,9 21,22 25,38l-23 5c-4,-13 -10,-22 -18,-28 -8,-6 -18,-9 -30,-9 -14,0 -25,3 -34,10 -9,7 -16,15 -19,26 -4,11 -6,22 -6,34 0,15 2,28 7,40 4,11 11,20 21,25 9,6 19,8 30,8 13,0 24,-4 33,-11 9,-8 15,-19 19,-34z"/>
  <rect class="fil10 str5" x="2584" y="1800" width="205" height="144"/>
  <path class="fil1" d="M2598 1895l27 -71 10 0 29 71 -11 0 -8 -22 -30 0 -8 22 -10 0zm21 -29l24 0 -7 -20c-2,-6 -4,-11 -5,-15 -1,5 -2,9 -4,14l-8 21z"/>
  <path id="1" class="fil1" d="M2671 1895l0 -52 8 0 0 7c4,-6 9,-8 16,-8 3,0 6,1 9,2 3,1 5,3 6,4 1,2 2,4 3,6 0,2 0,4 0,8l0 32 -9 0 0 -31c0,-4 0,-6 -1,-8 -1,-2 -2,-3 -4,-4 -2,-1 -4,-2 -6,-2 -4,0 -7,1 -10,4 -3,2 -4,7 -4,13l0 28 -9 0z"/>
  <path id="12" class="fil1" d="M2757 1895l-9 0 0 -56c-2,2 -5,4 -8,6 -3,2 -6,4 -9,4l0 -8c5,-2 9,-5 13,-8 4,-3 6,-6 8,-10l6 0 0 71z"/>
  <rect class="fil10 str5" x="2789" y="1800" width="205" height="144"/>
  <path class="fil1" d="M2803 1895l27 -71 10 0 29 71 -11 0 -8 -22 -30 0 -8 22 -10 0zm21 -29l24 0 -7 -20c-2,-6 -4,-11 -5,-15 -1,5 -2,9 -4,14l-8 21z"/>
  <path id="1" class="fil1" d="M2876 1895l0 -52 8 0 0 7c4,-6 9,-8 16,-8 3,0 6,1 9,2 3,1 5,3 6,4 1,2 2,4 3,6 0,2 0,4 0,8l0 32 -9 0 0 -31c0,-4 0,-6 -1,-8 -1,-2 -2,-3 -4,-4 -2,-1 -4,-2 -6,-2 -4,0 -7,1 -10,4 -3,2 -4,7 -4,13l0 28 -9 0z"/>
  <path id="12" class="fil1" d="M2975 1886l0 8 -47 0c0,-2 0,-4 1,-6 1,-3 3,-6 6,-9 3,-3 6,-7 11,-11 8,-6 13,-11 16,-15 3,-4 4,-7 4,-10 0,-3 -1,-6 -4,-9 -2,-2 -6,-4 -10,-4 -4,0 -8,1 -10,4 -3,3 -4,6 -4,10l-9 -1c1,-7 3,-12 7,-15 4,-4 9,-5 16,-5 7,0 12,2 16,6 4,4 6,8 6,14 0,3 -1,6 -2,8 -1,3 -3,6 -6,9 -3,3 -7,7 -13,13 -5,4 -9,7 -10,9 -1,2 -3,3 -4,5l35 0z"/>
  <rect class="fil10 str5" x="2584" y="1945" width="205" height="144"/>
  <path class="fil1" d="M2598 2039l27 -71 10 0 29 71 -11 0 -8 -22 -30 0 -8 22 -10 0zm21 -29l24 0 -7 -20c-2,-6 -4,-11 -5,-15 -1,5 -2,9 -4,14l-8 21z"/>
  <path id="1" class="fil1" d="M2671 2039l0 -52 8 0 0 7c4,-6 9,-8 16,-8 3,0 6,1 9,2 3,1 5,3 6,4 1,2 2,4 3,6 0,2 0,4 0,8l0 32 -9 0 0 -31c0,-4 0,-6 -1,-8 -1,-2 -2,-3 -4,-4 -2,-1 -4,-2 -6,-2 -4,0 -7,1 -10,4 -3,2 -4,7 -4,13l0 28 -9 0z"/>
  <path id="12" class="fil1" d="M2724 2004c0,-8 1,-15 3,-20 2,-5 4,-9 8,-12 3,-3 8,-4 13,-4 4,0 7,1 10,2 3,2 5,4 7,7 2,3 3,6 4,11 1,4 2,10 2,17 0,8 -1,15 -3,20 -2,5 -4,9 -8,12 -3,3 -8,4 -13,4 -7,0 -12,-2 -16,-7 -5,-6 -7,-16 -7,-29zm9 0c0,12 1,19 4,23 3,4 6,6 10,6 4,0 7,-2 10,-6 3,-4 4,-12 4,-23 0,-12 -1,-19 -4,-23 -3,-4 -6,-6 -10,-6 -4,0 -7,2 -10,5 -3,4 -5,12 -5,24z"/>
  <line class="fil7 str4" x1="7346" y1="1654" x2="741" y2= "1654" />
  <line class="fil7 str3" x1="6839" y1="1654" x2="7348" y2= "1453" />
  <line class="fil7 str6" x1="2584" y1="818" x2="2584" y2= "1800" />
  <rect class="fil10 str5" x="4712" y="1800" width="205" height="144"/>
  <path class="fil1" d="M4726 1895l27 -71 10 0 29 71 -11 0 -8 -22 -30 0 -8 22 -10 0zm21 -29l24 0 -7 -20c-2,-6 -4,-11 -5,-15 -1,5 -2,9 -4,14l-8 21z"/>
  <path id="1" class="fil1" d="M4799 1895l0 -52 8 0 0 7c4,-6 9,-8 16,-8 3,0 6,1 9,2 3,1 5,3 6,4 1,2 2,4 3,6 0,2 0,4 0,8l0 32 -9 0 0 -31c0,-4 0,-6 -1,-8 -1,-2 -2,-3 -4,-4 -2,-1 -4,-2 -6,-2 -4,0 -7,1 -10,4 -3,2 -4,7 -4,13l0 28 -9 0z"/>
  <path id="12" class="fil1" d="M4884 1895l-9 0 0 -56c-2,2 -5,4 -8,6 -3,2 -6,4 -9,4l0 -8c5,-2 9,-5 13,-8 4,-3 6,-6 8,-10l6 0 0 71z"/>
  <rect class="fil10 str5" x="4917" y="1800" width="205" height="144"/>
  <path class="fil1" d="M4931 1895l27 -71 10 0 29 71 -11 0 -8 -22 -30 0 -8 22 -10 0zm21 -29l24 0 -7 -20c-2,-6 -4,-11 -5,-15 -1,5 -2,9 -4,14l-8 21z"/>
  <path id="1" class="fil1" d="M5004 1895l0 -52 8 0 0 7c4,-6 9,-8 16,-8 3,0 6,1 9,2 3,1 5,3 6,4 1,2 2,4 3,6 0,2 0,4 0,8l0 32 -9 0 0 -31c0,-4 0,-6 -1,-8 -1,-2 -2,-3 -4,-4 -2,-1 -4,-2 -6,-2 -4,0 -7,1 -10,4 -3,2 -4,7 -4,13l0 28 -9 0z"/>
  <path id="12" class="fil1" d="M5103 1886l0 8 -47 0c0,-2 0,-4 1,-6 1,-3 3,-6 6,-9 3,-3 6,-7 11,-11 8,-6 13,-11 16,-15 3,-4 4,-7 4,-10 0,-3 -1,-6 -4,-9 -2,-2 -6,-4 -10,-4 -4,0 -8,1 -10,4 -3,3 -4,6 -4,10l-9 -1c1,-7 3,-12 7,-15 4,-4 9,-5 16,-5 7,0 12,2 16,6 4,4 6,8 6,14 0,3 -1,6 -2,8 -1,3 -3,6 -6,9 -3,3 -7,7 -13,13 -5,4 -9,7 -10,9 -1,2 -3,3 -4,5l35 0z"/>
  <rect class="fil10 str5" x="4712" y="1945" width="205" height="144"/>
  <path class="fil1" d="M4726 2039l27 -71 10 0 29 71 -11 0 -8 -22 -30 0 -8 22 -10 0zm21 -29l24 0 -7 -20c-2,-6 -4,-11 -5,-15 -1,5 -2,9 -4,14l-8 21z"/>
  <path id="1" class="fil1" d="M4799 2039l0 -52 8 0 0 7c4,-6 9,-8 16,-8 3,0 6,1 9,2 3,1 5,3 6,4 1,2 2,4 3,6 0,2 0,4 0,8l0 32 -9 0 0 -31c0,-4 0,-6 -1,-8 -1,-2 -2,-3 -4,-4 -2,-1 -4,-2 -6,-2 -4,0 -7,1 -10,4 -3,2 -4,7 -4,13l0 28 -9 0z"/>
  <path id="12" class="fil1" d="M4851 2004c0,-8 1,-15 3,-20 2,-5 4,-9 8,-12 3,-3 8,-4 13,-4 4,0 7,1 10,2 3,2 5,4 7,7 2,3 3,6 4,11 1,4 2,10 2,17 0,8 -1,15 -3,20 -2,5 -4,9 -8,12 -3,3 -8,4 -13,4 -7,0 -12,-2 -16,-7 -5,-6 -7,-16 -7,-29zm9 0c0,12 1,19 4,23 3,4 6,6 10,6 4,0 7,-2 10,-6 3,-4 4,-12 4,-23 0,-12 -1,-19 -4,-23 -3,-4 -6,-6 -10,-6 -4,0 -7,2 -10,5 -3,4 -5,12 -5,24z"/>
  <line class="fil7 str6" x1="4712" y1="818" x2="4712" y2= "1800" />
  <rect class="fil10 str5" x="6839" y="1800" width="205" height="144"/>
  <path class="fil1" d="M6853 1895l27 -71 10 0 29 71 -11 0 -8 -22 -30 0 -8 22 -10 0zm21 -29l24 0 -7 -20c-2,-6 -4,-11 -5,-15 -1,5 -2,9 -4,14l-8 21z"/>
  <path id="1" class="fil1" d="M6926 1895l0 -52 8 0 0 7c4,-6 9,-8 16,-8 3,0 6,1 9,2 3,1 5,3 6,4 1,2 2,4 3,6 0,2 0,4 0,8l0 32 -9 0 0 -31c0,-4 0,-6 -1,-8 -1,-2 -2,-3 -4,-4 -2,-1 -4,-2 -6,-2 -4,0 -7,1 -10,4 -3,2 -4,7 -4,13l0 28 -9 0z"/>
  <path id="12" class="fil1" d="M7012 1895l-9 0 0 -56c-2,2 -5,4 -8,6 -3,2 -6,4 -9,4l0 -8c5,-2 9,-5 13,-8 4,-3 6,-6 8,-10l6 0 0 71z"/>
  <rect class="fil10 str5" x="7044" y="1800" width="205" height="144"/>
  <path class="fil1" d="M7059 1895l27 -71 10 0 29 71 -11 0 -8 -22 -30 0 -8 22 -10 0zm21 -29l24 0 -7 -20c-2,-6 -4,-11 -5,-15 -1,5 -2,9 -4,14l-8 21z"/>
  <path id="1" class="fil1" d="M7132 1895l0 -52 8 0 0 7c4,-6 9,-8 16,-8 3,0 6,1 9,2 3,1 5,3 6,4 1,2 2,4 3,6 0,2 0,4 0,8l0 32 -9 0 0 -31c0,-4 0,-6 -1,-8 -1,-2 -2,-3 -4,-4 -2,-1 -4,-2 -6,-2 -4,0 -7,1 -10,4 -3,2 -4,7 -4,13l0 28 -9 0z"/>
  <path id="12" class="fil1" d="M7230 1886l0 8 -47 0c0,-2 0,-4 1,-6 1,-3 3,-6 6,-9 3,-3 6,-7 11,-11 8,-6 13,-11 16,-15 3,-4 4,-7 4,-10 0,-3 -1,-6 -4,-9 -2,-2 -6,-4 -10,-4 -4,0 -8,1 -10,4 -3,3 -4,6 -4,10l-9 -1c1,-7 3,-12 7,-15 4,-4 9,-5 16,-5 7,0 12,2 16,6 4,4 6,8 6,14 0,3 -1,6 -2,8 -1,3 -3,6 -6,9 -3,3 -7,7 -13,13 -5,4 -9,7 -10,9 -1,2 -3,3 -4,5l35 0z"/>
  <rect class="fil10 str5" x="6839" y="1945" width="205" height="144"/>
  <path class="fil1" d="M6853 2039l27 -71 10 0 29 71 -11 0 -8 -22 -30 0 -8 22 -10 0zm21 -29l24 0 -7 -20c-2,-6 -4,-11 -5,-15 -1,5 -2,9 -4,14l-8 21z"/>
  <path id="1" class="fil1" d="M6926 2039l0 -52 8 0 0 7c4,-6 9,-8 16,-8 3,0 6,1 9,2 3,1 5,3 6,4 1,2 2,4 3,6 0,2 0,4 0,8l0 32 -9 0 0 -31c0,-4 0,-6 -1,-8 -1,-2 -2,-3 -4,-4 -2,-1 -4,-2 -6,-2 -4,0 -7,1 -10,4 -3,2 -4,7 -4,13l0 28 -9 0z"/>
  <path id="12" class="fil1" d="M6979 2004c0,-8 1,-15 3,-20 2,-5 4,-9 8,-12 3,-3 8,-4 13,-4 4,0 7,1 10,2 3,2 5,4 7,7 2,3 3,6 4,11 1,4 2,10 2,17 0,8 -1,15 -3,20 -2,5 -4,9 -8,12 -3,3 -8,4 -13,4 -7,0 -12,-2 -16,-7 -5,-6 -7,-16 -7,-29zm9 0c0,12 1,19 4,23 3,4 6,6 10,6 4,0 7,-2 10,-6 3,-4 4,-12 4,-23 0,-12 -1,-19 -4,-23 -3,-4 -6,-6 -10,-6 -4,0 -7,2 -10,5 -3,4 -5,12 -5,24z"/>
  <line class="fil7 str6" x1="6839" y1="818" x2="6839" y2= "1800" />
  <path class="fil11" d="M213 1956l0 -5c11,-1 21,-4 28,-7 6,-3 11,-7 14,-12 3,-5 4,-12 4,-21l0 -24 -1 -39c0,-25 2,-43 7,-53 4,-9 10,-17 18,-22 8,-5 18,-9 31,-11 10,-1 19,-2 28,-2l13 0 5 0 0 7c-9,0 -16,1 -20,3 -5,1 -9,3 -14,6 -6,4 -10,8 -13,13 -3,5 -5,11 -5,18 -1,5 -1,16 -1,32l0 45c0,19 -1,31 -3,38 -2,7 -6,13 -13,19 -8,7 -19,11 -33,13l0 2c12,1 22,5 31,12 7,5 11,11 14,17 3,7 4,16 4,26l0 25 0 51c0,18 1,30 3,38 2,8 6,14 12,19 5,4 10,7 17,9 7,2 14,3 21,3l0 6 -7 0c-23,0 -40,-2 -53,-6 -14,-4 -24,-12 -31,-22 -7,-11 -10,-25 -10,-43l0 -26 1 -40 1 -28c0,-13 -4,-22 -10,-28 -7,-6 -19,-10 -36,-12z"/>
  <path class="fil11" d="M179 2005l0 27 -28 11 0 50 28 10 0 27 -124 -48 0 -27 124 -50zm-49 46l-46 17 46 17 0 -34z"/>
  <path id="1" class="fil11" d="M55 1992l0 -46c0,-10 1,-18 2,-24 2,-7 6,-14 11,-19 5,-5 12,-9 20,-12 8,-3 18,-4 29,-4 10,0 19,1 26,4 9,3 16,8 22,13 4,4 8,10 10,18 2,6 3,13 3,22l0 47 -124 0zm21 -25l82 0 0 -19c0,-7 0,-12 -1,-15 -1,-4 -3,-7 -5,-10 -2,-3 -6,-5 -12,-7 -6,-2 -13,-3 -23,-3 -10,0 -17,1 -22,3 -5,2 -9,4 -12,7 -3,3 -5,7 -6,12 -1,4 -1,10 -1,21l0 11z"/>
  <path id="12" class="fil11" d="M134 1786l8 -24c14,4 24,10 30,19 7,9 10,20 10,33 0,17 -6,30 -17,41 -11,11 -27,16 -46,16 -21,0 -37,-5 -48,-16 -11,-11 -17,-25 -17,-42 0,-15 4,-28 14,-37 5,-6 13,-10 23,-13l6 25c-6,1 -12,5 -15,9 -4,5 -6,10 -6,17 0,9 3,17 10,22 7,6 17,9 32,9 16,0 27,-3 34,-8 7,-6 10,-13 10,-22 0,-7 -2,-12 -6,-17 -4,-5 -11,-8 -20,-10z"/>
  <line class="fil7 str7" x1="867" y1="3238" x2="867" y2= "317" />
  <line class="fil7 str7" x1="2995" y1="3238" x2="2995" y2= "309" />
  <line class="fil7 str7" x1="5122" y1="3238" x2="5122" y2= "309" />
  <line class="fil7 str7" x1="7250" y1="3238" x2="7250" y2= "309" />
 </g>
</svg>
