<?xml version="1.0" encoding="UTF-8"?>
<!DOCTYPE svg PUBLIC "-//W3C//DTD SVG 1.1//EN" "http://www.w3.org/Graphics/SVG/1.1/DTD/svg11.dtd">
<!-- Creator: CorelDRAW X5 -->
<svg xmlns="http://www.w3.org/2000/svg" xml:space="preserve" width="110.707mm" height="44.0084mm" style="shape-rendering:geometricPrecision; text-rendering:geometricPrecision; image-rendering:optimizeQuality; fill-rule:evenodd; clip-rule:evenodd"
viewBox="0 0 7813 3106"
 xmlns:xlink="http://www.w3.org/1999/xlink">
 <defs>
  <style type="text/css">
   <![CDATA[
    .str2 {stroke:#2B2A29;stroke-width:5.37807}
    .str6 {stroke:#2B2A29;stroke-width:14.1157}
    .str4 {stroke:#393185;stroke-width:17.6446;stroke-linecap:round;stroke-linejoin:round}
    .str5 {stroke:blue;stroke-width:17.6446}
    .str1 {stroke:#009933;stroke-width:17.6446}
    .str0 {stroke:red;stroke-width:17.6446}
    .str3 {stroke:red;stroke-width:14.1157;stroke-dasharray:70.578376 42.347026}
    .fil9 {fill:none}
    .fil5 {fill:none;fill-rule:nonzero}
    .fil6 {fill:#2B2A29}
    .fil11 {fill:#00CCFF}
    .fil3 {fill:#88DEA5}
    .fil0 {fill:#F29999}
    .fil8 {fill:#1C1B17;fill-rule:nonzero}
    .fil4 {fill:#2B2A29;fill-rule:nonzero}
    .fil7 {fill:#393185;fill-rule:nonzero}
    .fil1 {fill:black;fill-rule:nonzero}
    .fil10 {fill:blue;fill-rule:nonzero}
    .fil2 {fill:#F29999;fill-rule:nonzero}
   ]]>
  </style>
 </defs>
 <g id="Layer_x0020_1">
  <metadata id="CorelCorpID_0Corel-Layer"/>
  <rect class="fil0 str0" x="819" y="2235" width="1425" height="215"/>
  <path class="fil1" d="M1287 2359l16 -1c1,6 2,11 5,15 3,4 7,7 13,10 6,2 12,4 19,4 6,0 12,-1 17,-3 5,-2 8,-4 11,-8 2,-3 4,-7 4,-11 0,-4 -1,-7 -3,-10 -2,-3 -6,-5 -11,-7 -3,-1 -11,-3 -22,-6 -11,-3 -19,-5 -24,-8 -6,-3 -10,-7 -13,-12 -3,-5 -4,-10 -4,-16 0,-6 2,-12 5,-18 4,-5 9,-10 16,-12 7,-3 14,-4 23,-4 9,0 17,1 24,4 7,3 12,7 16,13 4,6 6,12 6,20l-16 1c-1,-8 -4,-14 -9,-18 -5,-4 -12,-6 -22,-6 -10,0 -17,2 -22,5 -5,4 -7,8 -7,13 0,5 2,8 5,11 3,3 11,6 25,9 13,3 23,6 28,8 7,3 13,8 16,13 3,5 5,11 5,18 0,7 -2,13 -6,19 -4,6 -9,10 -16,14 -7,3 -15,5 -24,5 -11,0 -21,-2 -28,-5 -8,-3 -14,-8 -18,-15 -4,-7 -7,-14 -7,-22z"/>
  <path id="1" class="fil1" d="M1441 2385l2 14c-4,1 -8,1 -12,1 -6,0 -10,-1 -13,-3 -3,-2 -5,-4 -6,-7 -1,-3 -2,-9 -2,-18l0 -52 -11 0 0 -12 11 0 0 -22 15 -9 0 32 15 0 0 12 -15 0 0 53c0,4 0,7 1,8 1,1 1,2 3,3 1,1 3,1 5,1 2,0 4,0 7,-1z"/>
  <path id="12" class="fil1" d="M1517 2370l16 2c-2,9 -7,16 -14,22 -7,5 -15,8 -26,8 -13,0 -24,-4 -31,-12 -8,-8 -12,-20 -12,-34 0,-15 4,-27 12,-35 8,-8 18,-13 30,-13 12,0 22,4 30,12 8,8 12,20 12,35 0,1 0,2 0,4l-67 0c1,10 3,18 8,23 5,5 11,8 19,8 6,0 10,-1 14,-4 4,-3 7,-8 9,-14zm-50 -25l50 0c-1,-8 -3,-13 -6,-17 -5,-6 -11,-9 -19,-9 -7,0 -13,2 -18,7 -5,5 -7,11 -8,19z"/>
  <path id="123" class="fil1" d="M1553 2433l0 -125 14 0 0 12c3,-5 7,-8 11,-10 4,-2 9,-3 15,-3 8,0 15,2 20,6 6,4 10,10 13,17 3,7 5,15 5,24 0,9 -2,18 -5,25 -3,7 -8,13 -14,17 -6,4 -13,6 -20,6 -5,0 -10,-1 -14,-3 -4,-2 -7,-5 -10,-8l0 44 -15 0zm14 -79c0,12 2,20 7,26 5,6 10,8 17,8 7,0 13,-3 17,-9 5,-6 7,-15 7,-27 0,-12 -2,-20 -7,-26 -5,-6 -10,-9 -17,-9 -7,0 -12,3 -17,9 -5,6 -8,15 -8,27z"/>
  <path id="1234" class="fil2" d="M1751 2399l-15 0 0 -98c-4,4 -9,7 -14,11 -6,4 -11,6 -16,8l0 -15c9,-4 16,-9 22,-15 6,-6 11,-11 14,-17l10 0 0 125z"/>
  <rect class="fil3 str1" x="2244" y="1878" width="708" height="215"/>
  <polygon class="fil1" points="2474,2042 2474,1917 2490,1917 2490,2042 "/>
  <path id="1" class="fil1" d="M2576 2042l0 -11c-6,9 -14,13 -25,13 -7,0 -14,-2 -20,-6 -6,-4 -11,-9 -14,-17 -3,-7 -5,-15 -5,-25 0,-9 2,-17 5,-25 3,-7 8,-13 14,-17 6,-4 13,-6 20,-6 5,0 10,1 15,3 4,2 8,5 10,9l0 -45 15 0 0 125 -14 0zm-48 -45c0,12 2,20 7,26 5,6 11,9 17,9 7,0 12,-3 17,-8 5,-5 7,-14 7,-25 0,-12 -2,-21 -7,-27 -5,-6 -11,-9 -18,-9 -7,0 -12,3 -17,8 -5,6 -7,14 -7,26z"/>
  <polygon id="12" class="fil1" points="2614,2042 2614,1917 2629,1917 2629,2042 "/>
  <path id="123" class="fil1" d="M2715 2013l16 2c-2,9 -7,16 -14,22 -7,5 -15,8 -26,8 -13,0 -24,-4 -31,-12 -8,-8 -12,-20 -12,-34 0,-15 4,-27 12,-35 8,-8 18,-13 30,-13 12,0 22,4 30,12 8,8 12,20 12,35 0,1 0,2 0,4l-67 0c1,10 3,18 8,23 5,5 11,8 19,8 6,0 10,-1 14,-4 4,-3 7,-8 9,-14zm-50 -25l50 0c-1,-8 -3,-13 -6,-17 -5,-6 -11,-9 -19,-9 -7,0 -13,2 -18,7 -5,5 -7,11 -8,19z"/>
  <g>
   <path class="fil4" d="M7485 2815l-7019 0 0 -28 7019 0 0 28zm30 -2l-15 -24 0 24 -111 -72 15 -24 111 72 0 24zm0 0l0 -24 18 12 -18 12zm-119 60l-8 -12 111 -72 15 24 -111 72 -8 -12z"/>
  </g>
  <polygon class="fil4" points="7344,3103 7344,2946 7286,2946 7286,2925 7427,2925 7427,2946 7368,2946 7368,3103 "/>
  <path id="1" class="fil4" d="M7439 2950l0 -25 22 0 0 25 -22 0zm0 153l0 -129 22 0 0 129 -22 0z"/>
  <path id="12" class="fil4" d="M7494 3103l0 -129 20 0 0 18c4,-6 9,-11 16,-15 7,-4 14,-6 23,-6 10,0 17,2 23,6 6,4 10,9 13,17 10,-15 24,-23 40,-23 13,0 23,4 30,11 7,7 10,18 10,33l0 89 -22 0 0 -81c0,-9 -1,-15 -2,-19 -1,-4 -4,-7 -8,-9 -4,-2 -8,-4 -13,-4 -9,0 -17,3 -23,9 -6,6 -9,16 -9,29l0 75 -22 0 0 -84c0,-10 -2,-17 -5,-22 -4,-5 -9,-7 -18,-7 -6,0 -12,2 -17,5 -5,3 -9,8 -11,14 -2,6 -4,15 -4,27l0 67 -22 0z"/>
  <path id="123" class="fil4" d="M7790 3062l23 3c-4,13 -10,23 -20,31 -10,7 -22,11 -37,11 -19,0 -34,-6 -45,-17 -11,-12 -17,-28 -17,-49 0,-22 6,-39 17,-51 11,-12 26,-18 44,-18 17,0 31,6 42,18 11,12 16,28 16,50 0,1 0,3 0,6l-96 0c1,14 5,25 12,33 7,8 16,11 27,11 8,0 15,-2 21,-6 6,-4 10,-11 13,-20zm-72 -35l72 0c-1,-11 -4,-19 -8,-24 -7,-8 -16,-13 -27,-13 -10,0 -19,3 -25,10 -7,7 -11,16 -11,27z"/>
  <g>
   <line class="fil5 str2" x1="821" y1="520" x2="2955" y2= "520" />
   <polygon id="1" class="fil6" points="821,520 997,444 997,444 995,449 993,454 991,459 989,463 987,468 986,473 984,477 983,482 982,487 981,491 980,496 980,501 979,506 979,510 978,515 978,520 978,524 979,529 979,534 980,539 980,543 981,548 982,553 983,557 984,562 986,567 987,571 989,576 991,581 993,586 995,590 997,595 "/>
   <polygon id="12" class="fil6" points="2955,520 2779,444 2779,444 2781,449 2783,454 2785,459 2787,463 2789,468 2790,473 2792,477 2793,482 2794,487 2795,491 2796,496 2797,501 2797,506 2798,510 2798,515 2798,520 2798,524 2798,529 2797,534 2797,539 2796,543 2795,548 2794,553 2793,557 2792,562 2790,567 2789,571 2787,576 2785,581 2783,586 2781,590 2779,595 "/>
  </g>
  <path class="fil7" d="M163 1047l0 -6c11,-2 21,-5 28,-9 6,-4 11,-9 14,-15 3,-6 4,-15 4,-26l0 -31 -1 -49c0,-32 2,-54 7,-67 4,-12 10,-21 18,-28 8,-7 18,-11 31,-13 10,-2 19,-3 28,-3l13 0 5 0 0 8c-9,1 -16,2 -21,3 -5,2 -9,4 -14,8 -6,5 -10,10 -13,16 -3,6 -5,13 -5,22 -1,6 -1,20 -1,41l0 56c0,23 -1,40 -3,48 -2,9 -6,17 -13,24 -8,9 -19,14 -33,16l0 2c12,2 22,7 31,15 7,6 11,13 14,22 3,9 4,20 4,33l0 32 0 64c0,22 1,38 3,48 2,10 6,17 12,24 5,5 10,9 17,12 7,3 14,4 21,4l0 8 -7 0c-23,0 -40,-2 -53,-7 -14,-5 -24,-15 -31,-28 -7,-13 -10,-32 -10,-54l0 -33 1 -50 1 -36c0,-16 -4,-28 -10,-36 -7,-8 -19,-13 -36,-15z"/>
  <path class="fil7" d="M125 1237l-125 0 0 -40c0,-15 1,-25 2,-30 2,-7 6,-13 12,-18 6,-5 14,-7 24,-7 8,0 14,1 19,4 5,3 9,6 12,11 3,4 5,9 6,13 1,6 2,15 2,26l0 16 47 0 0 25zm-104 -25l35 0 0 -14c0,-10 -1,-17 -2,-20 -1,-3 -3,-6 -6,-8 -3,-2 -6,-3 -10,-3 -5,0 -8,1 -11,4 -3,3 -5,6 -6,10 -1,3 -1,9 -1,18l0 12z"/>
  <polygon id="1" class="fil7" points="125,1103 0,1133 0,1107 86,1088 0,1065 0,1035 87,1013 0,994 0,969 125,999 125,1026 31,1051 125,1076 "/>
  <polygon id="12" class="fil7" points="125,956 0,956 0,919 85,896 0,874 0,836 125,836 125,859 27,859 125,884 125,908 27,933 125,933 "/>
  <path class="fil4" d="M1182 703l0 -143 28 0 34 101c3,9 5,16 7,21 2,-5 4,-13 8,-23l34 -99 25 0 0 143 -18 0 0 -119 -41 119 -17 0 -41 -121 0 121 -18 0z"/>
  <path id="1" class="fil4" d="M1340 652c0,-19 5,-33 16,-42 9,-8 20,-11 32,-11 14,0 26,5 35,14 9,9 14,22 14,39 0,13 -2,24 -6,31 -4,8 -10,14 -17,18 -8,4 -16,6 -25,6 -14,0 -26,-5 -35,-14 -9,-9 -13,-23 -13,-40zm18 0c0,13 3,23 9,30 6,7 13,10 22,10 9,0 16,-3 22,-10 6,-7 9,-17 9,-30 0,-13 -3,-22 -9,-29 -6,-7 -13,-10 -22,-10 -9,0 -16,3 -22,10 -6,7 -9,16 -9,30z"/>
  <path id="12" class="fil4" d="M1524 703l0 -13c-7,10 -16,15 -29,15 -8,0 -16,-2 -23,-7 -7,-5 -12,-11 -16,-19 -4,-8 -6,-17 -6,-28 0,-10 2,-20 5,-28 3,-8 9,-15 15,-19 7,-4 15,-7 23,-7 6,0 12,1 17,4 5,3 9,6 12,10l0 -51 17 0 0 143 -16 0zm-55 -52c0,13 3,23 8,30 6,7 12,10 20,10 8,0 14,-3 19,-9 5,-6 8,-16 8,-29 0,-14 -3,-24 -8,-31 -5,-7 -12,-10 -20,-10 -8,0 -14,3 -19,10 -5,6 -8,16 -8,30z"/>
  <path id="123" class="fil4" d="M1639 670l18 2c-3,11 -8,19 -16,25 -8,6 -18,9 -30,9 -15,0 -27,-5 -36,-14 -9,-9 -13,-22 -13,-39 0,-17 4,-31 13,-40 9,-10 21,-14 35,-14 14,0 25,5 34,14 9,9 13,23 13,40 0,1 0,3 0,5l-77 0c1,11 4,20 10,26 6,6 13,9 22,9 6,0 12,-2 16,-5 5,-3 8,-9 11,-16zm-57 -28l58 0c-1,-9 -3,-15 -7,-20 -6,-7 -13,-10 -22,-10 -8,0 -15,3 -20,8 -5,5 -9,13 -9,22z"/>
  <polygon id="1234" class="fil4" points="1678,703 1678,561 1696,561 1696,703 "/>
  <path id="12345" class="fil4" d="M1794 703l-16 0 0 -143 17 0 0 51c7,-9 17,-14 28,-14 6,0 12,1 18,4 6,3 10,6 14,11 4,5 7,10 9,17 2,7 3,14 3,21 0,18 -4,31 -13,41 -9,10 -19,14 -31,14 -12,0 -22,-5 -29,-15l0 13zm0 -52c0,12 2,21 5,27 6,9 13,14 22,14 8,0 14,-3 20,-10 6,-7 8,-17 8,-30 0,-13 -3,-23 -8,-30 -5,-6 -12,-10 -19,-10 -8,0 -14,3 -20,10 -6,7 -8,16 -8,29z"/>
  <path id="123456" class="fil4" d="M1956 691c-7,6 -13,9 -19,12 -6,2 -12,3 -19,3 -11,0 -20,-3 -26,-8 -6,-6 -9,-13 -9,-21 0,-5 1,-10 3,-14 2,-4 5,-8 9,-10 4,-3 8,-4 13,-6 3,-1 9,-2 16,-3 14,-2 25,-4 31,-6 0,-2 0,-4 0,-5 0,-7 -2,-12 -5,-15 -4,-4 -11,-6 -20,-6 -8,0 -14,1 -18,4 -4,3 -7,8 -9,15l-17 -2c2,-7 4,-13 8,-18 4,-5 9,-8 15,-10 7,-2 15,-4 23,-4 9,0 16,1 21,3 6,2 10,5 12,8 3,3 4,7 5,12 1,3 1,8 1,16l0 23c0,16 0,27 1,31 1,4 2,8 4,12l-18 0c-2,-4 -3,-8 -3,-13zm-1 -39c-6,3 -16,5 -29,7 -7,1 -12,2 -15,3 -3,1 -5,3 -7,6 -2,2 -2,5 -2,8 0,5 2,9 5,12 4,3 9,5 15,5 7,0 13,-1 18,-4 5,-3 9,-7 12,-12 2,-4 3,-10 3,-17l0 -6z"/>
  <path id="1234567" class="fil4" d="M1993 673l17 -3c1,7 4,12 8,16 4,4 11,6 19,6 8,0 14,-2 18,-5 4,-3 6,-7 6,-12 0,-4 -2,-7 -5,-9 -2,-2 -8,-4 -18,-6 -13,-3 -22,-6 -27,-8 -5,-2 -9,-6 -11,-10 -3,-4 -4,-9 -4,-14 0,-5 1,-9 3,-13 2,-4 5,-7 9,-10 3,-2 6,-4 11,-5 5,-1 10,-2 15,-2 8,0 15,1 21,4 6,2 11,5 14,9 3,4 5,9 6,16l-17 2c-1,-5 -3,-9 -7,-12 -4,-3 -9,-4 -16,-4 -8,0 -14,1 -17,4 -3,3 -5,6 -5,9 0,2 1,4 2,6 1,2 4,3 7,5 2,1 7,2 15,4 12,3 21,6 26,8 5,2 9,5 12,9 3,4 4,9 4,15 0,6 -2,11 -5,17 -3,5 -8,9 -15,12 -6,3 -14,4 -22,4 -13,0 -24,-3 -31,-8 -7,-6 -12,-14 -13,-25z"/>
  <path id="12345678" class="fil4" d="M2170 670l18 2c-3,11 -8,19 -16,25 -8,6 -18,9 -30,9 -15,0 -27,-5 -36,-14 -9,-9 -13,-22 -13,-39 0,-17 4,-31 13,-40 9,-10 21,-14 35,-14 14,0 25,5 34,14 9,9 13,23 13,40 0,1 0,3 0,5l-77 0c1,11 4,20 10,26 6,6 13,9 22,9 6,0 12,-2 16,-5 5,-3 8,-9 11,-16zm-57 -28l58 0c-1,-9 -3,-15 -7,-20 -6,-7 -13,-10 -22,-10 -8,0 -15,3 -20,8 -5,5 -9,13 -9,22z"/>
  <path id="123456789" class="fil4" d="M2265 703l0 -103 16 0 0 16c4,-7 8,-12 11,-14 3,-2 7,-4 11,-4 6,0 12,2 18,6l-6 16c-4,-3 -9,-4 -13,-4 -4,0 -7,1 -10,3 -3,2 -5,6 -7,10 -2,6 -3,13 -3,20l0 54 -17 0z"/>
  <path id="12345678910" class="fil4" d="M2399 691c-7,6 -13,9 -19,12 -6,2 -12,3 -19,3 -11,0 -20,-3 -26,-8 -6,-6 -9,-13 -9,-21 0,-5 1,-10 3,-14 2,-4 5,-8 9,-10 4,-3 8,-4 13,-6 3,-1 9,-2 16,-3 14,-2 25,-4 31,-6 0,-2 0,-4 0,-5 0,-7 -2,-12 -5,-15 -4,-4 -11,-6 -20,-6 -8,0 -14,1 -18,4 -4,3 -7,8 -9,15l-17 -2c2,-7 4,-13 8,-18 4,-5 9,-8 15,-10 7,-2 15,-4 23,-4 9,0 16,1 21,3 6,2 10,5 12,8 3,3 4,7 5,12 1,3 1,8 1,16l0 23c0,16 0,27 1,31 1,4 2,8 4,12l-18 0c-2,-4 -3,-8 -3,-13zm-1 -39c-6,3 -16,5 -29,7 -7,1 -12,2 -15,3 -3,1 -5,3 -7,6 -2,2 -2,5 -2,8 0,5 2,9 5,12 4,3 9,5 15,5 7,0 13,-1 18,-4 5,-3 9,-7 12,-12 2,-4 3,-10 3,-17l0 -6z"/>
  <path id="1234567891011" class="fil4" d="M2481 688l3 15c-5,1 -9,2 -13,2 -6,0 -11,-1 -15,-3 -3,-2 -6,-5 -7,-8 -1,-3 -2,-10 -2,-21l0 -59 -13 0 0 -14 13 0 0 -26 17 -10 0 36 18 0 0 14 -18 0 0 60c0,5 0,8 1,10 1,1 2,3 3,3 1,1 3,1 6,1 2,0 5,0 8,-1z"/>
  <path id="123456789101112" class="fil4" d="M2569 670l18 2c-3,11 -8,19 -16,25 -8,6 -18,9 -30,9 -15,0 -27,-5 -36,-14 -9,-9 -13,-22 -13,-39 0,-17 4,-31 13,-40 9,-10 21,-14 35,-14 14,0 25,5 34,14 9,9 13,23 13,40 0,1 0,3 0,5l-77 0c1,11 4,20 10,26 6,6 13,9 22,9 6,0 12,-2 16,-5 5,-3 8,-9 11,-16zm-57 -28l58 0c-1,-9 -3,-15 -7,-20 -6,-7 -13,-10 -22,-10 -8,0 -15,3 -20,8 -5,5 -9,13 -9,22z"/>
  <path class="fil8" d="M847 2984c0,-13 1,-23 4,-31 3,-8 6,-14 12,-18 5,-4 12,-6 19,-6 6,0 11,1 15,3 4,2 8,6 11,10 3,4 5,10 7,16 2,6 2,15 2,25 0,13 -1,23 -4,30 -3,8 -6,14 -12,18 -5,4 -12,6 -19,6 -10,0 -18,-4 -24,-11 -7,-9 -11,-23 -11,-43zm14 0c0,18 2,29 6,35 4,6 9,9 15,9 6,0 11,-3 15,-9 4,-6 6,-18 6,-35 0,-18 -2,-29 -6,-35 -4,-6 -9,-9 -15,-9 -6,0 -11,3 -14,8 -5,6 -7,19 -7,36z"/>
  <rect class="fil0 str0" x="2952" y="2235" width="1425" height="215"/>
  <path class="fil1" d="M3420 2359l16 -1c1,6 2,11 5,15 3,4 7,7 13,10 6,2 12,4 19,4 6,0 12,-1 17,-3 5,-2 8,-4 11,-8 2,-3 4,-7 4,-11 0,-4 -1,-7 -3,-10 -2,-3 -6,-5 -11,-7 -3,-1 -11,-3 -22,-6 -11,-3 -19,-5 -24,-8 -6,-3 -10,-7 -13,-12 -3,-5 -4,-10 -4,-16 0,-6 2,-12 5,-18 4,-5 9,-10 16,-12 7,-3 14,-4 23,-4 9,0 17,1 24,4 7,3 12,7 16,13 4,6 6,12 6,20l-16 1c-1,-8 -4,-14 -9,-18 -5,-4 -12,-6 -22,-6 -10,0 -17,2 -22,5 -5,4 -7,8 -7,13 0,5 2,8 5,11 3,3 11,6 25,9 13,3 23,6 28,8 7,3 13,8 16,13 3,5 5,11 5,18 0,7 -2,13 -6,19 -4,6 -9,10 -16,14 -7,3 -15,5 -24,5 -11,0 -21,-2 -28,-5 -8,-3 -14,-8 -18,-15 -4,-7 -7,-14 -7,-22z"/>
  <path id="1" class="fil1" d="M3574 2385l2 14c-4,1 -8,1 -12,1 -6,0 -10,-1 -13,-3 -3,-2 -5,-4 -6,-7 -1,-3 -2,-9 -2,-18l0 -52 -11 0 0 -12 11 0 0 -22 15 -9 0 32 15 0 0 12 -15 0 0 53c0,4 0,7 1,8 1,1 1,2 3,3 1,1 3,1 5,1 2,0 4,0 7,-1z"/>
  <path id="12" class="fil1" d="M3651 2370l16 2c-2,9 -7,16 -14,22 -7,5 -15,8 -26,8 -13,0 -24,-4 -31,-12 -8,-8 -12,-20 -12,-34 0,-15 4,-27 12,-35 8,-8 18,-13 30,-13 12,0 22,4 30,12 8,8 12,20 12,35 0,1 0,2 0,4l-67 0c1,10 3,18 8,23 5,5 11,8 19,8 6,0 10,-1 14,-4 4,-3 7,-8 9,-14zm-50 -25l50 0c-1,-8 -3,-13 -6,-17 -5,-6 -11,-9 -19,-9 -7,0 -13,2 -18,7 -5,5 -7,11 -8,19z"/>
  <path id="123" class="fil1" d="M3686 2433l0 -125 14 0 0 12c3,-5 7,-8 11,-10 4,-2 9,-3 15,-3 8,0 15,2 20,6 6,4 10,10 13,17 3,7 5,15 5,24 0,9 -2,18 -5,25 -3,7 -8,13 -14,17 -6,4 -13,6 -20,6 -5,0 -10,-1 -14,-3 -4,-2 -7,-5 -10,-8l0 44 -15 0zm14 -79c0,12 2,20 7,26 5,6 10,8 17,8 7,0 13,-3 17,-9 5,-6 7,-15 7,-27 0,-12 -2,-20 -7,-26 -5,-6 -10,-9 -17,-9 -7,0 -12,3 -17,9 -5,6 -8,15 -8,27z"/>
  <path id="1234" class="fil2" d="M3884 2399l-15 0 0 -98c-4,4 -9,7 -14,11 -6,4 -11,6 -16,8l0 -15c9,-4 16,-9 22,-15 6,-6 11,-11 14,-17l10 0 0 125z"/>
  <rect class="fil3 str1" x="4377" y="1878" width="708" height="215"/>
  <polygon class="fil1" points="4607,2042 4607,1917 4623,1917 4623,2042 "/>
  <path id="1" class="fil1" d="M4709 2042l0 -11c-6,9 -14,13 -25,13 -7,0 -14,-2 -20,-6 -6,-4 -11,-9 -14,-17 -3,-7 -5,-15 -5,-25 0,-9 2,-17 5,-25 3,-7 8,-13 14,-17 6,-4 13,-6 20,-6 5,0 10,1 15,3 4,2 8,5 10,9l0 -45 15 0 0 125 -14 0zm-48 -45c0,12 2,20 7,26 5,6 11,9 17,9 7,0 12,-3 17,-8 5,-5 7,-14 7,-25 0,-12 -2,-21 -7,-27 -5,-6 -11,-9 -18,-9 -7,0 -12,3 -17,8 -5,6 -7,14 -7,26z"/>
  <polygon id="12" class="fil1" points="4747,2042 4747,1917 4762,1917 4762,2042 "/>
  <path id="123" class="fil1" d="M4848 2013l16 2c-2,9 -7,16 -14,22 -7,5 -15,8 -26,8 -13,0 -24,-4 -31,-12 -8,-8 -12,-20 -12,-34 0,-15 4,-27 12,-35 8,-8 18,-13 30,-13 12,0 22,4 30,12 8,8 12,20 12,35 0,1 0,2 0,4l-67 0c1,10 3,18 8,23 5,5 11,8 19,8 6,0 10,-1 14,-4 4,-3 7,-8 9,-14zm-50 -25l50 0c-1,-8 -3,-13 -6,-17 -5,-6 -11,-9 -19,-9 -7,0 -13,2 -18,7 -5,5 -7,11 -8,19z"/>
  <rect class="fil0 str0" x="5085" y="2235" width="1425" height="215"/>
  <path class="fil1" d="M5554 2359l16 -1c1,6 2,11 5,15 3,4 7,7 13,10 6,2 12,4 19,4 6,0 12,-1 17,-3 5,-2 8,-4 11,-8 2,-3 4,-7 4,-11 0,-4 -1,-7 -3,-10 -2,-3 -6,-5 -11,-7 -3,-1 -11,-3 -22,-6 -11,-3 -19,-5 -24,-8 -6,-3 -10,-7 -13,-12 -3,-5 -4,-10 -4,-16 0,-6 2,-12 5,-18 4,-5 9,-10 16,-12 7,-3 14,-4 23,-4 9,0 17,1 24,4 7,3 12,7 16,13 4,6 6,12 6,20l-16 1c-1,-8 -4,-14 -9,-18 -5,-4 -12,-6 -22,-6 -10,0 -17,2 -22,5 -5,4 -7,8 -7,13 0,5 2,8 5,11 3,3 11,6 25,9 13,3 23,6 28,8 7,3 13,8 16,13 3,5 5,11 5,18 0,7 -2,13 -6,19 -4,6 -9,10 -16,14 -7,3 -15,5 -24,5 -11,0 -21,-2 -28,-5 -8,-3 -14,-8 -18,-15 -4,-7 -7,-14 -7,-22z"/>
  <path id="1" class="fil1" d="M5707 2385l2 14c-4,1 -8,1 -12,1 -6,0 -10,-1 -13,-3 -3,-2 -5,-4 -6,-7 -1,-3 -2,-9 -2,-18l0 -52 -11 0 0 -12 11 0 0 -22 15 -9 0 32 15 0 0 12 -15 0 0 53c0,4 0,7 1,8 1,1 1,2 3,3 1,1 3,1 5,1 2,0 4,0 7,-1z"/>
  <path id="12" class="fil1" d="M5784 2370l16 2c-2,9 -7,16 -14,22 -7,5 -15,8 -26,8 -13,0 -24,-4 -31,-12 -8,-8 -12,-20 -12,-34 0,-15 4,-27 12,-35 8,-8 18,-13 30,-13 12,0 22,4 30,12 8,8 12,20 12,35 0,1 0,2 0,4l-67 0c1,10 3,18 8,23 5,5 11,8 19,8 6,0 10,-1 14,-4 4,-3 7,-8 9,-14zm-50 -25l50 0c-1,-8 -3,-13 -6,-17 -5,-6 -11,-9 -19,-9 -7,0 -13,2 -18,7 -5,5 -7,11 -8,19z"/>
  <path id="123" class="fil1" d="M5819 2433l0 -125 14 0 0 12c3,-5 7,-8 11,-10 4,-2 9,-3 15,-3 8,0 15,2 20,6 6,4 10,10 13,17 3,7 5,15 5,24 0,9 -2,18 -5,25 -3,7 -8,13 -14,17 -6,4 -13,6 -20,6 -5,0 -10,-1 -14,-3 -4,-2 -7,-5 -10,-8l0 44 -15 0zm14 -79c0,12 2,20 7,26 5,6 10,8 17,8 7,0 13,-3 17,-9 5,-6 7,-15 7,-27 0,-12 -2,-20 -7,-26 -5,-6 -10,-9 -17,-9 -7,0 -12,3 -17,9 -5,6 -8,15 -8,27z"/>
  <path id="1234" class="fil2" d="M6018 2399l-15 0 0 -98c-4,4 -9,7 -14,11 -6,4 -11,6 -16,8l0 -15c9,-4 16,-9 22,-15 6,-6 11,-11 14,-17l10 0 0 125z"/>
  <rect class="fil3 str1" x="6510" y="1878" width="708" height="215"/>
  <polygon class="fil1" points="6740,2042 6740,1917 6757,1917 6757,2042 "/>
  <path id="1" class="fil1" d="M6842 2042l0 -11c-6,9 -14,13 -25,13 -7,0 -14,-2 -20,-6 -6,-4 -11,-9 -14,-17 -3,-7 -5,-15 -5,-25 0,-9 2,-17 5,-25 3,-7 8,-13 14,-17 6,-4 13,-6 20,-6 5,0 10,1 15,3 4,2 8,5 10,9l0 -45 15 0 0 125 -14 0zm-48 -45c0,12 2,20 7,26 5,6 11,9 17,9 7,0 12,-3 17,-8 5,-5 7,-14 7,-25 0,-12 -2,-21 -7,-27 -5,-6 -11,-9 -18,-9 -7,0 -12,3 -17,8 -5,6 -7,14 -7,26z"/>
  <polygon id="12" class="fil1" points="6880,2042 6880,1917 6896,1917 6896,2042 "/>
  <path id="123" class="fil1" d="M6981 2013l16 2c-2,9 -7,16 -14,22 -7,5 -15,8 -26,8 -13,0 -24,-4 -31,-12 -8,-8 -12,-20 -12,-34 0,-15 4,-27 12,-35 8,-8 18,-13 30,-13 12,0 22,4 30,12 8,8 12,20 12,35 0,1 0,2 0,4l-67 0c1,10 3,18 8,23 5,5 11,8 19,8 6,0 10,-1 14,-4 4,-3 7,-8 9,-14zm-50 -25l50 0c-1,-8 -3,-13 -6,-17 -5,-6 -11,-9 -19,-9 -7,0 -13,2 -18,7 -5,5 -7,11 -8,19z"/>
  <path class="fil4" d="M2580 162l3 19c-6,1 -12,2 -17,2 -8,0 -14,-1 -19,-4 -4,-2 -7,-6 -9,-10 -2,-4 -3,-13 -3,-26l0 -74 -16 0 0 -17 16 0 0 -32 22 -13 0 45 22 0 0 17 -22 0 0 75c0,6 0,10 1,12 1,2 2,3 4,4 2,1 4,2 7,2 2,0 6,0 10,-1z"/>
  <path id="1" class="fil4" d="M2601 181l0 -129 20 0 0 20c5,-9 10,-15 14,-18 4,-3 9,-4 14,-4 7,0 15,2 22,7l-8 20c-5,-3 -11,-5 -16,-5 -5,0 -9,1 -13,4 -4,3 -7,7 -8,12 -2,8 -4,16 -4,26l0 68 -22 0z"/>
  <path id="12" class="fil4" d="M2684 28l0 -25 22 0 0 25 -22 0zm0 153l0 -129 22 0 0 129 -22 0z"/>
  <path id="123" class="fil4" d="M2736 192l21 3c1,7 3,11 7,14 5,4 13,6 22,6 10,0 18,-2 23,-6 6,-4 9,-10 11,-17 1,-4 2,-14 2,-28 -10,11 -21,17 -36,17 -18,0 -31,-6 -41,-19 -10,-13 -15,-28 -15,-46 0,-12 2,-24 7,-34 4,-10 11,-18 19,-24 8,-6 18,-9 30,-9 15,0 28,6 38,19l0 -16 20 0 0 112c0,20 -2,34 -6,43 -4,8 -11,15 -19,20 -9,5 -20,7 -33,7 -15,0 -28,-3 -37,-10 -9,-7 -14,-17 -14,-31zm18 -78c0,17 3,29 10,37 7,8 15,12 25,12 10,0 18,-4 25,-12 7,-8 10,-20 10,-36 0,-16 -3,-28 -11,-36 -7,-8 -15,-12 -25,-12 -10,0 -18,4 -25,12 -7,8 -10,20 -10,35z"/>
  <path id="1234" class="fil4" d="M2874 192l21 3c1,7 3,11 7,14 5,4 13,6 22,6 10,0 18,-2 23,-6 6,-4 9,-10 11,-17 1,-4 2,-14 2,-28 -10,11 -21,17 -36,17 -18,0 -31,-6 -41,-19 -10,-13 -15,-28 -15,-46 0,-12 2,-24 7,-34 4,-10 11,-18 19,-24 8,-6 18,-9 30,-9 15,0 28,6 38,19l0 -16 20 0 0 112c0,20 -2,34 -6,43 -4,8 -11,15 -19,20 -9,5 -20,7 -33,7 -15,0 -28,-3 -37,-10 -9,-7 -14,-17 -14,-31zm18 -78c0,17 3,29 10,37 7,8 15,12 25,12 10,0 18,-4 25,-12 7,-8 10,-20 10,-36 0,-16 -3,-28 -11,-36 -7,-8 -15,-12 -25,-12 -10,0 -18,4 -25,12 -7,8 -10,20 -10,35z"/>
  <path id="12345" class="fil4" d="M3105 140l23 3c-4,13 -10,23 -20,31 -10,7 -22,11 -37,11 -19,0 -34,-6 -45,-17 -11,-12 -17,-28 -17,-49 0,-22 6,-39 17,-51 11,-12 26,-18 44,-18 17,0 31,6 42,18 11,12 16,28 16,50 0,1 0,3 0,6l-96 0c1,14 5,25 12,33 7,8 16,11 27,11 8,0 15,-2 21,-6 6,-4 10,-11 13,-20zm-72 -35l72 0c-1,-11 -4,-19 -8,-24 -7,-8 -16,-13 -27,-13 -10,0 -19,3 -25,10 -7,7 -11,16 -11,27z"/>
  <path id="123456" class="fil4" d="M3155 181l0 -129 20 0 0 20c5,-9 10,-15 14,-18 4,-3 9,-4 14,-4 7,0 15,2 22,7l-8 20c-5,-3 -11,-5 -16,-5 -5,0 -9,1 -13,4 -4,3 -7,7 -8,12 -2,8 -4,16 -4,26l0 68 -22 0z"/>
  <path id="1234567" class="fil4" d="M3326 140l23 3c-4,13 -10,23 -20,31 -10,7 -22,11 -37,11 -19,0 -34,-6 -45,-17 -11,-12 -17,-28 -17,-49 0,-22 6,-39 17,-51 11,-12 26,-18 44,-18 17,0 31,6 42,18 11,12 16,28 16,50 0,1 0,3 0,6l-96 0c1,14 5,25 12,33 7,8 16,11 27,11 8,0 15,-2 21,-6 6,-4 10,-11 13,-20zm-72 -35l72 0c-1,-11 -4,-19 -8,-24 -7,-8 -16,-13 -27,-13 -10,0 -19,3 -25,10 -7,7 -11,16 -11,27z"/>
  <path id="12345678" class="fil4" d="M3460 181l0 -16c-8,13 -20,19 -36,19 -10,0 -20,-3 -28,-9 -9,-6 -15,-14 -20,-24 -5,-10 -7,-22 -7,-35 0,-13 2,-25 6,-35 4,-11 11,-19 19,-24 9,-6 18,-8 29,-8 8,0 15,2 21,5 6,3 11,8 15,13l0 -64 22 0 0 178 -20 0zm-69 -64c0,17 3,29 10,37 7,8 15,12 25,12 10,0 18,-4 24,-12 7,-8 10,-20 10,-36 0,-18 -3,-31 -10,-39 -7,-8 -15,-12 -25,-12 -10,0 -18,4 -24,12 -7,8 -10,20 -10,38z"/>
  <path id="123456789" class="fil4" d="M3608 181l-40 -129 23 0 21 75 8 28c0,-1 3,-10 7,-27l21 -76 22 0 19 75 6 25 7 -25 22 -75 21 0 -40 129 -23 0 -21 -77 -5 -22 -26 99 -23 0z"/>
  <path id="12345678910" class="fil4" d="M3764 28l0 -25 22 0 0 25 -22 0zm0 153l0 -129 22 0 0 129 -22 0z"/>
  <path id="1234567891011" class="fil4" d="M3867 162l3 19c-6,1 -12,2 -17,2 -8,0 -14,-1 -19,-4 -4,-2 -7,-6 -9,-10 -2,-4 -3,-13 -3,-26l0 -74 -16 0 0 -17 16 0 0 -32 22 -13 0 45 22 0 0 17 -22 0 0 75c0,6 0,10 1,12 1,2 2,3 4,4 2,1 4,2 7,2 2,0 6,0 10,-1z"/>
  <path id="123456789101112" class="fil4" d="M3888 181l0 -178 22 0 0 64c10,-12 23,-18 39,-18 10,0 18,2 25,6 7,4 12,9 15,16 3,7 5,16 5,29l0 82 -22 0 0 -82c0,-11 -2,-19 -7,-24 -5,-5 -11,-8 -20,-8 -6,0 -13,2 -18,5 -6,3 -10,8 -12,14 -2,6 -4,14 -4,24l0 71 -22 0z"/>
  <path id="12345678910111213" class="fil4" d="M4099 181l0 -178 67 0c12,0 21,1 27,2 9,1 16,4 22,8 6,4 11,10 14,17 4,7 5,15 5,24 0,15 -5,28 -14,39 -10,10 -27,16 -52,16l-46 0 0 72 -24 0zm24 -93l46 0c15,0 26,-3 32,-9 6,-6 10,-14 10,-24 0,-7 -2,-14 -6,-19 -4,-5 -9,-9 -15,-11 -4,-1 -11,-2 -22,-2l-46 0 0 64z"/>
  <path id="1234567891011121314" class="fil4" d="M4296 181l-47 -178 24 0 27 117c3,12 5,24 8,36 5,-19 7,-30 8,-33l34 -120 28 0 26 90c6,22 11,43 14,63 2,-11 5,-24 9,-39l28 -115 24 0 -49 178 -23 0 -38 -136c-3,-11 -5,-18 -6,-21 -2,8 -4,15 -5,21l-38 136 -24 0z"/>
  <path id="123456789101112131415" class="fil4" d="M4499 181l0 -178 36 0 42 126c4,12 7,21 9,26 2,-6 5,-16 9,-29l43 -124 32 0 0 178 -23 0 0 -149 -52 149 -21 0 -52 -152 0 152 -23 0z"/>
  <polygon id="12345678910111213141516" class="fil4" points="4820,152 4820,104 4771,104 4771,83 4820,83 4820,35 4840,35 4840,83 4889,83 4889,104 4840,104 4840,152 "/>
  <path id="1234567891011121314151617" class="fil4" d="M4958 181l68 -178 25 0 73 178 -27 0 -21 -54 -75 0 -20 54 -25 0zm51 -73l60 0 -19 -49c-6,-15 -10,-27 -13,-37 -2,11 -5,23 -10,34l-20 52z"/>
  <path id="123456789101112131415161718" class="fil4" d="M5143 181l0 -178 61 0c14,0 24,1 32,3 10,2 19,7 26,13 9,8 16,18 21,30 5,12 7,26 7,42 0,14 -2,26 -5,36 -3,10 -7,19 -12,26 -5,7 -10,12 -16,16 -6,4 -13,7 -21,9 -8,2 -18,3 -29,3l-64 0zm24 -21l38 0c12,0 21,-1 28,-3 7,-2 12,-5 16,-9 6,-6 10,-13 13,-23 3,-9 5,-21 5,-34 0,-19 -3,-33 -9,-43 -6,-10 -14,-17 -22,-20 -6,-2 -17,-4 -31,-4l-37 0 0 136z"/>
  <path id="12345678910111213141516171819" class="fil4" d="M5450 119l24 6c-5,19 -14,34 -27,44 -13,10 -29,15 -47,15 -19,0 -35,-4 -47,-12 -12,-8 -21,-19 -27,-34 -6,-15 -9,-31 -9,-48 0,-19 4,-35 11,-49 7,-14 17,-24 30,-31 13,-7 27,-11 43,-11 18,0 33,5 45,14 12,9 21,22 25,38l-23 5c-4,-13 -10,-22 -18,-28 -8,-6 -18,-9 -30,-9 -14,0 -25,3 -34,10 -9,7 -16,15 -19,26 -4,11 -6,22 -6,34 0,15 2,28 7,40 4,11 11,20 21,25 9,6 19,8 30,8 13,0 24,-4 34,-11 9,-8 15,-19 19,-34z"/>
  <line class="fil9 str3" x1="2746" y1="975" x2="2746" y2= "1488" />
  <line class="fil9 str3" x1="4879" y1="989" x2="4879" y2= "1488" />
  <polyline class="fil9 str4" points="7424,1251 7298,1251 7298,1052 "/>
  <polyline class="fil9 str4" points="3031,1050 2461,1050 2461,1249 1024,1249 "/>
  <polyline class="fil9 str4" points="5165,1052 4595,1052 4595,1251 3031,1251 3031,1050 "/>
  <polyline class="fil9 str4" points="7298,1052 6728,1052 6728,1251 5165,1251 5165,1052 "/>
  <path class="fil10" d="M163 1649l0 -5c11,-1 21,-4 28,-7 6,-3 11,-7 14,-12 3,-5 4,-12 4,-21l0 -24 -1 -39c0,-25 2,-43 7,-53 4,-9 10,-17 18,-22 8,-5 18,-9 31,-11 10,-1 19,-2 28,-2l13 0 5 0 0 7c-9,0 -16,1 -21,3 -5,1 -9,3 -14,7 -6,4 -10,8 -13,13 -3,5 -5,11 -5,18 -1,5 -1,16 -1,33l0 45c0,19 -1,31 -3,38 -2,7 -6,13 -13,19 -8,7 -19,11 -33,13l0 2c12,1 22,5 31,12 7,5 11,11 14,17 3,7 4,16 4,26l0 25 0 51c0,18 1,31 3,38 2,8 6,14 12,19 5,4 10,7 17,9 7,2 14,3 21,3l0 7 -7 0c-23,0 -40,-2 -53,-6 -14,-4 -24,-12 -31,-22 -7,-11 -10,-25 -10,-43l0 -26 1 -40 1 -29c0,-13 -4,-22 -10,-28 -7,-6 -19,-10 -36,-12z"/>
  <path class="fil10" d="M129 1698l0 27 -28 11 0 50 28 10 0 27 -125 -49 0 -27 125 -50zm-49 46l-46 17 46 17 0 -34z"/>
  <path id="1" class="fil10" d="M5 1685l0 -46c0,-10 1,-18 2,-24 2,-7 6,-14 12,-19 5,-5 12,-9 20,-12 8,-3 18,-4 30,-4 10,0 19,1 27,4 9,3 16,8 22,13 4,4 8,10 10,18 2,6 3,13 3,22l0 47 -125 0zm21 -25l83 0 0 -19c0,-7 0,-12 -1,-15 -1,-4 -3,-7 -5,-10 -2,-3 -6,-5 -12,-7 -6,-2 -13,-3 -23,-3 -10,0 -17,1 -22,3 -5,2 -9,4 -12,7 -3,3 -5,7 -6,12 -1,4 -1,10 -1,21l0 11z"/>
  <path id="12" class="fil10" d="M84 1479l8 -24c14,4 24,10 30,19 7,9 10,20 10,33 0,17 -6,30 -17,41 -11,11 -27,16 -46,16 -21,0 -37,-5 -48,-16 -11,-11 -17,-25 -17,-42 0,-15 5,-28 14,-37 5,-6 13,-10 23,-13l6 25c-6,1 -12,5 -15,9 -4,5 -6,10 -6,17 0,9 3,17 10,23 7,6 17,9 32,9 16,0 27,-3 34,-9 7,-6 10,-13 10,-22 0,-7 -2,-12 -6,-17 -4,-5 -11,-8 -20,-10z"/>
  <line class="fil9 str3" x1="7013" y1="989" x2="7013" y2= "1488" />
  <g>
   <rect class="fil11 str5" x="2746" y="1488" width="206" height="145"/>
   <path class="fil1" d="M2760 1582l27 -71 10 0 29 71 -11 0 -8 -22 -30 0 -8 22 -10 0zm21 -29l24 0 -7 -20c-2,-6 -4,-11 -5,-15 -1,5 -2,9 -4,14l-8 21z"/>
   <path id="1" class="fil1" d="M2833 1582l0 -52 8 0 0 7c4,-6 9,-9 16,-9 3,0 6,1 9,2 3,1 5,3 6,4 1,2 2,4 3,6 0,2 0,4 0,9l0 32 -9 0 0 -31c0,-4 0,-6 -1,-8 -1,-2 -2,-3 -4,-4 -2,-1 -4,-2 -6,-2 -4,0 -7,1 -10,4 -3,2 -4,7 -4,13l0 28 -9 0z"/>
   <path id="12" class="fil1" d="M2919 1582l-9 0 0 -56c-2,2 -5,4 -8,6 -3,2 -7,4 -9,5l0 -8c5,-2 9,-5 13,-8 4,-3 6,-6 8,-10l6 0 0 72z"/>
   <rect class="fil11 str5" x="2952" y="1488" width="206" height="145"/>
   <path class="fil1" d="M2966 1582l27 -71 10 0 29 71 -11 0 -8 -22 -30 0 -8 22 -10 0zm21 -29l24 0 -7 -20c-2,-6 -4,-11 -5,-15 -1,5 -2,9 -4,14l-8 21z"/>
   <path id="1" class="fil1" d="M3039 1582l0 -52 8 0 0 7c4,-6 9,-9 16,-9 3,0 6,1 9,2 3,1 5,3 6,4 1,2 2,4 3,6 0,2 0,4 0,9l0 32 -9 0 0 -31c0,-4 0,-6 -1,-8 -1,-2 -2,-3 -4,-4 -2,-1 -4,-2 -6,-2 -4,0 -7,1 -10,4 -3,2 -4,7 -4,13l0 28 -9 0z"/>
   <path id="12" class="fil1" d="M3138 1574l0 8 -47 0c0,-2 0,-4 1,-6 1,-3 3,-6 6,-9 3,-3 6,-7 11,-11 8,-6 13,-11 16,-15 3,-4 4,-7 4,-11 0,-3 -1,-6 -4,-9 -2,-2 -6,-4 -10,-4 -4,0 -8,1 -10,4 -3,3 -4,6 -4,10l-9 -1c1,-7 3,-12 7,-15 4,-4 9,-5 16,-5 7,0 12,2 16,6 4,4 6,8 6,14 0,3 -1,6 -2,8 -1,3 -3,6 -6,9 -3,3 -7,7 -13,13 -5,4 -9,7 -10,9 -1,2 -3,3 -4,5l35 0z"/>
   <rect class="fil11 str5" x="2746" y="1632" width="206" height="145"/>
   <path class="fil1" d="M2760 1727l27 -71 10 0 29 71 -11 0 -8 -22 -30 0 -8 22 -10 0zm21 -29l24 0 -7 -20c-2,-6 -4,-11 -5,-15 -1,5 -2,9 -4,14l-8 21z"/>
   <path id="1" class="fil1" d="M2833 1727l0 -52 8 0 0 7c4,-6 9,-9 16,-9 3,0 6,1 9,2 3,1 5,3 6,4 1,2 2,4 3,6 0,2 0,4 0,9l0 32 -9 0 0 -31c0,-4 0,-6 -1,-8 -1,-2 -2,-3 -4,-4 -2,-1 -4,-2 -6,-2 -4,0 -7,1 -10,4 -3,2 -4,7 -4,13l0 28 -9 0z"/>
   <path id="12" class="fil1" d="M2886 1692c0,-8 1,-15 3,-20 2,-5 4,-9 8,-12 3,-3 8,-4 13,-4 4,0 7,1 10,2 3,2 5,4 7,7 2,3 3,6 4,11 1,4 2,10 2,17 0,8 -1,15 -3,20 -2,5 -4,9 -8,12 -3,3 -8,4 -13,4 -7,0 -12,-2 -16,-7 -5,-6 -7,-16 -7,-29zm9 0c0,12 1,19 4,23 3,4 6,6 10,6 4,0 7,-2 10,-6 3,-4 4,-12 4,-23 0,-12 -1,-20 -4,-23 -3,-4 -6,-6 -10,-6 -4,0 -7,2 -10,5 -3,4 -5,12 -5,24z"/>
   <rect class="fil11 str5" x="3158" y="1488" width="206" height="145"/>
   <path class="fil1" d="M3172 1582l27 -71 10 0 29 71 -11 0 -8 -22 -30 0 -8 22 -10 0zm21 -29l24 0 -7 -20c-2,-6 -4,-11 -5,-15 -1,5 -2,9 -4,14l-8 21z"/>
   <path id="1" class="fil1" d="M3245 1582l0 -52 8 0 0 7c4,-6 9,-9 16,-9 3,0 6,1 9,2 3,1 5,3 6,4 1,2 2,4 3,6 0,2 0,4 0,9l0 32 -9 0 0 -31c0,-4 0,-6 -1,-8 -1,-2 -2,-3 -4,-4 -2,-1 -4,-2 -6,-2 -4,0 -7,1 -10,4 -3,2 -4,7 -4,13l0 28 -9 0z"/>
   <path id="12" class="fil1" d="M3298 1563l9 -1c1,5 3,9 5,11 2,2 5,3 9,3 4,0 8,-1 10,-4 3,-3 4,-6 4,-11 0,-4 -1,-7 -4,-10 -3,-3 -6,-4 -10,-4 -2,0 -4,0 -6,1l1 -8c1,0 1,0 1,0 4,0 7,-1 10,-3 3,-2 4,-5 4,-9 0,-3 -1,-6 -3,-8 -2,-2 -5,-3 -8,-3 -3,0 -6,1 -8,3 -2,2 -4,5 -4,10l-9 -2c1,-6 4,-10 7,-14 4,-3 9,-5 14,-5 4,0 7,1 11,3 3,2 6,4 8,7 2,3 3,6 3,9 0,3 -1,6 -2,8 -2,3 -4,5 -7,6 4,1 7,3 10,6 2,3 3,7 3,11 0,6 -2,11 -7,16 -5,4 -10,6 -17,6 -6,0 -11,-2 -16,-6 -4,-4 -6,-9 -7,-14z"/>
   <rect class="fil11 str5" x="3364" y="1488" width="206" height="145"/>
   <path class="fil1" d="M3378 1582l27 -71 10 0 29 71 -11 0 -8 -22 -30 0 -8 22 -10 0zm21 -29l24 0 -7 -20c-2,-6 -4,-11 -5,-15 -1,5 -2,9 -4,14l-8 21z"/>
   <path id="1" class="fil1" d="M3451 1582l0 -52 8 0 0 7c4,-6 9,-9 16,-9 3,0 6,1 9,2 3,1 5,3 6,4 1,2 2,4 3,6 0,2 0,4 0,9l0 32 -9 0 0 -31c0,-4 0,-6 -1,-8 -1,-2 -2,-3 -4,-4 -2,-1 -4,-2 -6,-2 -4,0 -7,1 -10,4 -3,2 -4,7 -4,13l0 28 -9 0z"/>
   <path id="12" class="fil1" d="M3532 1582l0 -17 -31 0 0 -8 33 -46 7 0 0 46 10 0 0 8 -10 0 0 17 -9 0zm0 -25l0 -32 -22 32 22 0z"/>
  </g>
  <g>
   <rect class="fil11 str5" x="4879" y="1488" width="206" height="145"/>
   <path class="fil1" d="M4894 1582l27 -71 10 0 29 71 -11 0 -8 -22 -30 0 -8 22 -10 0zm21 -29l24 0 -7 -20c-2,-6 -4,-11 -5,-15 -1,5 -2,9 -4,14l-8 21z"/>
   <path id="1" class="fil1" d="M4967 1582l0 -52 8 0 0 7c4,-6 9,-9 16,-9 3,0 6,1 9,2 3,1 5,3 6,4 1,2 2,4 3,6 0,2 0,4 0,9l0 32 -9 0 0 -31c0,-4 0,-6 -1,-8 -1,-2 -2,-3 -4,-4 -2,-1 -4,-2 -6,-2 -4,0 -7,1 -10,4 -3,2 -4,7 -4,13l0 28 -9 0z"/>
   <path id="12" class="fil1" d="M5053 1582l-9 0 0 -56c-2,2 -5,4 -8,6 -3,2 -7,4 -9,5l0 -8c5,-2 9,-5 13,-8 4,-3 6,-6 8,-10l6 0 0 72z"/>
   <rect class="fil11 str5" x="5085" y="1488" width="206" height="145"/>
   <path class="fil1" d="M5099 1582l27 -71 10 0 29 71 -11 0 -8 -22 -30 0 -8 22 -10 0zm21 -29l24 0 -7 -20c-2,-6 -4,-11 -5,-15 -1,5 -2,9 -4,14l-8 21z"/>
   <path id="1" class="fil1" d="M5172 1582l0 -52 8 0 0 7c4,-6 9,-9 16,-9 3,0 6,1 9,2 3,1 5,3 6,4 1,2 2,4 3,6 0,2 0,4 0,9l0 32 -9 0 0 -31c0,-4 0,-6 -1,-8 -1,-2 -2,-3 -4,-4 -2,-1 -4,-2 -6,-2 -4,0 -7,1 -10,4 -3,2 -4,7 -4,13l0 28 -9 0z"/>
   <path id="12" class="fil1" d="M5271 1574l0 8 -47 0c0,-2 0,-4 1,-6 1,-3 3,-6 6,-9 3,-3 6,-7 11,-11 8,-6 13,-11 16,-15 3,-4 4,-7 4,-11 0,-3 -1,-6 -4,-9 -2,-2 -6,-4 -10,-4 -4,0 -8,1 -10,4 -3,3 -4,6 -4,10l-9 -1c1,-7 3,-12 7,-15 4,-4 9,-5 16,-5 7,0 12,2 16,6 4,4 6,8 6,14 0,3 -1,6 -2,8 -1,3 -3,6 -6,9 -3,3 -7,7 -13,13 -5,4 -9,7 -10,9 -1,2 -3,3 -4,5l35 0z"/>
   <rect class="fil11 str5" x="4879" y="1632" width="206" height="145"/>
   <path class="fil1" d="M4894 1727l27 -71 10 0 29 71 -11 0 -8 -22 -30 0 -8 22 -10 0zm21 -29l24 0 -7 -20c-2,-6 -4,-11 -5,-15 -1,5 -2,9 -4,14l-8 21z"/>
   <path id="1" class="fil1" d="M4967 1727l0 -52 8 0 0 7c4,-6 9,-9 16,-9 3,0 6,1 9,2 3,1 5,3 6,4 1,2 2,4 3,6 0,2 0,4 0,9l0 32 -9 0 0 -31c0,-4 0,-6 -1,-8 -1,-2 -2,-3 -4,-4 -2,-1 -4,-2 -6,-2 -4,0 -7,1 -10,4 -3,2 -4,7 -4,13l0 28 -9 0z"/>
   <path id="12" class="fil1" d="M5020 1692c0,-8 1,-15 3,-20 2,-5 4,-9 8,-12 3,-3 8,-4 13,-4 4,0 7,1 10,2 3,2 5,4 7,7 2,3 3,6 4,11 1,4 2,10 2,17 0,8 -1,15 -3,20 -2,5 -4,9 -8,12 -3,3 -8,4 -13,4 -7,0 -12,-2 -16,-7 -5,-6 -7,-16 -7,-29zm9 0c0,12 1,19 4,23 3,4 6,6 10,6 4,0 7,-2 10,-6 3,-4 4,-12 4,-23 0,-12 -1,-20 -4,-23 -3,-4 -6,-6 -10,-6 -4,0 -7,2 -10,5 -3,4 -5,12 -5,24z"/>
   <rect class="fil11 str5" x="5291" y="1488" width="206" height="145"/>
   <path class="fil1" d="M5305 1582l27 -71 10 0 29 71 -11 0 -8 -22 -30 0 -8 22 -10 0zm21 -29l24 0 -7 -20c-2,-6 -4,-11 -5,-15 -1,5 -2,9 -4,14l-8 21z"/>
   <path id="1" class="fil1" d="M5378 1582l0 -52 8 0 0 7c4,-6 9,-9 16,-9 3,0 6,1 9,2 3,1 5,3 6,4 1,2 2,4 3,6 0,2 0,4 0,9l0 32 -9 0 0 -31c0,-4 0,-6 -1,-8 -1,-2 -2,-3 -4,-4 -2,-1 -4,-2 -6,-2 -4,0 -7,1 -10,4 -3,2 -4,7 -4,13l0 28 -9 0z"/>
   <path id="12" class="fil1" d="M5431 1563l9 -1c1,5 3,9 5,11 2,2 5,3 9,3 4,0 8,-1 10,-4 3,-3 4,-6 4,-11 0,-4 -1,-7 -4,-10 -3,-3 -6,-4 -10,-4 -2,0 -4,0 -6,1l1 -8c1,0 1,0 1,0 4,0 7,-1 10,-3 3,-2 4,-5 4,-9 0,-3 -1,-6 -3,-8 -2,-2 -5,-3 -8,-3 -3,0 -6,1 -8,3 -2,2 -4,5 -4,10l-9 -2c1,-6 4,-10 7,-14 4,-3 9,-5 14,-5 4,0 7,1 11,3 3,2 6,4 8,7 2,3 3,6 3,9 0,3 -1,6 -2,8 -2,3 -4,5 -7,6 4,1 7,3 10,6 2,3 3,7 3,11 0,6 -2,11 -7,16 -5,4 -10,6 -17,6 -6,0 -11,-2 -16,-6 -4,-4 -6,-9 -7,-14z"/>
   <rect class="fil11 str5" x="5497" y="1488" width="206" height="145"/>
   <path class="fil1" d="M5511 1582l27 -71 10 0 29 71 -11 0 -8 -22 -30 0 -8 22 -10 0zm21 -29l24 0 -7 -20c-2,-6 -4,-11 -5,-15 -1,5 -2,9 -4,14l-8 21z"/>
   <path id="1" class="fil1" d="M5584 1582l0 -52 8 0 0 7c4,-6 9,-9 16,-9 3,0 6,1 9,2 3,1 5,3 6,4 1,2 2,4 3,6 0,2 0,4 0,9l0 32 -9 0 0 -31c0,-4 0,-6 -1,-8 -1,-2 -2,-3 -4,-4 -2,-1 -4,-2 -6,-2 -4,0 -7,1 -10,4 -3,2 -4,7 -4,13l0 28 -9 0z"/>
   <path id="12" class="fil1" d="M5665 1582l0 -17 -31 0 0 -8 33 -46 7 0 0 46 10 0 0 8 -10 0 0 17 -9 0zm0 -25l0 -32 -22 32 22 0z"/>
  </g>
  <rect class="fil11 str5" x="7017" y="1488" width="206" height="145"/>
  <path class="fil1" d="M7031 1582l27 -71 10 0 29 71 -11 0 -8 -22 -30 0 -8 22 -10 0zm21 -29l24 0 -7 -20c-2,-6 -4,-11 -5,-15 -1,5 -2,9 -4,14l-8 21z"/>
  <path id="1" class="fil1" d="M7104 1582l0 -52 8 0 0 7c4,-6 9,-9 16,-9 3,0 6,1 9,2 3,1 5,3 6,4 1,2 2,4 3,6 0,2 0,4 0,9l0 32 -9 0 0 -31c0,-4 0,-6 -1,-8 -1,-2 -2,-3 -4,-4 -2,-1 -4,-2 -6,-2 -4,0 -7,1 -10,4 -3,2 -4,7 -4,13l0 28 -9 0z"/>
  <path id="12" class="fil1" d="M7190 1582l-9 0 0 -56c-2,2 -5,4 -8,6 -3,2 -7,4 -9,5l0 -8c5,-2 9,-5 13,-8 4,-3 6,-6 8,-10l6 0 0 72z"/>
  <rect class="fil11 str5" x="819" y="1488" width="206" height="145"/>
  <path class="fil1" d="M833 1582l27 -71 10 0 29 71 -11 0 -8 -22 -30 0 -8 22 -10 0zm21 -29l24 0 -7 -20c-2,-6 -4,-11 -5,-15 -1,5 -2,9 -4,14l-8 21z"/>
  <path id="1" class="fil1" d="M906 1582l0 -52 8 0 0 7c4,-6 9,-9 16,-9 3,0 6,1 9,2 3,1 5,3 6,4 1,2 2,4 3,6 0,2 0,4 0,9l0 32 -9 0 0 -31c0,-4 0,-6 -1,-8 -1,-2 -2,-3 -4,-4 -2,-1 -4,-2 -6,-2 -4,0 -7,1 -10,4 -3,2 -4,7 -4,13l0 28 -9 0z"/>
  <path id="12" class="fil1" d="M1005 1574l0 8 -47 0c0,-2 0,-4 1,-6 1,-3 3,-6 6,-9 3,-3 6,-7 11,-11 8,-6 13,-11 16,-15 3,-4 4,-7 4,-11 0,-3 -1,-6 -4,-9 -2,-2 -6,-4 -10,-4 -4,0 -8,1 -10,4 -3,3 -4,6 -4,10l-9 -1c1,-7 3,-12 7,-15 4,-4 9,-5 16,-5 7,0 12,2 16,6 4,4 6,8 6,14 0,3 -1,6 -2,8 -1,3 -3,6 -6,9 -3,3 -7,7 -13,13 -5,4 -9,7 -10,9 -1,2 -3,3 -4,5l35 0z"/>
  <rect class="fil11 str5" x="7017" y="1632" width="206" height="145"/>
  <path class="fil1" d="M7031 1727l27 -71 10 0 29 71 -11 0 -8 -22 -30 0 -8 22 -10 0zm21 -29l24 0 -7 -20c-2,-6 -4,-11 -5,-15 -1,5 -2,9 -4,14l-8 21z"/>
  <path id="1" class="fil1" d="M7104 1727l0 -52 8 0 0 7c4,-6 9,-9 16,-9 3,0 6,1 9,2 3,1 5,3 6,4 1,2 2,4 3,6 0,2 0,4 0,9l0 32 -9 0 0 -31c0,-4 0,-6 -1,-8 -1,-2 -2,-3 -4,-4 -2,-1 -4,-2 -6,-2 -4,0 -7,1 -10,4 -3,2 -4,7 -4,13l0 28 -9 0z"/>
  <path id="12" class="fil1" d="M7157 1692c0,-8 1,-15 3,-20 2,-5 4,-9 8,-12 3,-3 8,-4 13,-4 4,0 7,1 10,2 3,2 5,4 7,7 2,3 3,6 4,11 1,4 2,10 2,17 0,8 -1,15 -3,20 -2,5 -4,9 -8,12 -3,3 -8,4 -13,4 -7,0 -12,-2 -16,-7 -5,-6 -7,-16 -7,-29zm9 0c0,12 1,19 4,23 3,4 6,6 10,6 4,0 7,-2 10,-6 3,-4 4,-12 4,-23 0,-12 -1,-20 -4,-23 -3,-4 -6,-6 -10,-6 -4,0 -7,2 -10,5 -3,4 -5,12 -5,24z"/>
  <rect class="fil11 str5" x="1025" y="1488" width="206" height="145"/>
  <path class="fil1" d="M1039 1582l27 -71 10 0 29 71 -11 0 -8 -22 -30 0 -8 22 -10 0zm21 -29l24 0 -7 -20c-2,-6 -4,-11 -5,-15 -1,5 -2,9 -4,14l-8 21z"/>
  <path id="1" class="fil1" d="M1112 1582l0 -52 8 0 0 7c4,-6 9,-9 16,-9 3,0 6,1 9,2 3,1 5,3 6,4 1,2 2,4 3,6 0,2 0,4 0,9l0 32 -9 0 0 -31c0,-4 0,-6 -1,-8 -1,-2 -2,-3 -4,-4 -2,-1 -4,-2 -6,-2 -4,0 -7,1 -10,4 -3,2 -4,7 -4,13l0 28 -9 0z"/>
  <path id="12" class="fil1" d="M1165 1563l9 -1c1,5 3,9 5,11 2,2 5,3 9,3 4,0 8,-1 10,-4 3,-3 4,-6 4,-11 0,-4 -1,-7 -4,-10 -3,-3 -6,-4 -10,-4 -2,0 -4,0 -6,1l1 -8c1,0 1,0 1,0 4,0 7,-1 10,-3 3,-2 4,-5 4,-9 0,-3 -1,-6 -3,-8 -2,-2 -5,-3 -8,-3 -3,0 -6,1 -8,3 -2,2 -4,5 -4,10l-9 -2c1,-6 4,-10 7,-14 4,-3 9,-5 14,-5 4,0 7,1 11,3 3,2 6,4 8,7 2,3 3,6 3,9 0,3 -1,6 -2,8 -2,3 -4,5 -7,6 4,1 7,3 10,6 2,3 3,7 3,11 0,6 -2,11 -7,16 -5,4 -10,6 -17,6 -6,0 -11,-2 -16,-6 -4,-4 -6,-9 -7,-14z"/>
  <rect class="fil11 str5" x="1230" y="1488" width="206" height="145"/>
  <path class="fil1" d="M1245 1582l27 -71 10 0 29 71 -11 0 -8 -22 -30 0 -8 22 -10 0zm21 -29l24 0 -7 -20c-2,-6 -4,-11 -5,-15 -1,5 -2,9 -4,14l-8 21z"/>
  <path id="1" class="fil1" d="M1318 1582l0 -52 8 0 0 7c4,-6 9,-9 16,-9 3,0 6,1 9,2 3,1 5,3 6,4 1,2 2,4 3,6 0,2 0,4 0,9l0 32 -9 0 0 -31c0,-4 0,-6 -1,-8 -1,-2 -2,-3 -4,-4 -2,-1 -4,-2 -6,-2 -4,0 -7,1 -10,4 -3,2 -4,7 -4,13l0 28 -9 0z"/>
  <path id="12" class="fil1" d="M1399 1582l0 -17 -31 0 0 -8 33 -46 7 0 0 46 10 0 0 8 -10 0 0 17 -9 0zm0 -25l0 -32 -22 32 22 0z"/>
  <rect class="fil11 str5" x="7223" y="1488" width="206" height="145"/>
  <path class="fil1" d="M7237 1582l27 -71 10 0 29 71 -11 0 -8 -22 -30 0 -8 22 -10 0zm21 -29l24 0 -7 -20c-2,-6 -4,-11 -5,-15 -1,5 -2,9 -4,14l-8 21z"/>
  <path id="1" class="fil1" d="M7310 1582l0 -52 8 0 0 7c4,-6 9,-9 16,-9 3,0 6,1 9,2 3,1 5,3 6,4 1,2 2,4 3,6 0,2 0,4 0,9l0 32 -9 0 0 -31c0,-4 0,-6 -1,-8 -1,-2 -2,-3 -4,-4 -2,-1 -4,-2 -6,-2 -4,0 -7,1 -10,4 -3,2 -4,7 -4,13l0 28 -9 0z"/>
  <path id="12" class="fil1" d="M7409 1574l0 8 -47 0c0,-2 0,-4 1,-6 1,-3 3,-6 6,-9 3,-3 6,-7 11,-11 8,-6 13,-11 16,-15 3,-4 4,-7 4,-11 0,-3 -1,-6 -4,-9 -2,-2 -6,-4 -10,-4 -4,0 -8,1 -10,4 -3,3 -4,6 -4,10l-9 -1c1,-7 3,-12 7,-15 4,-4 9,-5 16,-5 7,0 12,2 16,6 4,4 6,8 6,14 0,3 -1,6 -2,8 -1,3 -3,6 -6,9 -3,3 -7,7 -13,13 -5,4 -9,7 -10,9 -1,2 -3,3 -4,5l35 0z"/>
  <polyline class="fil9 str4" points="1024,1249 898,1249 898,1050 819,1050 "/>
  <line class="fil9 str6" x1="7218" y1="2929" x2="7218" y2= "406" />
  <line class="fil9 str6" x1="819" y1="2929" x2="819" y2= "413" />
  <line class="fil9 str6" x1="2952" y1="2929" x2="2952" y2= "406" />
  <line class="fil9 str6" x1="5085" y1="2929" x2="5085" y2= "406" />
 </g>
</svg>
