<?xml version="1.0" encoding="UTF-8"?><svg width="32.8083mm" height="24.6062mm" viewBox="0 0 124 93" xmlns="http://www.w3.org/2000/svg" xmlns:xlink="http://www.w3.org/1999/xlink"><g fill="none" stroke="black" stroke-width="1" fill-rule="evenodd" stroke-linecap="square" stroke-linejoin="bevel"><g clip-path="none" fill="#ffffff" fill-opacity="1" opacity="1" stroke="none" stroke-opacity="0" transform="matrix(1,0,0,1,0,0)"><path d="M0,0 L124,0 L124,93 L0,93 L0,0 z" fill-rule="evenodd" vector-effect="none"/></g><defs><clipPath id="clip3"><path d="M-117,-38 L7,-38 L7,55 L-117,55 L-117,-38 z"/></clipPath></defs><g clip-path="url(#clip3)" fill="none" opacity="1" stroke="#000000" stroke-linecap="round" stroke-linejoin="miter" stroke-miterlimit="2" stroke-opacity="1" stroke-width="2" transform="matrix(1,0,0,1,117,38)"><path d="M0.5,-4.5 L5.5,0.5 L0.5,5.5" fill-rule="evenodd" vector-effect="none"/></g><defs><clipPath id="clip6"><path d="M-2,-2 L122,-2 L122,91 L-2,91 L-2,-2 z"/></clipPath></defs><g clip-path="url(#clip6)" fill="#ffffff" fill-opacity="1" opacity="1" stroke="none" stroke-opacity="0" transform="matrix(1,0,0,1,2,2)"><path d="M0,0 L115,0 L115,72 L0,72 L0,0 z" fill-rule="evenodd" vector-effect="none"/></g><defs><clipPath id="clip10"><path d="M-59,-32 L60,-32 L60,44 L-59,44 L-59,-32 z"/></clipPath></defs><g clip-path="url(#clip10)" fill="none" opacity="1" stroke="#0000cc" stroke-linecap="square" stroke-linejoin="bevel" stroke-opacity="1" stroke-width="1" transform="matrix(1,0,0,1,59,32)"><text fill="#0000cc" fill-opacity="1" font-family="Arial, sans-serif" font-size="10" font-style="normal" font-weight="400" stroke="none" textLength="50.4531" x="-25.2188" xml:space="preserve" y="3.5">Interruption</text></g><defs><clipPath id="clip11"><path d="M-59,-44 L60,-44 L60,32 L-59,32 L-59,-44 z"/></clipPath></defs><g clip-path="url(#clip11)" fill="none" opacity="1" stroke="#0000cc" stroke-linecap="square" stroke-linejoin="bevel" stroke-opacity="1" stroke-width="1" transform="matrix(1,0,0,1,59,44)"><text fill="#0000cc" fill-opacity="1" font-family="Arial, sans-serif" font-size="10" font-style="normal" font-weight="400" stroke="none" textLength="58.25" x="-29.125" xml:space="preserve" y="3.5">User Defined</text></g><defs><clipPath id="clip12"><path d="M-114,-38 L5,-38 L5,38 L-114,38 L-114,-38 z"/></clipPath></defs><g clip-path="url(#clip12)" fill="none" opacity="1" stroke="#000000" stroke-linecap="square" stroke-linejoin="bevel" stroke-opacity="1" stroke-width="1" transform="matrix(1,0,0,1,114,38)"><text fill="#000000" fill-opacity="1" font-family="Arial, sans-serif" font-size="10" font-style="normal" font-weight="400" stroke="none" textLength="13.8594" x="-13.8594" xml:space="preserve" y="3.5">Fct</text></g><defs><clipPath id="clip17"><path d="M-2.5,-2.5 L121.5,-2.5 L121.5,90.5 L-2.5,90.5 L-2.5,-2.5 z"/></clipPath></defs><g clip-path="url(#clip17)" fill="none" opacity="1" stroke="#000000" stroke-linecap="butt" stroke-linejoin="miter" stroke-miterlimit="2" stroke-opacity="1" stroke-width="1" transform="matrix(1,0,0,1,2.5,2.5)"><path d="M0,0 L115,0 L115,72 L0,72 L0,0 z" fill-rule="evenodd" vector-effect="none"/></g><defs><clipPath id="clip23"><path d="M0,0 L39,0 L39,15 L0,15 L0,0 z"/></clipPath></defs><g clip-path="url(#clip23)" fill="none" opacity="1" stroke="#000000" stroke-linecap="square" stroke-linejoin="bevel" stroke-opacity="1" stroke-width="1" transform="matrix(1,0,0,1,39.9297,76)"><text fill="#000000" fill-opacity="1" font-family="Arial, sans-serif" font-size="10" font-style="normal" font-weight="400" stroke="none" textLength="37.1406" x="1" xml:space="preserve" y="11">Interrupt</text></g></g><!--generated on windows @ 2025-10-13 20:35:56 Romance Daylight Time--></svg>
