<?xml version="1.0" encoding="UTF-8"?><svg width="20.9021mm" height="21.4313mm" viewBox="0 0 79 81" xmlns="http://www.w3.org/2000/svg" xmlns:xlink="http://www.w3.org/1999/xlink"><g fill="none" stroke="black" stroke-width="1" fill-rule="evenodd" stroke-linecap="square" stroke-linejoin="bevel"><g clip-path="none" fill="#ffffff" fill-opacity="1" opacity="1" stroke="none" stroke-opacity="0" transform="matrix(1,0,0,1,0,0)"><path d="M0,0 L79.2344,0 L79.2344,81 L0,81 L0,0 z" fill-rule="evenodd" vector-effect="none"/></g><defs><clipPath id="clip3"><path d="M-16,-2 L63.2344,-2 L63.2344,79 L-16,79 L-16,-2 z"/></clipPath></defs><g clip-path="url(#clip3)" fill="#ffffff" fill-opacity="1" opacity="1" stroke="none" stroke-opacity="0" transform="matrix(1,0,0,1,16,2)"><path d="M0,0 L47,0 L47,45 L0,45 L0,0 z" fill-rule="evenodd" vector-effect="none"/></g><defs><clipPath id="clip7"><path d="M18,18 L69,18 L69,67 L18,67 L18,18 z"/></clipPath></defs><g clip-path="url(#clip7)" fill="none" opacity="1" stroke="#000000" stroke-linecap="butt" stroke-linejoin="miter" stroke-miterlimit="2" stroke-opacity="1" stroke-width="1" transform="matrix(1,0,0,1,-3.5,-17.5)"><polyline fill="none" points="57,20 20,20" vector-effect="none"/></g><defs><clipPath id="clip8"><path d="M18,18 L69,18 L69,67 L18,67 L18,18 z"/></clipPath></defs><g clip-path="url(#clip8)" fill="none" opacity="1" stroke="#000000" stroke-linecap="butt" stroke-linejoin="miter" stroke-miterlimit="2" stroke-opacity="1" stroke-width="1" transform="matrix(1,0,0,1,-3.5,-17.5)"><polyline fill="none" points="20,20 20,64" vector-effect="none"/></g><defs><clipPath id="clip9"><path d="M18,18 L69,18 L69,67 L18,67 L18,18 z"/></clipPath></defs><g clip-path="url(#clip9)" fill="none" opacity="1" stroke="#000000" stroke-linecap="butt" stroke-linejoin="miter" stroke-miterlimit="2" stroke-opacity="1" stroke-width="1" transform="matrix(1,0,0,1,-3.5,-17.5)"><polyline fill="none" points="20,64 66,64" vector-effect="none"/></g><defs><clipPath id="clip10"><path d="M18,18 L69,18 L69,67 L18,67 L18,18 z"/></clipPath></defs><g clip-path="url(#clip10)" fill="none" opacity="1" stroke="#000000" stroke-linecap="butt" stroke-linejoin="miter" stroke-miterlimit="2" stroke-opacity="1" stroke-width="1" transform="matrix(1,0,0,1,-3.5,-17.5)"><polyline fill="none" points="66,64 66,29" vector-effect="none"/></g><defs><clipPath id="clip11"><path d="M18,18 L69,18 L69,67 L18,67 L18,18 z"/></clipPath></defs><g clip-path="url(#clip11)" fill="none" opacity="1" stroke="#000000" stroke-linecap="butt" stroke-linejoin="miter" stroke-miterlimit="2" stroke-opacity="1" stroke-width="1" transform="matrix(1,0,0,1,-3.5,-17.5)"><polyline fill="none" points="66,29 57,20" vector-effect="none"/></g><defs><clipPath id="clip12"><path d="M18,18 L69,18 L69,67 L18,67 L18,18 z"/></clipPath></defs><g clip-path="url(#clip12)" fill="none" opacity="1" stroke="#000000" stroke-linecap="butt" stroke-linejoin="miter" stroke-miterlimit="2" stroke-opacity="1" stroke-width="1" transform="matrix(1,0,0,1,-3.5,-17.5)"><polyline fill="none" points="57,20 57,29" vector-effect="none"/></g><defs><clipPath id="clip13"><path d="M18,18 L69,18 L69,67 L18,67 L18,18 z"/></clipPath></defs><g clip-path="url(#clip13)" fill="none" opacity="1" stroke="#000000" stroke-linecap="butt" stroke-linejoin="miter" stroke-miterlimit="2" stroke-opacity="1" stroke-width="1" transform="matrix(1,0,0,1,-3.5,-17.5)"><polyline fill="none" points="57,29 66,29" vector-effect="none"/></g><defs><clipPath id="clip14"><path d="M-25,-20 L26,-20 L26,29 L-25,29 L-25,-20 z"/></clipPath></defs><g clip-path="url(#clip14)" fill="none" opacity="1" stroke="#000000" stroke-linecap="butt" stroke-linejoin="miter" stroke-miterlimit="2" stroke-opacity="1" stroke-width="1" transform="matrix(1,0,0,1,39,20)"><text fill="#000000" fill-opacity="1" font-family="Arial, sans-serif" font-size="10" font-style="normal" font-weight="400" stroke="none" textLength="22.2031" x="-11.0938" xml:space="preserve" y="3.5">DOC</text></g><defs><clipPath id="clip15"><path d="M-46,-45 L5,-45 L5,4 L-46,4 L-46,-45 z"/></clipPath></defs><g clip-path="url(#clip15)" fill="none" opacity="1" stroke="#000000" stroke-linecap="butt" stroke-linejoin="miter" stroke-miterlimit="2" stroke-opacity="1" stroke-width="1" transform="matrix(1,0,0,1,60,45)"><text fill="#000000" fill-opacity="1" font-family="Arial, sans-serif" font-size="10" font-style="normal" font-weight="400" stroke="none" textLength="14.9688" x="-14.9688" xml:space="preserve" y="-3">Pdf</text></g><defs><clipPath id="clip25"><path d="M0,0 L64,0 L64,15 L0,15 L0,0 z"/></clipPath></defs><g clip-path="url(#clip25)" fill="none" opacity="1" stroke="#000000" stroke-linecap="square" stroke-linejoin="bevel" stroke-opacity="1" stroke-width="1" transform="matrix(1,0,0,1,7.82813,49)"><text fill="#000000" fill-opacity="1" font-family="Arial, sans-serif" font-size="10" font-style="normal" font-weight="400" stroke="none" textLength="61.5781" x="1" xml:space="preserve" y="11">chip webpage</text></g><defs><clipPath id="clip36"><path d="M0,0 L75,0 L75,15 L0,15 L0,0 z"/></clipPath></defs><g clip-path="url(#clip36)" fill="none" opacity="1" stroke="#000000" stroke-linecap="square" stroke-linejoin="bevel" stroke-opacity="0.74902" stroke-width="1" transform="matrix(1,0,0,1,2,64)"><text fill="#000000" fill-opacity="0.74902" font-family="Arial, sans-serif" font-size="10" font-style="normal" font-weight="400" stroke="none" textLength="73.2344" x="1" xml:space="preserve" y="11">33AK128MC106</text></g></g><!--generated on windows @ 2025-10-13 20:37:00 Romance Daylight Time--></svg>
