<?xml version="1.0" encoding="UTF-8"?><svg width="36.5125mm" height="22.7542mm" viewBox="0 0 138 86" xmlns="http://www.w3.org/2000/svg" xmlns:xlink="http://www.w3.org/1999/xlink"><g fill="none" stroke="black" stroke-width="1" fill-rule="evenodd" stroke-linecap="square" stroke-linejoin="bevel"><g clip-path="none" fill="#ffffff" fill-opacity="1" opacity="1" stroke="none" stroke-opacity="0" transform="matrix(1,0,0,1,0,0)"><path d="M0,0 L138,0 L138,86 L0,86 L0,0 z" fill-rule="evenodd" vector-effect="none"/></g><defs><clipPath id="clip3"><path d="M-2,-2 L136,-2 L136,84 L-2,84 L-2,-2 z"/></clipPath></defs><g clip-path="url(#clip3)" fill="#000000" fill-opacity="0.8" opacity="1" stroke="none" stroke-opacity="0" transform="matrix(1,0,0,1,2,2)"><path d="M134,4 L138,4 L138,69 L4,69 L4,65 L134,65 L134,4 z" fill-rule="evenodd" vector-effect="none"/></g><defs><clipPath id="clip4"><path d="M-2,-2 L136,-2 L136,84 L-2,84 L-2,-2 z"/></clipPath></defs><g clip-path="url(#clip4)" fill="#ffffff" fill-opacity="1" opacity="1" stroke="none" stroke-opacity="0" transform="matrix(1,0,0,1,2,2)"><path d="M0,0 L134,0 L134,65 L0,65 L0,0 z" fill-rule="evenodd" vector-effect="none"/></g><defs><clipPath id="clip8"><path d="M-2,-3 L136,-3 L136,66 L-2,66 L-2,-3 z"/></clipPath></defs><g clip-path="url(#clip8)" fill="none" opacity="1" stroke="#000000" stroke-linecap="butt" stroke-linejoin="miter" stroke-miterlimit="2" stroke-opacity="1" stroke-width="1" transform="matrix(1,0,0,1,2,3)"><text fill="#000000" fill-opacity="1" font-family="Arial, sans-serif" font-size="10" font-style="normal" font-weight="400" stroke="none" textLength="83.7031" x="0" xml:space="preserve" y="10">[Pin]  Port   -  Desc</text></g><defs><clipPath id="clip9"><path d="M-2,-15 L136,-15 L136,54 L-2,54 L-2,-15 z"/></clipPath></defs><g clip-path="url(#clip9)" fill="none" opacity="1" stroke="#000000" stroke-linecap="butt" stroke-linejoin="miter" stroke-miterlimit="2" stroke-opacity="1" stroke-width="1" transform="matrix(1,0,0,1,2,15)"><text fill="#000000" fill-opacity="1" font-family="Arial, sans-serif" font-size="10" font-style="normal" font-weight="400" stroke="none" textLength="53.25" x="0" xml:space="preserve" y="10">No pin used</text></g><defs><clipPath id="clip10"><path d="M-135,-67 L3,-67 L3,2 L-135,2 L-135,-67 z"/></clipPath></defs><g clip-path="url(#clip10)" fill="none" opacity="1" stroke="#000000" stroke-linecap="butt" stroke-linejoin="miter" stroke-miterlimit="2" stroke-opacity="1" stroke-width="1" transform="matrix(1,0,0,1,135,67)"><text fill="#000000" fill-opacity="1" font-family="Arial, sans-serif" font-size="10" font-style="normal" font-weight="400" stroke="none" textLength="33.2813" x="-33.2813" xml:space="preserve" y="-3">(0 pins)</text></g><defs><clipPath id="clip15"><path d="M-2.5,-2.5 L135.5,-2.5 L135.5,83.5 L-2.5,83.5 L-2.5,-2.5 z"/></clipPath></defs><g clip-path="url(#clip15)" fill="none" opacity="1" stroke="#000000" stroke-linecap="butt" stroke-linejoin="miter" stroke-miterlimit="2" stroke-opacity="1" stroke-width="1" transform="matrix(1,0,0,1,2.5,2.5)"><path d="M0,0 L134,0 L134,65 L0,65 L0,0 z" fill-rule="evenodd" vector-effect="none"/></g><defs><clipPath id="clip21"><path d="M0,0 L40,0 L40,15 L0,15 L0,0 z"/></clipPath></defs><g clip-path="url(#clip21)" fill="none" opacity="1" stroke="#000000" stroke-linecap="square" stroke-linejoin="bevel" stroke-opacity="1" stroke-width="1" transform="matrix(1,0,0,1,49.1563,69)"><text fill="#000000" fill-opacity="1" font-family="Arial, sans-serif" font-size="10" font-style="normal" font-weight="400" stroke="none" textLength="37.6875" x="1" xml:space="preserve" y="11">Port Info</text></g></g><!--generated on windows @ 2025-10-13 20:36:35 Romance Daylight Time--></svg>
