<?xml version="1.0" encoding="UTF-8"?><svg width="34.1313mm" height="25.6646mm" viewBox="0 0 129 97" xmlns="http://www.w3.org/2000/svg" xmlns:xlink="http://www.w3.org/1999/xlink"><g fill="none" stroke="black" stroke-width="1" fill-rule="evenodd" stroke-linecap="square" stroke-linejoin="bevel"><g clip-path="none" fill="#ffffff" fill-opacity="1" opacity="1" stroke="none" stroke-opacity="0" transform="matrix(1,0,0,1,0,0)"><path d="M0,0 L129,0 L129,97 L0,97 L0,0 z" fill-rule="evenodd" vector-effect="none"/></g><defs><clipPath id="clip3"><path d="M-2,-2 L127,-2 L127,95 L-2,95 L-2,-2 z"/></clipPath></defs><g clip-path="url(#clip3)" fill="#ffffff" fill-opacity="1" opacity="1" stroke="none" stroke-opacity="0" transform="matrix(1,0,0,1,2,2)"><path d="M0,0 L125,0 L125,76 L0,76 L0,0 z" fill-rule="evenodd" vector-effect="none"/></g><defs><clipPath id="clip7"><path d="M-64,-40 L65,-40 L65,40 L-64,40 L-64,-40 z"/></clipPath></defs><g clip-path="url(#clip7)" fill="none" opacity="1" stroke="#000000" stroke-linecap="butt" stroke-linejoin="miter" stroke-miterlimit="2" stroke-opacity="1" stroke-width="1" transform="matrix(1,0,0,1,64,40)"><text fill="#000000" fill-opacity="1" font-family="Arial, sans-serif" font-size="10" font-style="normal" font-weight="400" stroke="none" textLength="51.5781" x="-25.7813" xml:space="preserve" y="3.5">Tasks State</text></g><defs><clipPath id="clip12"><path d="M-2.5,-2.5 L126.5,-2.5 L126.5,94.5 L-2.5,94.5 L-2.5,-2.5 z"/></clipPath></defs><g clip-path="url(#clip12)" fill="none" opacity="1" stroke="#000000" stroke-linecap="butt" stroke-linejoin="miter" stroke-miterlimit="2" stroke-opacity="1" stroke-width="1" transform="matrix(1,0,0,1,2.5,2.5)"><path d="M0,0 L125,0 L125,76 L0,76 L0,0 z" fill-rule="evenodd" vector-effect="none"/></g><defs><clipPath id="clip18"><path d="M0,0 L54,0 L54,15 L0,15 L0,0 z"/></clipPath></defs><g clip-path="url(#clip18)" fill="none" opacity="1" stroke="#000000" stroke-linecap="square" stroke-linejoin="bevel" stroke-opacity="1" stroke-width="1" transform="matrix(1,0,0,1,37.7109,80)"><text fill="#000000" fill-opacity="1" font-family="Arial, sans-serif" font-size="10" font-style="normal" font-weight="400" stroke="none" textLength="51.5781" x="1" xml:space="preserve" y="11">Tasks State</text></g></g><!--generated on windows @ 2025-10-13 20:32:03 Romance Daylight Time--></svg>
