<?xml version="1.0" encoding="UTF-8"?><svg width="30.1625mm" height="27.7813mm" viewBox="0 0 114 105" xmlns="http://www.w3.org/2000/svg" xmlns:xlink="http://www.w3.org/1999/xlink"><g fill="none" stroke="black" stroke-width="1" fill-rule="evenodd" stroke-linecap="square" stroke-linejoin="bevel"><g clip-path="none" fill="#ffffff" fill-opacity="1" opacity="1" stroke="none" stroke-opacity="0" transform="matrix(1,0,0,1,0,0)"><path d="M0,0 L114,0 L114,105 L0,105 L0,0 z" fill-rule="evenodd" vector-effect="none"/></g><defs><clipPath id="clip3"><path d="M-2,-2 L112,-2 L112,103 L-2,103 L-2,-2 z"/></clipPath></defs><g clip-path="url(#clip3)" fill="#ffffff" fill-opacity="1" opacity="1" stroke="none" stroke-opacity="0" transform="matrix(1,0,0,1,2,2)"><path d="M0,0 L110,0 L110,84 L0,84 L0,0 z" fill-rule="evenodd" vector-effect="none"/></g><defs><clipPath id="clip7"><path d="M-57,-38 L57,-38 L57,50 L-57,50 L-57,-38 z"/></clipPath></defs><g clip-path="url(#clip7)" fill="none" opacity="1" stroke="#000000" stroke-linecap="butt" stroke-linejoin="miter" stroke-miterlimit="2" stroke-opacity="1" stroke-width="1" transform="matrix(1,0,0,1,57,38)"><text fill="#000000" fill-opacity="1" font-family="Arial, sans-serif" font-size="10" font-style="normal" font-weight="400" stroke="none" textLength="25.5156" x="-12.75" xml:space="preserve" y="3.5">No IC</text></g><defs><clipPath id="clip8"><path d="M-57,-50 L57,-50 L57,38 L-57,38 L-57,-50 z"/></clipPath></defs><g clip-path="url(#clip8)" fill="none" opacity="1" stroke="#000000" stroke-linecap="butt" stroke-linejoin="miter" stroke-miterlimit="2" stroke-opacity="1" stroke-width="1" transform="matrix(1,0,0,1,57,50)"><text fill="#000000" fill-opacity="1" font-family="Arial, sans-serif" font-size="10" font-style="normal" font-weight="400" stroke="none" textLength="40.3125" x="-20.1563" xml:space="preserve" y="3.5">Available</text></g><defs><clipPath id="clip13"><path d="M-2.5,-2.5 L111.5,-2.5 L111.5,102.5 L-2.5,102.5 L-2.5,-2.5 z"/></clipPath></defs><g clip-path="url(#clip13)" fill="none" opacity="1" stroke="#000000" stroke-linecap="butt" stroke-linejoin="miter" stroke-miterlimit="2" stroke-opacity="1" stroke-width="1" transform="matrix(1,0,0,1,2.5,2.5)"><path d="M0,0 L110,0 L110,84 L0,84 L0,0 z" fill-rule="evenodd" vector-effect="none"/></g><defs><clipPath id="clip19"><path d="M0,0 L62,0 L62,15 L0,15 L0,0 z"/></clipPath></defs><g clip-path="url(#clip19)" fill="none" opacity="1" stroke="#000000" stroke-linecap="square" stroke-linejoin="bevel" stroke-opacity="1" stroke-width="1" transform="matrix(1,0,0,1,25.7813,88)"><text fill="#000000" fill-opacity="1" font-family="Arial, sans-serif" font-size="10" font-style="normal" font-weight="400" stroke="none" textLength="60.4375" x="1" xml:space="preserve" y="11">Input Capture</text></g></g><!--generated on windows @ 2025-10-13 20:32:30 Romance Daylight Time--></svg>
