<?xml version="1.0" encoding="UTF-8"?><svg width="51.3292mm" height="28.575mm" viewBox="0 0 194 108" xmlns="http://www.w3.org/2000/svg" xmlns:xlink="http://www.w3.org/1999/xlink"><g fill="none" stroke="black" stroke-width="1" fill-rule="evenodd" stroke-linecap="square" stroke-linejoin="bevel"><g clip-path="none" fill="#ffffff" fill-opacity="1" opacity="1" stroke="none" stroke-opacity="0" transform="matrix(1,0,0,1,0,0)"><path d="M0,0 L194,0 L194,108 L0,108 L0,0 z" fill-rule="evenodd" vector-effect="none"/></g><defs><clipPath id="clip3"><path d="M7,23 L-187,23 L-187,-85 L7,-85 L7,23 z"/></clipPath></defs><g clip-path="url(#clip3)" fill="none" opacity="1" stroke="#000000" stroke-linecap="round" stroke-linejoin="miter" stroke-miterlimit="2" stroke-opacity="1" stroke-width="2" transform="matrix(-1,0,0,-1,7,23)"><path d="M4.5,-5.5 L-0.5,-0.5 L4.5,4.5" fill-rule="evenodd" vector-effect="none"/></g><defs><clipPath id="clip6"><path d="M7,68 L-187,68 L-187,-40 L7,-40 L7,68 z"/></clipPath></defs><g clip-path="url(#clip6)" fill="none" opacity="1" stroke="#000000" stroke-linecap="round" stroke-linejoin="miter" stroke-miterlimit="2" stroke-opacity="1" stroke-width="2" transform="matrix(-1,0,0,-1,7,68)"><path d="M4.5,-5.5 L-0.5,-0.5 L4.5,4.5" fill-rule="evenodd" vector-effect="none"/></g><defs><clipPath id="clip9"><path d="M-7,-2 L187,-2 L187,106 L-7,106 L-7,-2 z"/></clipPath></defs><g clip-path="url(#clip9)" fill="#ffffff" fill-opacity="1" opacity="1" stroke="none" stroke-opacity="0" transform="matrix(1,0,0,1,7,2)"><path d="M0,0 L185,0 L185,87 L0,87 L0,0 z" fill-rule="evenodd" vector-effect="none"/></g><defs><clipPath id="clip13"><path d="M-94,-39 L95,-39 L95,52 L-94,52 L-94,-39 z"/></clipPath></defs><g clip-path="url(#clip13)" fill="none" opacity="1" stroke="#000000" stroke-linecap="butt" stroke-linejoin="miter" stroke-miterlimit="2" stroke-opacity="1" stroke-width="1" transform="matrix(1,0,0,1,99,39)"><text fill="#000000" fill-opacity="1" font-family="Arial, sans-serif" font-size="10" font-style="normal" font-weight="400" stroke="none" textLength="59.375" x="-29.6875" xml:space="preserve" y="3.5">PWM SAMx7</text></g><defs><clipPath id="clip14"><path d="M-94,-51 L95,-51 L95,40 L-94,40 L-94,-51 z"/></clipPath></defs><g clip-path="url(#clip14)" fill="none" opacity="1" stroke="#000000" stroke-linecap="butt" stroke-linejoin="miter" stroke-miterlimit="2" stroke-opacity="1" stroke-width="1" transform="matrix(1,0,0,1,99,51)"><text fill="#000000" fill-opacity="1" font-family="Arial, sans-serif" font-size="10" font-style="normal" font-weight="400" stroke="none" textLength="54.3438" x="-27.1719" xml:space="preserve" y="3.5"> Controller 0</text></g><defs><clipPath id="clip15"><path d="M-5,-23 L184,-23 L184,68 L-5,68 L-5,-23 z"/></clipPath></defs><g clip-path="url(#clip15)" fill="none" opacity="1" stroke="#000000" stroke-linecap="butt" stroke-linejoin="miter" stroke-miterlimit="2" stroke-opacity="1" stroke-width="1" transform="matrix(1,0,0,1,10,23)"><text fill="#000000" fill-opacity="1" font-family="Arial, sans-serif" font-size="10" font-style="normal" font-weight="400" stroke="none" textLength="28.8438" x="0" xml:space="preserve" y="3.5">Period</text></g><defs><clipPath id="clip16"><path d="M-5,-68 L184,-68 L184,23 L-5,23 L-5,-68 z"/></clipPath></defs><g clip-path="url(#clip16)" fill="none" opacity="1" stroke="#000000" stroke-linecap="butt" stroke-linejoin="miter" stroke-miterlimit="2" stroke-opacity="1" stroke-width="1" transform="matrix(1,0,0,1,10,68)"><text fill="#000000" fill-opacity="1" font-family="Arial, sans-serif" font-size="10" font-style="normal" font-weight="400" stroke="none" textLength="73.2188" x="0" xml:space="preserve" y="3.5">DutyCycle[0 1 2]</text></g><defs><clipPath id="clip21"><path d="M-7.5,-2.5 L186.5,-2.5 L186.5,105.5 L-7.5,105.5 L-7.5,-2.5 z"/></clipPath></defs><g clip-path="url(#clip21)" fill="none" opacity="1" stroke="#000000" stroke-linecap="butt" stroke-linejoin="miter" stroke-miterlimit="2" stroke-opacity="1" stroke-width="1" transform="matrix(1,0,0,1,7.5,2.5)"><path d="M0,0 L185,0 L185,87 L0,87 L0,0 z" fill-rule="evenodd" vector-effect="none"/></g><defs><clipPath id="clip27"><path d="M0,0 L61,0 L61,15 L0,15 L0,0 z"/></clipPath></defs><g clip-path="url(#clip27)" fill="none" opacity="1" stroke="#000000" stroke-linecap="square" stroke-linejoin="bevel" stroke-opacity="1" stroke-width="1" transform="matrix(1,0,0,1,68.8125,91)"><text fill="#000000" fill-opacity="1" font-family="Arial, sans-serif" font-size="10" font-style="normal" font-weight="400" stroke="none" textLength="59.375" x="1" xml:space="preserve" y="11">PWM SAM7x</text></g></g><!--generated on windows @ 2025-10-13 20:59:14 Romance Daylight Time--></svg>
