<?xml version="1.0" encoding="UTF-8"?><svg width="48.6833mm" height="38.6292mm" viewBox="0 0 184 146" xmlns="http://www.w3.org/2000/svg" xmlns:xlink="http://www.w3.org/1999/xlink"><g fill="none" stroke="black" stroke-width="1" fill-rule="evenodd" stroke-linecap="square" stroke-linejoin="bevel"><g clip-path="none" fill="#ffffff" fill-opacity="1" opacity="1" stroke="none" stroke-opacity="0" transform="matrix(1,0,0,1,0,0)"><path d="M0,0 L184,0 L184,146 L0,146 L0,0 z" fill-rule="evenodd" vector-effect="none"/></g><defs><clipPath id="clip3"><path d="M-2,-2 L182,-2 L182,144 L-2,144 L-2,-2 z"/></clipPath></defs><g clip-path="url(#clip3)" fill="#ffffff" fill-opacity="1" opacity="1" stroke="none" stroke-opacity="0" transform="matrix(1,0,0,1,2,2)"><path d="M0,0 L180,0 L180,112 L0,112 L0,0 z" fill-rule="evenodd" vector-effect="none"/></g><defs><clipPath id="clip7"><path d="M-92,-58 L92,-58 L92,58 L-92,58 L-92,-58 z"/></clipPath></defs><g clip-path="url(#clip7)" fill="none" opacity="1" stroke="#000000" stroke-linecap="butt" stroke-linejoin="miter" stroke-miterlimit="2" stroke-opacity="1" stroke-width="1" transform="matrix(1,0,0,1,92,58)"><text fill="#000000" fill-opacity="1" font-family="Arial, sans-serif" font-size="10" font-style="normal" font-weight="400" stroke="none" textLength="99.8438" x="-49.9219" xml:space="preserve" y="3.5">PWM HS not available</text></g><defs><clipPath id="clip12"><path d="M-2.5,-2.5 L181.5,-2.5 L181.5,143.5 L-2.5,143.5 L-2.5,-2.5 z"/></clipPath></defs><g clip-path="url(#clip12)" fill="none" opacity="1" stroke="#000000" stroke-linecap="butt" stroke-linejoin="miter" stroke-miterlimit="2" stroke-opacity="1" stroke-width="1" transform="matrix(1,0,0,1,2.5,2.5)"><path d="M0,0 L180,0 L180,112 L0,112 L0,0 z" fill-rule="evenodd" vector-effect="none"/></g><defs><clipPath id="clip18"><path d="M0,0 L73,0 L73,28 L0,28 L0,0 z"/></clipPath></defs><g clip-path="url(#clip18)" fill="none" opacity="1" stroke="#000000" stroke-linecap="square" stroke-linejoin="bevel" stroke-opacity="1" stroke-width="1" transform="matrix(1,0,0,1,55.5078,116)"><text fill="#000000" fill-opacity="1" font-family="Arial, sans-serif" font-size="10" font-style="normal" font-weight="400" stroke="none" textLength="41.0625" x="15.9531" xml:space="preserve" y="11">PWM HS</text><text fill="#000000" fill-opacity="1" font-family="Arial, sans-serif" font-size="10" font-style="normal" font-weight="400" stroke="none" textLength="70.9844" x="1" xml:space="preserve" y="24">Output Override</text></g></g><!--generated on windows @ 2025-10-13 20:58:47 Romance Daylight Time--></svg>
