<?xml version="1.0" encoding="UTF-8"?><svg width="42.3333mm" height="26.7229mm" viewBox="0 0 160 101" xmlns="http://www.w3.org/2000/svg" xmlns:xlink="http://www.w3.org/1999/xlink"><g fill="none" stroke="black" stroke-width="1" fill-rule="evenodd" stroke-linecap="square" stroke-linejoin="bevel"><g clip-path="none" fill="#ffffff" fill-opacity="1" opacity="1" stroke="none" stroke-opacity="0" transform="matrix(1,0,0,1,0,0)"><path d="M0,0 L159.992,0 L159.992,101 L0,101 L0,0 z" fill-rule="evenodd" vector-effect="none"/></g><defs><clipPath id="clip3"><path d="M7,17 L-152.992,17 L-152.992,-84 L7,-84 L7,17 z"/></clipPath></defs><g clip-path="url(#clip3)" fill="none" opacity="1" stroke="#000000" stroke-linecap="round" stroke-linejoin="miter" stroke-miterlimit="2" stroke-opacity="1" stroke-width="2" transform="matrix(-1,0,0,-1,7,17)"><path d="M4.5,-5.5 L-0.5,-0.5 L4.5,4.5" fill-rule="evenodd" vector-effect="none"/></g><defs><clipPath id="clip6"><path d="M7,42 L-152.992,42 L-152.992,-59 L7,-59 L7,42 z"/></clipPath></defs><g clip-path="url(#clip6)" fill="none" opacity="1" stroke="#000000" stroke-linecap="round" stroke-linejoin="miter" stroke-miterlimit="2" stroke-opacity="1" stroke-width="2" transform="matrix(-1,0,0,-1,7,42)"><path d="M4.5,-5.5 L-0.5,-0.5 L4.5,4.5" fill-rule="evenodd" vector-effect="none"/></g><defs><clipPath id="clip9"><path d="M7,67 L-152.992,67 L-152.992,-34 L7,-34 L7,67 z"/></clipPath></defs><g clip-path="url(#clip9)" fill="none" opacity="1" stroke="#000000" stroke-linecap="round" stroke-linejoin="miter" stroke-miterlimit="2" stroke-opacity="1" stroke-width="2" transform="matrix(-1,0,0,-1,7,67)"><path d="M4.5,-5.5 L-0.5,-0.5 L4.5,4.5" fill-rule="evenodd" vector-effect="none"/></g><defs><clipPath id="clip12"><path d="M-7,-2 L152.992,-2 L152.992,99 L-7,99 L-7,-2 z"/></clipPath></defs><g clip-path="url(#clip12)" fill="#ffffff" fill-opacity="1" opacity="1" stroke="none" stroke-opacity="0" transform="matrix(1,0,0,1,7,2)"><path d="M0,0 L150,0 L150,80 L0,80 L0,0 z" fill-rule="evenodd" vector-effect="none"/></g><defs><clipPath id="clip16"><path d="M-77,-42 L77,-42 L77,42 L-77,42 L-77,-42 z"/></clipPath></defs><g clip-path="url(#clip16)" fill="none" opacity="1" stroke="#000000" stroke-linecap="butt" stroke-linejoin="miter" stroke-miterlimit="2" stroke-opacity="1" stroke-width="1" transform="matrix(1,0,0,1,82,42)"><text fill="#000000" fill-opacity="1" font-family="Arial, sans-serif" font-size="10" font-style="normal" font-weight="400" stroke="none" textLength="76.5313" x="-38.2656" xml:space="preserve" y="3.5">MSI not available</text></g><defs><clipPath id="clip21"><path d="M-7.5,-2.5 L152.492,-2.5 L152.492,98.5 L-7.5,98.5 L-7.5,-2.5 z"/></clipPath></defs><g clip-path="url(#clip21)" fill="none" opacity="1" stroke="#000000" stroke-linecap="butt" stroke-linejoin="miter" stroke-miterlimit="2" stroke-opacity="1" stroke-width="1" transform="matrix(1,0,0,1,7.5,2.5)"><path d="M0,0 L150,0 L150,80 L0,80 L0,0 z" fill-rule="evenodd" vector-effect="none"/></g><defs><clipPath id="clip27"><path d="M0,0 L152,0 L152,15 L0,15 L0,0 z"/></clipPath></defs><g clip-path="url(#clip27)" fill="none" opacity="1" stroke="#000000" stroke-linecap="square" stroke-linejoin="bevel" stroke-opacity="1" stroke-width="1" transform="matrix(1,0,0,1,6.00781,84)"><text fill="#000000" fill-opacity="1" font-family="Arial, sans-serif" font-size="10" font-style="normal" font-weight="400" stroke="none" textLength="149.984" x="1" xml:space="preserve" y="11">MAIN-SECONDARY INTERFACE</text></g></g><!--generated on windows @ 2025-10-13 20:57:45 Romance Daylight Time--></svg>
