<?xml version="1.0" encoding="UTF-8"?><svg width="31.4854mm" height="21.9604mm" viewBox="0 0 119 83" xmlns="http://www.w3.org/2000/svg" xmlns:xlink="http://www.w3.org/1999/xlink"><g fill="none" stroke="black" stroke-width="1" fill-rule="evenodd" stroke-linecap="square" stroke-linejoin="bevel"><g clip-path="none" fill="#ffffff" fill-opacity="1" opacity="1" stroke="none" stroke-opacity="0" transform="matrix(1,0,0,1,0,0)"><path d="M0,0 L119,0 L119,83 L0,83 L0,0 z" fill-rule="evenodd" vector-effect="none"/></g><defs><clipPath id="clip3"><path d="M-2,-2 L117,-2 L117,81 L-2,81 L-2,-2 z"/></clipPath></defs><g clip-path="url(#clip3)" fill="#000000" fill-opacity="0.8" opacity="1" stroke="none" stroke-opacity="0" transform="matrix(1,0,0,1,2,2)"><path d="M115,4 L119,4 L119,53 L4,53 L4,49 L115,49 L115,4 z" fill-rule="evenodd" vector-effect="none"/></g><defs><clipPath id="clip4"><path d="M-2,-2 L117,-2 L117,81 L-2,81 L-2,-2 z"/></clipPath></defs><g clip-path="url(#clip4)" fill="#ffffff" fill-opacity="1" opacity="1" stroke="none" stroke-opacity="0" transform="matrix(1,0,0,1,2,2)"><path d="M0,0 L115,0 L115,49 L0,49 L0,0 z" fill-rule="evenodd" vector-effect="none"/></g><defs><clipPath id="clip8"><path d="M-59,-14 L60,-14 L60,39 L-59,39 L-59,-14 z"/></clipPath></defs><g clip-path="url(#clip8)" fill="none" opacity="1" stroke="#000000" stroke-linecap="butt" stroke-linejoin="miter" stroke-miterlimit="2" stroke-opacity="1" stroke-width="1" transform="matrix(1,0,0,1,59,14)"><text fill="#000000" fill-opacity="1" font-family="Arial, sans-serif" font-size="10" font-style="normal" font-weight="400" stroke="none" textLength="38.8125" x="-19.4063" xml:space="preserve" y="3.5">Interface</text></g><defs><clipPath id="clip9"><path d="M-59,-26 L60,-26 L60,27 L-59,27 L-59,-26 z"/></clipPath></defs><g clip-path="url(#clip9)" fill="none" opacity="1" stroke="#000000" stroke-linecap="butt" stroke-linejoin="miter" stroke-miterlimit="2" stroke-opacity="1" stroke-width="1" transform="matrix(1,0,0,1,59,26)"><text fill="#000000" fill-opacity="1" font-family="Arial, sans-serif" font-size="10" font-style="normal" font-weight="400" stroke="none" textLength="44.375" x="-22.1875" xml:space="preserve" y="3.5">Tx-Matlab</text></g><defs><clipPath id="clip10"><path d="M-59,-38 L60,-38 L60,15 L-59,15 L-59,-38 z"/></clipPath></defs><g clip-path="url(#clip10)" fill="none" opacity="1" stroke="#000000" stroke-linecap="butt" stroke-linejoin="miter" stroke-miterlimit="2" stroke-opacity="1" stroke-width="1" transform="matrix(1,0,0,1,59,38)"><text fill="#000000" fill-opacity="1" font-family="Arial, sans-serif" font-size="10" font-style="normal" font-weight="400" stroke="none" textLength="37.7344" x="-18.8594" xml:space="preserve" y="3.5">&gt;&gt;picgui</text></g><defs><clipPath id="clip15"><path d="M-2.5,-2.5 L116.5,-2.5 L116.5,80.5 L-2.5,80.5 L-2.5,-2.5 z"/></clipPath></defs><g clip-path="url(#clip15)" fill="none" opacity="1" stroke="#000000" stroke-linecap="butt" stroke-linejoin="miter" stroke-miterlimit="2" stroke-opacity="1" stroke-width="1" transform="matrix(1,0,0,1,2.5,2.5)"><path d="M0,0 L115,0 L115,49 L0,49 L0,0 z" fill-rule="evenodd" vector-effect="none"/></g><defs><clipPath id="clip21"><path d="M0,0 L86,0 L86,28 L0,28 L0,0 z"/></clipPath></defs><g clip-path="url(#clip21)" fill="none" opacity="1" stroke="#000000" stroke-linecap="square" stroke-linejoin="bevel" stroke-opacity="1" stroke-width="1" transform="matrix(1,0,0,1,16.625,53)"><text fill="#000000" fill-opacity="1" font-family="Arial, sans-serif" font-size="10" font-style="normal" font-weight="400" stroke="none" textLength="26.0781" x="29.8281" xml:space="preserve" y="11">picgui</text><text fill="#000000" fill-opacity="1" font-family="Arial, sans-serif" font-size="10" font-style="normal" font-weight="400" stroke="none" textLength="83.75" x="1" xml:space="preserve" y="24">Graphical interface</text></g></g><!--generated on windows @ 2025-10-13 20:56:29 Romance Daylight Time--></svg>
