<?xml version="1.0" encoding="UTF-8"?><svg width="59.2667mm" height="25.1354mm" viewBox="0 0 224 95" xmlns="http://www.w3.org/2000/svg" xmlns:xlink="http://www.w3.org/1999/xlink"><g fill="none" stroke="black" stroke-width="1" fill-rule="evenodd" stroke-linecap="square" stroke-linejoin="bevel"><g clip-path="none" fill="#ffffff" fill-opacity="1" opacity="1" stroke="none" stroke-opacity="0" transform="matrix(1,0,0,1,0,0)"><path d="M0,0 L224,0 L224,95 L0,95 L0,0 z" fill-rule="evenodd" vector-effect="none"/></g><defs><clipPath id="clip3"><path d="M-217,-14 L7,-14 L7,81 L-217,81 L-217,-14 z"/></clipPath></defs><g clip-path="url(#clip3)" fill="none" opacity="1" stroke="#000000" stroke-linecap="round" stroke-linejoin="miter" stroke-miterlimit="2" stroke-opacity="1" stroke-width="2" transform="matrix(1,0,0,1,217,14)"><path d="M0.5,-4.5 L5.5,0.5 L0.5,5.5" fill-rule="evenodd" vector-effect="none"/></g><defs><clipPath id="clip6"><path d="M-217,-39 L7,-39 L7,56 L-217,56 L-217,-39 z"/></clipPath></defs><g clip-path="url(#clip6)" fill="none" opacity="1" stroke="#000000" stroke-linecap="round" stroke-linejoin="miter" stroke-miterlimit="2" stroke-opacity="1" stroke-width="2" transform="matrix(1,0,0,1,217,39)"><path d="M0.5,-4.5 L5.5,0.5 L0.5,5.5" fill-rule="evenodd" vector-effect="none"/></g><defs><clipPath id="clip9"><path d="M-217,-64 L7,-64 L7,31 L-217,31 L-217,-64 z"/></clipPath></defs><g clip-path="url(#clip9)" fill="none" opacity="1" stroke="#000000" stroke-linecap="round" stroke-linejoin="miter" stroke-miterlimit="2" stroke-opacity="1" stroke-width="2" transform="matrix(1,0,0,1,217,64)"><path d="M0.5,-4.5 L5.5,0.5 L0.5,5.5" fill-rule="evenodd" vector-effect="none"/></g><defs><clipPath id="clip12"><path d="M-2,-2 L222,-2 L222,93 L-2,93 L-2,-2 z"/></clipPath></defs><g clip-path="url(#clip12)" fill="#ffffff" fill-opacity="1" opacity="1" stroke="none" stroke-opacity="0" transform="matrix(1,0,0,1,2,2)"><path d="M0,0 L215,0 L215,74 L0,74 L0,0 z" fill-rule="evenodd" vector-effect="none"/></g><defs><clipPath id="clip16"><path d="M-109,-33 L110,-33 L110,45 L-109,45 L-109,-33 z"/></clipPath></defs><g clip-path="url(#clip16)" fill="none" opacity="1" stroke="#000000" stroke-linecap="butt" stroke-linejoin="miter" stroke-miterlimit="2" stroke-opacity="1" stroke-width="1" transform="matrix(1,0,0,1,109,33)"><text fill="#000000" fill-opacity="1" font-family="Arial, sans-serif" font-size="10" font-style="normal" font-weight="400" stroke="none" textLength="37.7344" x="-18.8594" xml:space="preserve" y="3.5">MCAN 1</text></g><defs><clipPath id="clip17"><path d="M-109,-45 L110,-45 L110,33 L-109,33 L-109,-45 z"/></clipPath></defs><g clip-path="url(#clip17)" fill="none" opacity="1" stroke="#000000" stroke-linecap="butt" stroke-linejoin="miter" stroke-miterlimit="2" stroke-opacity="1" stroke-width="1" transform="matrix(1,0,0,1,109,45)"><text fill="#000000" fill-opacity="1" font-family="Arial, sans-serif" font-size="10" font-style="normal" font-weight="400" stroke="none" textLength="12.2188" x="-6.10938" xml:space="preserve" y="3.5">Rx</text></g><defs><clipPath id="clip18"><path d="M-214,-14 L5,-14 L5,64 L-214,64 L-214,-14 z"/></clipPath></defs><g clip-path="url(#clip18)" fill="none" opacity="1" stroke="#000000" stroke-linecap="butt" stroke-linejoin="miter" stroke-miterlimit="2" stroke-opacity="1" stroke-width="1" transform="matrix(1,0,0,1,214,14)"><text fill="#000000" fill-opacity="1" font-family="Arial, sans-serif" font-size="10" font-style="normal" font-weight="400" stroke="none" textLength="28.8594" x="-28.8594" xml:space="preserve" y="3.5">MsgID</text></g><defs><clipPath id="clip19"><path d="M-214,-39 L5,-39 L5,39 L-214,39 L-214,-39 z"/></clipPath></defs><g clip-path="url(#clip19)" fill="none" opacity="1" stroke="#000000" stroke-linecap="butt" stroke-linejoin="miter" stroke-miterlimit="2" stroke-opacity="1" stroke-width="1" transform="matrix(1,0,0,1,214,39)"><text fill="#000000" fill-opacity="1" font-family="Arial, sans-serif" font-size="10" font-style="normal" font-weight="400" stroke="none" textLength="35.5156" x="-35.5156" xml:space="preserve" y="3.5">MsgLen</text></g><defs><clipPath id="clip20"><path d="M-214,-64 L5,-64 L5,14 L-214,14 L-214,-64 z"/></clipPath></defs><g clip-path="url(#clip20)" fill="none" opacity="1" stroke="#000000" stroke-linecap="butt" stroke-linejoin="miter" stroke-miterlimit="2" stroke-opacity="1" stroke-width="1" transform="matrix(1,0,0,1,214,64)"><text fill="#000000" fill-opacity="1" font-family="Arial, sans-serif" font-size="10" font-style="normal" font-weight="400" stroke="none" textLength="23.2969" x="-23.2969" xml:space="preserve" y="3.5">Rx[8]</text></g><defs><clipPath id="clip25"><path d="M-2.5,-2.5 L221.5,-2.5 L221.5,92.5 L-2.5,92.5 L-2.5,-2.5 z"/></clipPath></defs><g clip-path="url(#clip25)" fill="none" opacity="1" stroke="#000000" stroke-linecap="butt" stroke-linejoin="miter" stroke-miterlimit="2" stroke-opacity="1" stroke-width="1" transform="matrix(1,0,0,1,2.5,2.5)"><path d="M0,0 L215,0 L215,74 L0,74 L0,0 z" fill-rule="evenodd" vector-effect="none"/></g><defs><clipPath id="clip31"><path d="M0,0 L41,0 L41,15 L0,15 L0,0 z"/></clipPath></defs><g clip-path="url(#clip31)" fill="none" opacity="1" stroke="#000000" stroke-linecap="square" stroke-linejoin="bevel" stroke-opacity="1" stroke-width="1" transform="matrix(1,0,0,1,89.0703,78)"><text fill="#000000" fill-opacity="1" font-family="Arial, sans-serif" font-size="10" font-style="normal" font-weight="400" stroke="none" textLength="38.8594" x="1" xml:space="preserve" y="11">CAN_Rx</text></g></g><!--generated on windows @ 2025-10-13 21:04:43 Romance Daylight Time--></svg>
