<?xml version="1.0" encoding="UTF-8"?><svg width="50.0062mm" height="24.6062mm" viewBox="0 0 189 93" xmlns="http://www.w3.org/2000/svg" xmlns:xlink="http://www.w3.org/1999/xlink"><g fill="none" stroke="black" stroke-width="1" fill-rule="evenodd" stroke-linecap="square" stroke-linejoin="bevel"><g clip-path="none" fill="#ffffff" fill-opacity="1" opacity="1" stroke="none" stroke-opacity="0" transform="matrix(1,0,0,1,0,0)"><path d="M0,0 L189,0 L189,93 L0,93 L0,0 z" fill-rule="evenodd" vector-effect="none"/></g><defs><clipPath id="clip3"><path d="M-182,-38 L7,-38 L7,55 L-182,55 L-182,-38 z"/></clipPath></defs><g clip-path="url(#clip3)" fill="none" opacity="1" stroke="#000000" stroke-linecap="round" stroke-linejoin="miter" stroke-miterlimit="2" stroke-opacity="1" stroke-width="2" transform="matrix(1,0,0,1,182,38)"><path d="M0.5,-4.5 L5.5,0.5 L0.5,5.5" fill-rule="evenodd" vector-effect="none"/></g><defs><clipPath id="clip6"><path d="M-2,-2 L187,-2 L187,91 L-2,91 L-2,-2 z"/></clipPath></defs><g clip-path="url(#clip6)" fill="#ffffff" fill-opacity="1" opacity="1" stroke="none" stroke-opacity="0" transform="matrix(1,0,0,1,2,2)"><path d="M0,0 L180,0 L180,72 L0,72 L0,0 z" fill-rule="evenodd" vector-effect="none"/></g><defs><clipPath id="clip10"><path d="M-92,-32 L92,-32 L92,44 L-92,44 L-92,-32 z"/></clipPath></defs><g clip-path="url(#clip10)" fill="none" opacity="1" stroke="#000000" stroke-linecap="butt" stroke-linejoin="miter" stroke-miterlimit="2" stroke-opacity="1" stroke-width="1" transform="matrix(1,0,0,1,92,32)"><text fill="#000000" fill-opacity="1" font-family="Arial, sans-serif" font-size="10" font-style="normal" font-weight="400" stroke="none" textLength="61.5781" x="-30.7813" xml:space="preserve" y="3.5">AFEC SAMx7</text></g><defs><clipPath id="clip11"><path d="M-92,-44 L92,-44 L92,32 L-92,32 L-92,-44 z"/></clipPath></defs><g clip-path="url(#clip11)" fill="none" opacity="1" stroke="#000000" stroke-linecap="butt" stroke-linejoin="miter" stroke-miterlimit="2" stroke-opacity="1" stroke-width="1" transform="matrix(1,0,0,1,92,44)"><text fill="#000000" fill-opacity="1" font-family="Arial, sans-serif" font-size="10" font-style="normal" font-weight="400" stroke="none" textLength="54.3438" x="-27.1719" xml:space="preserve" y="3.5"> Controller 0</text></g><defs><clipPath id="clip12"><path d="M-179,-38 L5,-38 L5,38 L-179,38 L-179,-38 z"/></clipPath></defs><g clip-path="url(#clip12)" fill="none" opacity="1" stroke="#000000" stroke-linecap="butt" stroke-linejoin="miter" stroke-miterlimit="2" stroke-opacity="1" stroke-width="1" transform="matrix(1,0,0,1,179,38)"><text fill="#000000" fill-opacity="1" font-family="Arial, sans-serif" font-size="10" font-style="normal" font-weight="400" stroke="none" textLength="24.9688" x="-24.9688" xml:space="preserve" y="3.5">PD30</text></g><defs><clipPath id="clip17"><path d="M-2.5,-2.5 L186.5,-2.5 L186.5,90.5 L-2.5,90.5 L-2.5,-2.5 z"/></clipPath></defs><g clip-path="url(#clip17)" fill="none" opacity="1" stroke="#000000" stroke-linecap="butt" stroke-linejoin="miter" stroke-miterlimit="2" stroke-opacity="1" stroke-width="1" transform="matrix(1,0,0,1,2.5,2.5)"><path d="M0,0 L180,0 L180,72 L0,72 L0,0 z" fill-rule="evenodd" vector-effect="none"/></g><defs><clipPath id="clip23"><path d="M0,0 L58,0 L58,15 L0,15 L0,0 z"/></clipPath></defs><g clip-path="url(#clip23)" fill="none" opacity="1" stroke="#000000" stroke-linecap="square" stroke-linejoin="bevel" stroke-opacity="1" stroke-width="1" transform="matrix(1,0,0,1,62.9766,76)"><text fill="#000000" fill-opacity="1" font-family="Arial, sans-serif" font-size="10" font-style="normal" font-weight="400" stroke="none" textLength="56.0469" x="1" xml:space="preserve" y="11">ADC SAMx7</text></g></g><!--generated on windows @ 2025-10-13 21:02:05 Romance Daylight Time--></svg>
