<?xml version="1.0" encoding="UTF-8"?><svg width="35.4542mm" height="25.6646mm" viewBox="0 0 134 97" xmlns="http://www.w3.org/2000/svg" xmlns:xlink="http://www.w3.org/1999/xlink"><g fill="none" stroke="black" stroke-width="1" fill-rule="evenodd" stroke-linecap="square" stroke-linejoin="bevel"><g clip-path="none" fill="#ffffff" fill-opacity="1" opacity="1" stroke="none" stroke-opacity="0" transform="matrix(1,0,0,1,0,0)"><path d="M0,0 L134,0 L134,97 L0,97 L0,0 z" fill-rule="evenodd" vector-effect="none"/></g><defs><clipPath id="clip3"><path d="M-127,-40 L7,-40 L7,57 L-127,57 L-127,-40 z"/></clipPath></defs><g clip-path="url(#clip3)" fill="none" opacity="1" stroke="#000000" stroke-linecap="round" stroke-linejoin="miter" stroke-miterlimit="2" stroke-opacity="1" stroke-width="2" transform="matrix(1,0,0,1,127,40)"><path d="M0.5,-4.5 L5.5,0.5 L0.5,5.5" fill-rule="evenodd" vector-effect="none"/></g><defs><clipPath id="clip6"><path d="M-2,-2 L132,-2 L132,95 L-2,95 L-2,-2 z"/></clipPath></defs><g clip-path="url(#clip6)" fill="#ffffff" fill-opacity="1" opacity="1" stroke="none" stroke-opacity="0" transform="matrix(1,0,0,1,2,2)"><path d="M0,0 L125,0 L125,76 L0,76 L0,0 z" fill-rule="evenodd" vector-effect="none"/></g><defs><clipPath id="clip10"><path d="M-64,-40 L65,-40 L65,40 L-64,40 L-64,-40 z"/></clipPath></defs><g clip-path="url(#clip10)" fill="none" opacity="1" stroke="#000000" stroke-linecap="butt" stroke-linejoin="miter" stroke-miterlimit="2" stroke-opacity="1" stroke-width="1" transform="matrix(1,0,0,1,64,40)"><text fill="#000000" fill-opacity="1" font-family="Arial, sans-serif" font-size="10" font-style="normal" font-weight="400" stroke="none" textLength="72.6875" x="-36.3438" xml:space="preserve" y="3.5">MCU Over-Load</text></g><defs><clipPath id="clip11"><path d="M-124,-40 L5,-40 L5,40 L-124,40 L-124,-40 z"/></clipPath></defs><g clip-path="url(#clip11)" fill="none" opacity="1" stroke="#000000" stroke-linecap="butt" stroke-linejoin="miter" stroke-miterlimit="2" stroke-opacity="1" stroke-width="1" transform="matrix(1,0,0,1,124,40)"><text fill="#000000" fill-opacity="1" font-family="Arial, sans-serif" font-size="10" font-style="normal" font-weight="400" stroke="none" textLength="2.76563" x="-2.76563" xml:space="preserve" y="3.5"> </text></g><defs><clipPath id="clip16"><path d="M-2.5,-2.5 L131.5,-2.5 L131.5,94.5 L-2.5,94.5 L-2.5,-2.5 z"/></clipPath></defs><g clip-path="url(#clip16)" fill="none" opacity="1" stroke="#000000" stroke-linecap="butt" stroke-linejoin="miter" stroke-miterlimit="2" stroke-opacity="1" stroke-width="1" transform="matrix(1,0,0,1,2.5,2.5)"><path d="M0,0 L125,0 L125,76 L0,76 L0,0 z" fill-rule="evenodd" vector-effect="none"/></g><defs><clipPath id="clip22"><path d="M0,0 L68,0 L68,15 L0,15 L0,0 z"/></clipPath></defs><g clip-path="url(#clip22)" fill="none" opacity="1" stroke="#000000" stroke-linecap="square" stroke-linejoin="bevel" stroke-opacity="1" stroke-width="1" transform="matrix(1,0,0,1,30.4844,80)"><text fill="#000000" fill-opacity="1" font-family="Arial, sans-serif" font-size="10" font-style="normal" font-weight="400" stroke="none" textLength="66.0313" x="1" xml:space="preserve" y="11">MCU Overload</text></g></g><!--generated on windows @ 2025-10-13 20:31:33 Romance Daylight Time--></svg>
