<?xml version="1.0" encoding="UTF-8"?><svg width="28.8396mm" height="20.3729mm" viewBox="0 0 109 77" xmlns="http://www.w3.org/2000/svg" xmlns:xlink="http://www.w3.org/1999/xlink"><g fill="none" stroke="black" stroke-width="1" fill-rule="evenodd" stroke-linecap="square" stroke-linejoin="bevel"><g clip-path="none" fill="#ffffff" fill-opacity="1" opacity="1" stroke="none" stroke-opacity="0" transform="matrix(1,0,0,1,0,0)"><path d="M0,0 L109,0 L109,77 L0,77 L0,0 z" fill-rule="evenodd" vector-effect="none"/></g><defs><clipPath id="clip3"><path d="M-102,-30 L7,-30 L7,47 L-102,47 L-102,-30 z"/></clipPath></defs><g clip-path="url(#clip3)" fill="none" opacity="1" stroke="#000000" stroke-linecap="round" stroke-linejoin="miter" stroke-miterlimit="2" stroke-opacity="1" stroke-width="2" transform="matrix(1,0,0,1,102,30)"><path d="M0.5,-4.5 L5.5,0.5 L0.5,5.5" fill-rule="evenodd" vector-effect="none"/></g><defs><clipPath id="clip6"><path d="M-2,-2 L107,-2 L107,75 L-2,75 L-2,-2 z"/></clipPath></defs><g clip-path="url(#clip6)" fill="#ffffff" fill-opacity="1" opacity="1" stroke="none" stroke-opacity="0" transform="matrix(1,0,0,1,2,2)"><path d="M0,0 L100,0 L100,56 L0,56 L0,0 z" fill-rule="evenodd" vector-effect="none"/></g><defs><clipPath id="clip10"><path d="M-52,-30 L52,-30 L52,30 L-52,30 L-52,-30 z"/></clipPath></defs><g clip-path="url(#clip10)" fill="none" opacity="1" stroke="#000000" stroke-linecap="butt" stroke-linejoin="miter" stroke-miterlimit="2" stroke-opacity="1" stroke-width="1" transform="matrix(1,0,0,1,52,30)"><text fill="#000000" fill-opacity="1" font-family="Arial, sans-serif" font-size="10" font-style="normal" font-weight="400" stroke="none" textLength="27.75" x="-13.875" xml:space="preserve" y="3.5">PDEC</text></g><defs><clipPath id="clip11"><path d="M-99,-30 L5,-30 L5,30 L-99,30 L-99,-30 z"/></clipPath></defs><g clip-path="url(#clip11)" fill="none" opacity="1" stroke="#000000" stroke-linecap="butt" stroke-linejoin="miter" stroke-miterlimit="2" stroke-opacity="1" stroke-width="1" transform="matrix(1,0,0,1,99,30)"><text fill="#000000" fill-opacity="1" font-family="Arial, sans-serif" font-size="10" font-style="normal" font-weight="400" stroke="none" textLength="29.9375" x="-29.9375" xml:space="preserve" y="3.5"> count </text></g><defs><clipPath id="clip16"><path d="M-2.5,-2.5 L106.5,-2.5 L106.5,74.5 L-2.5,74.5 L-2.5,-2.5 z"/></clipPath></defs><g clip-path="url(#clip16)" fill="none" opacity="1" stroke="#000000" stroke-linecap="butt" stroke-linejoin="miter" stroke-miterlimit="2" stroke-opacity="1" stroke-width="1" transform="matrix(1,0,0,1,2.5,2.5)"><path d="M0,0 L100,0 L100,56 L0,56 L0,0 z" fill-rule="evenodd" vector-effect="none"/></g><defs><clipPath id="clip22"><path d="M0,0 L30,0 L30,15 L0,15 L0,0 z"/></clipPath></defs><g clip-path="url(#clip22)" fill="none" opacity="1" stroke="#000000" stroke-linecap="square" stroke-linejoin="bevel" stroke-opacity="1" stroke-width="1" transform="matrix(1,0,0,1,37.125,60)"><text fill="#000000" fill-opacity="1" font-family="Arial, sans-serif" font-size="10" font-style="normal" font-weight="400" stroke="none" textLength="27.75" x="1" xml:space="preserve" y="11">PDEC</text></g></g><!--generated on windows @ 2025-10-13 20:33:10 Romance Daylight Time--></svg>
